SplineFontDB: 3.0
FontName: Eadui
FullName: Eadui
FamilyName: Eadui
Weight: Medium
Copyright: Copyright (c) 2011-15 by Peter S. Baker
UComments: "2008-5-6: Created.+AAoACgAA-To do: longs b? longs h?+AAoACgAA-Both PostScript hinting (for CFF font) and TTF instructions seem to make this font look worse. Best, probably, to leave it unhinted.+AAoA"
Version: 2.0
ItalicAngle: 0
UnderlinePosition: -99
UnderlineWidth: 49
Ascent: 653
Descent: 347
InvalidEm: 0
LayerCount: 3
Layer: 0 0 "Back" 1
Layer: 1 0 "Fore" 0
Layer: 2 0 "Trace" 1
XUID: [1021 762 1371532084 11357298]
FSType: 8
OS2Version: 0
OS2_WeightWidthSlopeOnly: 0
OS2_UseTypoMetrics: 1
CreationTime: 1210090339
ModificationTime: 1450056623
PfmFamily: 65
TTFWeight: 500
TTFWidth: 5
LineGap: 100
VLineGap: 0
Panose: 3 2 6 2 4 6 4 3 8 4
OS2TypoAscent: 0
OS2TypoAOffset: 1
OS2TypoDescent: 0
OS2TypoDOffset: 1
OS2TypoLinegap: 100
OS2WinAscent: 0
OS2WinAOffset: 1
OS2WinDescent: 0
OS2WinDOffset: 1
HheadAscent: 800
HheadAOffset: 0
HheadDescent: -400
HheadDOffset: 0
OS2FamilyClass: 2565
OS2Vendor: 'PSBa'
Lookup: 5 0 0 "'ccmp' Sub dotlessi before diacritic" { "'ccmp' Sub dotlessi before diacritic-1"  } ['ccmp' ('DFLT' <'dflt' > 'latn' <'dflt' > ) ]
Lookup: 2 0 0 "'ccmp' Glyph Composition/Decomposition in Latin lookup 14" { "'ccmp' Glyph Composition/Decomposition in Latin lookup 14-1"  } ['ccmp' ('DFLT' <'dflt' > 'latn' <'dflt' > ) ]
Lookup: 4 0 0 "'ccmp' Medieval combos" { "'ccmp' Medieval combos-1"  } ['ccmp' ('DFLT' <'dflt' > 'latn' <'dflt' > ) ]
Lookup: 1 0 0 "'smcp' Lowercase to Small Capitals in Latin lookup 8" { "'smcp' Lowercase to Small Capitals in Latin lookup 8-1"  } ['smcp' ('DFLT' <'dflt' > 'latn' <'dflt' > ) ]
Lookup: 1 0 0 "'titl' Titling caps from lc" { "'titl' Titling caps from lc-1"  } ['titl' ('DFLT' <'dflt' > 'latn' <'dflt' > ) ]
Lookup: 1 0 0 "'hist' Medievalize" { "'hist' Medievalize-1"  } ['hist' ('DFLT' <'dflt' > 'latn' <'dflt' > ) ]

StartChar: a
Encoding: 97 97 0
Width: 325
VWidth: 0
Flags: W
HStem: -4 35<104.037 149.081 244 326.306> 325 36<137.5 216>
VStem: 12 61<55.138 112.025> 200 62<51.9355 155.99 178.96 293.808>
AnchorPoint: "us anchor" 245 439 basechar 0
AnchorPoint: "std below anchor" 147 -49 basechar 0
AnchorPoint: "std above anchor" 171 439 basechar 0
LayerCount: 3
Fore
SplineSet
12 66 m 256
 12 86 33 113 44 123 c 0
 63 140 104 152 132 163 c 0
 150 170 165 174 176 178 c 0
 196 185 200 188 200 209 c 0
 200 241 192 267 180 291 c 0
 169 312 162 325 140 325 c 259
 135 325 128 323 120 320 c 0
 112 317 98 311 81 302 c 0
 70 296 62 292 59 292 c 3
 57 292 55 293 55 295 c 3
 55 297 75 309 115 330 c 0
 155 351 184 361 201 361 c 256
 231 361 252 315 257 285 c 0
 260 264 262 237 262 204 c 0
 262 191 262 178 261 163 c 2
 259 70 l 1
 262 66 270 58 283 46 c 0
 296 34 308 27 318 27 c 256
 329 27 338 30 346 34 c 0
 349 36 351 36 353 36 c 3
 354 36 355 36 355 35 c 3
 355 34 353 32 351 30 c 0
 346 25 333 16 312 6 c 0
 291 -4 271 -9 253 -9 c 256
 235 -9 221 0 211 16 c 0
 201 32 195 40 193 40 c 0
 188 40 176 33 156 18 c 0
 136 3 120 -4 107 -4 c 256
 76 -4 43 18 27 36 c 0
 17 47 12 57 12 66 c 256
73 97 m 256
 73 67 97 50 120 40 c 0
 134 34 142 31 147 31 c 256
 181 31 199 91 199 128 c 259
 199 142 198 156 188 156 c 3
 174 156 167 155 138 147 c 0
 114 140 98 134 88 126 c 0
 78 118 73 108 73 97 c 256
EndSplineSet
Substitution2: "'ss14' Enlarged minuscules-1" a.enlarged
Substitution2: "'swsh' Swash in Latin lookup 22-1" a.swash
Substitution2: "'ss07' Underdotted-1" uni1EA1
AlternateSubs2: "'salt' Stylistic Alternatives in Latin lookup 26-1" a.alt01 a.alt02 a.enlarged
Substitution2: "Single Substitution no tag - 2-1" a.alt02
Substitution2: "Single Substitution no tag-1" a.alt01
Substitution2: "'titl' Titling caps from lc-1" A.titling
Substitution2: "'smcp' Lowercase to Small Capitals in Latin lookup 8-1" a.sc
EndChar

StartChar: b
Encoding: 98 98 1
Width: 391
VWidth: 0
Flags: W
HStem: -7 41<112 236.965> 325 43<166.092 239.646> 622 20G<101.5 120>
VStem: 12 135<532.361 608.587> 30 65<68.7361 417.886> 38 63<121.984 283.356 316.018 520.295> 295 70<111.343 261.889>
AnchorPoint: "us anchor" 326 439 basechar 0
AnchorPoint: "std below anchor" 160 -49 basechar 0
AnchorPoint: "std above anchor" 193 659 basechar 0
LayerCount: 3
Fore
SplineSet
12 582 m 259xf2
 12 591 24 603 47 618 c 280
 70 633 92 641 111 642 c 259
 129 642 147 638 147 623 c 3xf2
 147 617 144 610 143 605 c 0
 135 570 134 574 121 512 c 8
 108 450 101 414 101 356 c 19
 101 341 102 316 110 316 c 3
 116 316 122 319 136 329 c 0
 156 343 203 368 234 368 c 259
 249 368 268 362 288 352 c 24
 308 342 326 324 342 298 c 8
 358 272 365 250 365 231 c 256
 365 145 349 105 304 60 c 24
 261 17 211 -7 129 -7 c 259
 95 -7 47 20 38 44 c 24xe6
 34 57 30 89 30 119 c 3xea
 30 182 36 288 37 346 c 0
 38 382 38 409 38 426 c 24xe6
 38 454 30 541 20 558 c 24
 14 567 12 575 12 582 c 259xf2
95 180 m 0xea
 95 161 96 142 97 124 c 0
 101 71 135 34 188 34 c 259
 246 34 261 51 280 94 c 24
 290 117 295 136 295 151 c 256
 295 223 283 258 248 296 c 24
 230 315 211 325 190 325 c 275
 158 325 134 298 116 276 c 0
 99 255 95 218 95 180 c 0xea
EndSplineSet
Validated: 1
Substitution2: "'ss07' Underdotted-1" uni1E05
Substitution2: "'titl' Titling caps from lc-1" B.titling
Substitution2: "'smcp' Lowercase to Small Capitals in Latin lookup 8-1" b.sc
EndChar

StartChar: c
Encoding: 99 99 2
Width: 312
VWidth: 0
Flags: W
HStem: -8 36<120.5 234.33> 319 42<132.868 224.5>
VStem: 19 65<86.4154 244.543> 310 32<77.6336 144.899>
AnchorPoint: "us anchor" 287 439 basechar 0
AnchorPoint: "std below anchor" 134 -49 basechar 0
AnchorPoint: "std above anchor" 189 439 basechar 0
LayerCount: 3
Fore
SplineSet
19 121 m 256
 19 240 61 312 144 345 c 0
 170 356 193 361 214 361 c 256
 235 361 253 353 266 338 c 0
 279 323 286 314 286 311 c 3
 286 305 228 269 224 269 c 11
 222 269 213 277 200 294 c 0
 187 311 174 319 159 319 c 256
 139 319 121 309 106 290 c 0
 91 271 84 242 84 204 c 256
 84 182 86 136 91 119 c 0
 94 109 100 95 111 78 c 0
 130 48 153 28 199 28 c 256
 244 28 279 43 294 72 c 0
 301 86 307 101 310 117 c 0
 313 133 320 146 331 146 c 3
 340 146 342 141 342 134 c 259
 342 103 332 79 312 61 c 0
 269 21 221 -8 135 -8 c 256
 106 -8 80 2 56 21 c 0
 32 40 19 74 19 121 c 256
EndSplineSet
Validated: 1
AlternateSubs2: "'salt' Stylistic Alternatives in Latin lookup 26-1" c.enlarged
Substitution2: "'ss14' Enlarged minuscules-1" c.enlarged
Substitution2: "'ss07' Underdotted-1" uni00630323
Substitution2: "'titl' Titling caps from lc-1" C.titling
Substitution2: "'smcp' Lowercase to Small Capitals in Latin lookup 8-1" c.sc
Substitution2: "Single Substitution no tag-1" c.alt
EndChar

StartChar: g
Encoding: 103 103 3
Width: 459
VWidth: 0
Flags: W
HStem: -392 55<17.224 222.139> -303 20G<81 83> 299 48<349.175 486.95> 322 41<176.913 267.5>
VStem: 30 68<100.323 241.611> 283 66<139.458 270.4> 396 68<-221.15 -113.347>
AnchorPoint: "us anchor" 354 439 basechar 0
AnchorPoint: "std below anchor" 141 -408 basechar 0
AnchorPoint: "std above anchor" 201 439 basechar 0
LayerCount: 3
Fore
SplineSet
-29 -370 m 256xee
 -29 -361 -15 -346 16 -327 c 0
 52 -304 59 -300 71 -290 c 0
 76 -286 80 -283 82 -283 c 3
 84 -283 84 -284 84 -285 c 3
 84 -286 83 -288 79 -292 c 0
 65 -308 58 -318 58 -322 c 0
 58 -332 89 -337 137 -337 c 256
 198 -337 239 -334 259 -328 c 0
 294 -317 368 -273 384 -244 c 0
 392 -229 396 -209 396 -182 c 256
 396 -147 384 -119 360 -98 c 0
 336 -77 302 -59 256 -44 c 0
 210 -29 181 -17 168 -10 c 0
 159 -5 154 0 154 5 c 3
 154 11 161 21 161 25 c 3
 161 31 152 31 134 31 c 0
 65 31 30 72 30 155 c 256
 30 210 53 252 80 282 c 0
 112 319 137 329 192 348 c 0
 221 358 242 363 257 363 c 0xde
 278 363 288 358 300 347 c 0
 309 339 314 336 323 336 c 0
 328 336 335 337 345 339 c 0
 356 341 382 344 425 347 c 2
 474 350 l 2
 481 350 486 348 487 344 c 2
 492 330 l 2
 496 319 496 314 496 312 c 0
 496 308 409 300 398 299 c 0
 376 297 349 294 349 275 c 3
 349 263 354 253 354 240 c 256
 354 171 335 145 302 108 c 0
 286 90 271 75 258 64 c 0
 245 53 238 45 238 40 c 0
 238 35 244 30 254 24 c 0
 264 18 280 12 302 7 c 0
 351 -5 403 -21 436 -52 c 0
 454 -69 464 -99 464 -142 c 256
 464 -181 452 -214 427 -241 c 0
 402 -268 374 -291 341 -310 c 0
 308 -329 280 -344 257 -356 c 0
 234 -368 202 -378 162 -384 c 0
 122 -390 90 -392 69 -392 c 256
 4 -392 -29 -385 -29 -370 c 256xee
98 187 m 0
 98 154 104 128 115 108 c 0
 126 88 135 76 142 72 c 0
 149 68 157 67 166 67 c 256
 184 67 215 68 227 74 c 0
 244 83 269 121 276 142 c 0
 281 156 283 172 283 189 c 256
 283 244 262 281 228 304 c 0
 210 316 195 322 186 322 c 256
 144 322 123 290 110 256 c 0
 102 235 98 212 98 187 c 0
EndSplineSet
Validated: 1
Substitution2: "Single Substitution no tag - 3-1" g.alt1
Substitution2: "'ss07' Underdotted-1" uni00670323
Substitution2: "'titl' Titling caps from lc-1" G.titling
Substitution2: "'smcp' Lowercase to Small Capitals in Latin lookup 8-1" g.sc
Substitution2: "Single Substitution no tag - 2-1" g.alt2
Substitution2: "Single Substitution no tag-1" g.alt1
EndChar

StartChar: d
Encoding: 100 100 4
Width: 430
VWidth: 0
Flags: W
HStem: -19 35<359.791 406.487> -6 37<144.61 232.647> 332 36<157.875 253.793> 620 20G<347.5 358.5>
VStem: 13 68<88.8454 238.779> 266 136<543.767 622.197> 299 59<20.821 36.9978 79.8535 282.748>
AnchorPoint: "us anchor" 486 439 basechar 0
AnchorPoint: "std below anchor" 211 -49 basechar 0
AnchorPoint: "std above anchor" 185 659 basechar 0
LayerCount: 3
Fore
SplineSet
13 145 m 256x7a
 13 201 19 213 47 260 c 0
 64 289 80 310 94 321 c 0
 121 343 205 368 255 368 c 256
 264 368 274 367 284 364 c 0
 287 363 294 362 298 362 c 3
 307 362 311 368 311 376 c 3
 311 384 311 389 311 397 c 0
 308 463 297 533 278 565 c 0
 270 578 266 588 266 595 c 3
 266 609 278 620 302 628 c 0
 326 636 343 640 352 640 c 3
 365 640 383 637 393 631 c 0
 398 628 402 626 402 619 c 3x7c
 402 615 401 611 398 605 c 0
 391 593 386 570 382 536 c 0
 376 475 373 359 366 300 c 0
 363 266 361 214 360 145 c 2
 358 35 l 1x7a
 367 26 385 16 402 16 c 0
 406 16 419 19 426 19 c 3
 429 19 431 18 431 17 c 3
 431 13 422 6 402 -4 c 0
 382 -14 355 -19 322 -19 c 0xbc
 304 -19 295 -16 295 -2 c 3
 295 5 299 19 299 26 c 3
 299 34 296 37 290 37 c 3
 281 37 267 30 250 21 c 0
 225 8 208 1 198 -2 c 0
 188 -5 178 -6 168 -6 c 256
 111 -6 72 3 50 21 c 0
 28 39 18 60 16 84 c 0
 14 108 13 128 13 145 c 256x7a
81 192 m 256
 81 181 83 161 87 133 c 0
 93 90 118 62 152 45 c 0
 171 36 191 31 212 31 c 256
 266 31 281 78 290 130 c 0
 296 162 299 187 299 204 c 0x7a
 299 260 276 295 242 316 c 0
 225 327 211 332 199 332 c 256
 147 332 118 292 98 256 c 0
 86 235 81 213 81 192 c 256
EndSplineSet
Validated: 1
AlternateSubs2: "'salt' Stylistic Alternatives in Latin lookup 26-1" d.enlarged
Substitution2: "'ss14' Enlarged minuscules-1" d.enlarged
Substitution2: "'ss07' Underdotted-1" uni1E0D
Substitution2: "'titl' Titling caps from lc-1" D.titling
Substitution2: "'smcp' Lowercase to Small Capitals in Latin lookup 8-1" d.sc
EndChar

StartChar: e
Encoding: 101 101 5
Width: 296
VWidth: 0
Flags: W
HStem: -5 33<124.5 232.03> 283 20<267.332 310.102> 337 23<131.229 213>
VStem: 13 66<93.5246 245.747>
AnchorPoint: "us anchor" 257 439 basechar 0
AnchorPoint: "std below anchor" 146 -49 basechar 0
AnchorPoint: "std above anchor" 168 439 basechar 0
LayerCount: 3
Fore
SplineSet
13 165 m 256
 13 221 23 263 44 290 c 0
 65 317 91 335 120 345 c 0
 149 355 173 360 191 360 c 256
 235 360 230 357 246 326 c 0
 250 319 253 313 255 309 c 0
 259 302 261 301 267 301 c 3
 274 301 286 303 296 303 c 0
 305 303 312 301 312 296 c 257
 312 293 305 288 290 283 c 0
 261 272 159 262 125 256 c 0
 102 252 88 247 84 242 c 0
 80 237 79 224 79 204 c 0
 79 140 90 94 127 59 c 0
 149 38 168 28 191 28 c 256
 233 28 265 45 282 68 c 0
 284 72 298 100 308 100 c 3
 315 100 316 93 316 86 c 259
 316 83 314 77 308 68 c 24
 281 25 216 -5 144 -5 c 256
 105 -5 63 13 44 30 c 0
 36 37 30 48 23 64 c 0
 16 80 13 114 13 165 c 256
91 286 m 256
 88 276 94 273 112 276 c 0
 130 279 147 282 163 284 c 0
 179 286 188 288 190 290 c 0
 192 292 194 297 194 306 c 256
 194 323 173 337 155 337 c 256
 127 337 99 309 91 286 c 256
EndSplineSet
Substitution2: "'ss07' Underdotted-1" uni1EB9
AlternateSubs2: "'salt' Stylistic Alternatives in Latin lookup 26-1" e.alt02 e.alt04
Substitution2: "Single subsitution no tag - 4-1" e.alt04
Substitution2: "'swsh' Swash in Latin lookup 22-1" e.alt01
Substitution2: "Single Substitution no tag - 3-1" e.alt03
Substitution2: "Single Substitution no tag - 2-1" e.alt02
Substitution2: "'titl' Titling caps from lc-1" E.titling
Substitution2: "'smcp' Lowercase to Small Capitals in Latin lookup 8-1" e.sc
Substitution2: "Single Substitution no tag-1" e.alt01
EndChar

StartChar: f
Encoding: 102 102 6
Width: 280
VWidth: 0
Flags: W
HStem: 313 31<168.396 291.577> 610 37<180.401 289>
VStem: 76 58<-104.429 135.266 347.333 587.454>
AnchorPoint: "us anchor" 440 439 basechar 0
AnchorPoint: "std below anchor" 176 -78 basechar 0
AnchorPoint: "std above anchor" 172 659 basechar 0
LayerCount: 3
Fore
SplineSet
18 300 m 256
 18 310 22 318 30 325 c 2
 57 347 l 2
 65 354 69 368 70 390 c 0
 71 418 71 519 73 544 c 0
 75 568 78 572 94 585 c 0
 114 602 176 629 207 638 c 0
 227 644 248 647 269 647 c 259
 309 647 316 644 338 623 c 0
 350 612 355 604 355 601 c 256
 355 598 355 594 354 591 c 0
 351 583 332 571 295 556 c 0
 289 554 284 553 281 553 c 0
 273 553 270 560 266 570 c 0
 259 588 227 610 200 610 c 256
 179 610 143 590 139 572 c 0
 137 563 136 542 135 511 c 0
 134 480 134 445 134 407 c 256
 134 370 135 349 138 346 c 0
 141 343 153 342 174 342 c 0
 206 342 205 342 218 342 c 2
 281 344 l 2
 288 344 292 341 292 336 c 2
 292 328 l 2
 292 320 290 315 286 313 c 0
 282 311 256 308 211 303 c 0
 166 298 143 294 143 291 c 0
 143 77 139 -74 134 -84 c 0
 130 -92 117 -103 92 -116 c 0
 89 -118 86 -119 83 -119 c 0
 78 -119 76 -115 76 -108 c 2
 76 134 l 2
 76 201 74 239 70 250 c 0
 66 261 58 268 48 270 c 0
 31 273 18 281 18 300 c 256
EndSplineSet
Validated: 1
Substitution2: "Single Substitution no tag - 3-1" f.alt1
AlternateSubs2: "'salt' Stylistic Alternatives in Latin lookup 26-1" f.enlarged
Substitution2: "'ss14' Enlarged minuscules-1" f.enlarged
Substitution2: "'ss07' Underdotted-1" uni00660323
Substitution2: "Single Substitution no tag - 2-1" f.alt2
Substitution2: "'titl' Titling caps from lc-1" F.titling
Substitution2: "'smcp' Lowercase to Small Capitals in Latin lookup 8-1" f.sc
Substitution2: "Single Substitution no tag-1" f.alt2
EndChar

StartChar: h
Encoding: 104 104 7
Width: 405
VWidth: 0
Flags: W
HStem: -21 21G<214 217.5> 330 37<184.556 285.5> 620 20G<91.5 106>
VStem: 2 113<473.149 614.681> 18 68<33 253.065> 28 62<308.383 555.022> 305 73<108.13 257.792>
AnchorPoint: "us anchor" 317 439 basechar 0
AnchorPoint: "std below anchor" 141 -49 basechar 0
AnchorPoint: "std above anchor" 179 659 basechar 0
LayerCount: 3
Fore
SplineSet
2 586 m 0xf2
 2 599 3 599 10 606 c 0
 14 609 25 616 44 626 c 0
 63 636 82 640 101 640 c 0
 111 640 116 635 115 626 c 0xf2
 115 561 106 495 98 424 c 0
 93 378 90 348 90 334 c 0xe6
 90 320 91 310 94 307 c 2
 95 307 l 2
 100 307 122 317 160 337 c 0
 198 357 233 367 262 367 c 0
 309 367 332 337 350 302 c 0
 366 271 378 228 378 190 c 256
 378 166 374 145 366 126 c 24
 346 80 289 19 250 -2 c 1
 221 -19 l 2
 219 -20 218 -20 217 -21 c 0
 211 -21 211 -16 216 -12 c 2
 237 5 l 2
 244 10 252 20 262 35 c 0
 286 67 305 117 305 171 c 256
 305 242 267 295 224 320 c 0
 213 326 203 330 193 330 c 256
 175 330 158 321 142 304 c 0
 126 287 116 272 111 260 c 0
 106 248 101 240 98 234 c 0
 93 223 89 187 86 125 c 2
 82 33 l 1
 121 30 l 2
 128 29 132 28 132 26 c 0
 132 24 129 21 122 18 c 2
 112 13 l 2
 93 3 72 -3 50 -4 c 2
 33 -5 l 2
 25 -6 21 -1 21 9 c 0
 19 65 18 111 18 146 c 0xea
 18 201 28 332 28 383 c 0xe6
 28 429 23 512 12 547 c 0
 6 567 2 580 2 586 c 0xf2
EndSplineSet
Validated: 1
Substitution2: "'ss07' Underdotted-1" uni1E25
Substitution2: "'titl' Titling caps from lc-1" H.titling
Substitution2: "'smcp' Lowercase to Small Capitals in Latin lookup 8-1" h.sc
EndChar

StartChar: i
Encoding: 105 105 8
Width: 207
VWidth: 0
Flags: W
HStem: -0 32<72.5 147.111> 341 20G<112.5 128> 489 71<78.5156 143.484>
VStem: 68 51<46.4783 271.477> 76 70<491.356 557.783>
AnchorPoint: "us anchor" 177 566 basechar 0
AnchorPoint: "std below anchor" 86 -49 basechar 0
AnchorPoint: "std above anchor" 101 586 basechar 0
LayerCount: 3
Fore
SplineSet
76 525 m 0xe8
 76 546 90 560 111 560 c 0
 132 560 146 546 146 525 c 0
 146 504 132 489 111 489 c 0
 90 489 76 504 76 525 c 0xe8
7 296 m 256
 7 307 10 316 16 322 c 0
 22 328 36 336 58 346 c 0
 80 356 102 361 123 361 c 256
 133 361 139 355 139 344 c 3
 139 335 139 326 138 318 c 0
 133 268 125 257 122 188 c 0
 120 149 119 125 119 114 c 0
 119 79 121 56 124 46 c 0
 127 36 134 32 145 32 c 0
 156 32 169 35 186 42 c 0
 200 48 206 52 209 52 c 3
 210 52 211 51 211 50 c 0
 211 42 128 6 121 4 c 0
 110 1 97 0 80 -0 c 256
 65 0 42 0 42 5 c 0
 42 8 45 11 47 17 c 0
 48 22 49 28 50 36 c 0
 55 70 59 165 64 201 c 0
 67 224 68 242 68 252 c 0xf0
 68 262 58 270 38 275 c 0
 18 280 7 287 7 296 c 256
EndSplineSet
Validated: 1
Substitution2: "'ss07' Underdotted-1" uni1ECB
Substitution2: "'swsh' Swash in Latin lookup 22-1" i.swash
Substitution2: "Single subsitution no tag - 4-1" dotlessi
Substitution2: "Single Substitution no tag-1" i.alt
Substitution2: "'titl' Titling caps from lc-1" I.titling
Substitution2: "'smcp' Lowercase to Small Capitals in Latin lookup 8-1" i.sc
Substitution2: "'hist' Medievalize-1" dotlessi
EndChar

StartChar: l
Encoding: 108 108 9
Width: 235
VWidth: 0
Flags: W
HStem: -5 40<124.488 213.775> 622 20G<114.5 135.5>
VStem: 20 137<541.558 614> 31 72<53.831 280.646> 47 61<149.858 515.858>
AnchorPoint: "us anchor" 255 439 basechar 0
AnchorPoint: "std below anchor" 117 -49 basechar 0
AnchorPoint: "std above anchor" 144 659 basechar 0
LayerCount: 3
Fore
SplineSet
20 596 m 256xe0
 20 601 33 610 58 623 c 0
 83 636 105 642 124 642 c 0
 147 642 157 637 157 620 c 0xe0
 157 611 152 592 142 564 c 24
 132 536 125 494 118 439 c 0
 111 384 108 341 108 310 c 0
 108 307 108 304 108 301 c 0xc8
 108 257 103 213 103 169 c 0
 103 151 104 134 106 116 c 0
 114 55 124 35 184 35 c 0
 226 35 260 48 274 75 c 0
 281 88 288 95 294 95 c 0
 300 95 302 90 302 81 c 0
 302 71 295 60 280 49 c 24
 259 33 186 -2 152 -4 c 0
 138 -5 125 -5 113 -5 c 0
 86 -5 66 1 52 14 c 0
 38 27 31 37 31 44 c 0xd0
 31 51 34 101 40 194 c 0
 45 272 47 333 47 377 c 0
 47 385 47 393 47 400 c 0xc8
 46 479 47 502 30 556 c 0
 23 577 20 591 20 596 c 256xe0
EndSplineSet
Validated: 1
Substitution2: "'ss07' Underdotted-1" uni1E37
Substitution2: "'titl' Titling caps from lc-1" L.titling
Substitution2: "'smcp' Lowercase to Small Capitals in Latin lookup 8-1" l.sc
EndChar

StartChar: m
Encoding: 109 109 10
Width: 629
VWidth: 0
Flags: W
HStem: -7 21G<56.5 75.5 283 302 493.5 526> 326 34<211.574 301.5 413.388 491.5>
VStem: 44 72<-0.135172 133.064> 262 77<7.46524 180.358> 482 69<-1.24148 139.78>
AnchorPoint: "us anchor" 525 439 basechar 0
AnchorPoint: "std below anchor" 302 -49 basechar 0
AnchorPoint: "std above anchor" 327 439 basechar 0
LayerCount: 3
Fore
SplineSet
4 304 m 259
 4 317 13 323 36 337 c 0
 55 349 74 358 92 365 c 0
 110 372 119 375 122 375 c 256
 135 375 141 346 142 330 c 0
 143 317 144 309 147 306 c 257
 157 316 176 327 204 340 c 0
 232 353 261 360 288 360 c 256
 315 360 345 331 356 314 c 1
 382 332 442 360 485 360 c 256
 498 360 512 358 528 354 c 0
 544 350 557 336 564 314 c 0
 571 292 575 275 575 264 c 256
 575 235 571 199 564 156 c 2
 555 97 l 2
 552 78 551 65 551 56 c 0
 551 36 561 33 577 27 c 256
 586 24 590 21 590 18 c 256
 590 15 583 10 568 3 c 256
 553 -4 536 -7 516 -7 c 0
 510 -7 504 -7 500 -7 c 0
 487 -7 482 -5 482 4 c 0
 482 7 482 9 483 13 c 0
 487 54 491 86 496 106 c 0
 501 126 503 145 503 163 c 0
 503 197 503 254 493 278 c 0
 488 291 478 302 464 312 c 0
 450 322 440 326 435 326 c 280
 405 326 382 300 370 280 c 0
 358 260 357 225 352 200 c 0
 349 184 343 94 340 78 c 0
 339 75 339 71 339 68 c 0
 339 51 347 37 360 35 c 0
 366 34 372 32 372 30 c 3
 372 27 369 25 366 23 c 0
 362 20 354 17 344 12 c 0
 327 3 310 -1 294 -1 c 0
 272 -1 264 -1 262 13 c 0
 262 28 266 58 274 100 c 0
 282 142 285 181 285 216 c 0
 285 275 280 292 254 315 c 0
 245 323 237 326 228 326 c 259
 208 326 176 303 164 291 c 0
 155 282 147 272 141 262 c 0
 135 252 129 220 124 168 c 0
 119 116 116 84 116 71 c 0
 116 48 120 37 136 31 c 0
 143 29 153 25 153 22 c 3
 153 18 137 10 133 8 c 0
 113 -1 87 -6 64 -6 c 0
 49 -6 44 -6 44 3 c 0
 44 6 45 12 46 18 c 0
 60 112 67 183 67 230 c 256
 67 249 61 261 48 264 c 0
 30 269 4 284 4 304 c 259
EndSplineSet
Validated: 1
Substitution2: "'ss07' Underdotted-1" uni1E43
Substitution2: "Single Substitution no tag-1" m.alt
Substitution2: "'titl' Titling caps from lc-1" M.titling
Substitution2: "'smcp' Lowercase to Small Capitals in Latin lookup 8-1" m.sc
EndChar

StartChar: n
Encoding: 110 110 11
Width: 420
VWidth: 0
Flags: W
HStem: -7 21G<50.5 70.5 284 306.5> 326 33<216.354 311>
VStem: 43 73<-1.42538 124.84> 273 69<0.763306 202.103>
AnchorPoint: "us anchor" 307 439 basechar 0
AnchorPoint: "std below anchor" 193 -49 basechar 0
AnchorPoint: "std above anchor" 213 439 basechar 0
LayerCount: 3
Fore
SplineSet
4 304 m 259
 4 316 13 322 36 336 c 0
 55 348 74 358 92 365 c 0
 110 372 119 375 122 375 c 256
 136 375 141 347 141 328 c 0
 141 313 143 305 147 305 c 0
 151 305 164 312 187 326 c 0
 225 349 243 359 292 359 c 256
 330 359 342 349 354 314 c 0
 362 292 366 275 366 264 c 0
 366 235 362 199 355 156 c 2
 346 97 l 2
 343 78 342 66 342 59 c 3
 342 38 350 34 368 27 c 256
 377 24 381 21 381 18 c 256
 381 15 376 11 366 6 c 256
 346 -3 321 -7 292 -7 c 0
 276 -7 273 -5 273 7 c 0
 273 18 274 27 275 36 c 0
 279 66 283 90 286 106 c 0
 291 133 293 153 293 182 c 0
 293 215 292 258 284 278 c 0
 277 294 253 326 233 326 c 256
 227 326 212 319 188 304 c 0
 164 289 150 275 143 264 c 0
 136 253 130 222 124 169 c 0
 118 116 116 84 116 71 c 0
 116 48 120 38 136 32 c 0
 143 30 153 25 153 22 c 3
 153 20 142 12 139 10 c 0
 119 -1 86 -7 55 -7 c 0
 46 -7 43 -5 43 1 c 0
 43 5 44 10 46 18 c 0
 60 112 67 183 67 230 c 256
 67 253 61 265 48 267 c 0
 29 270 4 285 4 304 c 259
EndSplineSet
Validated: 1
AlternateSubs2: "'salt' Stylistic Alternatives in Latin lookup 26-1" n.alt2
Substitution2: "'ss07' Underdotted-1" uni1E47
Substitution2: "'swsh' Swash in Latin lookup 22-1" n.swash
Substitution2: "Single Substitution no tag-1" n.alt1
Substitution2: "'titl' Titling caps from lc-1" N.titling
Substitution2: "'smcp' Lowercase to Small Capitals in Latin lookup 8-1" n.sc
EndChar

StartChar: o
Encoding: 111 111 12
Width: 367
VWidth: 0
Flags: W
HStem: -7 38<136.904 219.944> 317 42<133.166 238.103>
VStem: 7 69<87.1216 241.416> 278 62<108.015 242.952>
AnchorPoint: "us anchor" 267 439 basechar 0
AnchorPoint: "std below anchor" 163 -49 basechar 0
AnchorPoint: "std above anchor" 187 439 basechar 0
LayerCount: 3
Fore
SplineSet
7 134 m 256
 7 220 26 247 70 294 c 0
 102 328 162 359 224 359 c 0
 252 359 271 354 282 345 c 0
 299 331 330 280 336 256 c 0
 338 246 340 228 340 201 c 256
 340 131 308 80 270 46 c 8
 241 20 195 -7 149 -7 c 256
 110 -7 83 -1 56 24 c 0
 38 41 25 56 18 70 c 0
 11 84 7 105 7 134 c 256
76 180 m 256
 76 112 100 63 148 44 c 0
 171 35 186 31 193 31 c 256
 208 31 234 42 242 49 c 0
 247 54 255 65 264 84 c 0
 273 103 278 123 278 142 c 256
 278 184 258 248 242 274 c 0
 232 290 221 302 206 308 c 0
 191 314 181 317 174 317 c 256
 147 317 142 313 118 295 c 0
 83 268 76 245 76 180 c 256
EndSplineSet
Validated: 1
Substitution2: "'ss07' Underdotted-1" uni1ECD
Substitution2: "'titl' Titling caps from lc-1" O.titling
Substitution2: "'smcp' Lowercase to Small Capitals in Latin lookup 8-1" o.sc
EndChar

StartChar: p
Encoding: 112 112 13
Width: 439
VWidth: 0
Flags: W
HStem: -320 21G<34.5 47> -8 27<182.174 281.154> 328 37<192.393 289.52>
VStem: 23 73<-277.811 -74.0728> 44 57<-277.811 -11.9976> 61 57<81.8346 263.272> 343 69<98.8184 243.236>
AnchorPoint: "us anchor" 351 439 basechar 0
AnchorPoint: "std below anchor" 227 -49 basechar 0
AnchorPoint: "std above anchor" 223 439 basechar 0
LayerCount: 3
Fore
SplineSet
6 301 m 256xe6
 6 306 10 312 18 322 c 0
 26 332 43 342 70 351 c 0
 97 360 113 365 118 365 c 256xe6
 131 365 136 362 136 350 c 0
 136 341 134 334 134 326 c 0
 134 320 136 316 142 316 c 0
 152 316 160 319 169 324 c 0
 177 329 190 336 207 344 c 0
 232 356 253 362 269 362 c 256
 321 362 358 340 382 310 c 24
 411 274 412 255 412 189 c 256
 412 130 410 128 386 92 c 0
 364 59 319 25 283 6 c 0
 264 -4 239 -8 208 -8 c 256
 195 -8 169 -5 131 2 c 0
 118 4 110 0 109 -11 c 24
 106 -32 103 -71 101 -126 c 0xea
 99 -186 96 -212 96 -230 c 3
 96 -240 97 -252 97 -262 c 0
 97 -268 97 -274 95 -278 c 0
 93 -282 86 -290 74 -302 c 0
 62 -314 52 -320 42 -320 c 0
 27 -320 23 -319 23 -311 c 0xf2
 23 -306 24 -297 26 -285 c 0
 35 -231 41 -162 44 -78 c 0xea
 47 6 51 76 56 132 c 0
 60 175 61 205 61 221 c 0
 61 226 61 229 61 231 c 0
 58 253 54 259 34 266 c 0
 19 271 6 284 6 301 c 256xe6
118 181 m 256
 118 112 142 55 186 30 c 0
 198 23 216 19 239 19 c 256
 272 19 310 48 322 72 c 0
 333 93 343 139 343 168 c 256
 343 197 322 249 308 267 c 0
 292 287 243 328 208 328 c 256
 172 328 145 283 132 255 c 0
 123 235 118 210 118 181 c 256
EndSplineSet
Validated: 1
AlternateSubs2: "'salt' Stylistic Alternatives in Latin lookup 26-1" p.enlarged
Substitution2: "'ss14' Enlarged minuscules-1" p.enlarged
Substitution2: "'ss07' Underdotted-1" uni00700323
Substitution2: "Single Substitution no tag-1" p.alt
Substitution2: "'titl' Titling caps from lc-1" P.titling
Substitution2: "'smcp' Lowercase to Small Capitals in Latin lookup 8-1" p.sc
EndChar

StartChar: r
Encoding: 114 114 14
Width: 286
VWidth: 0
Flags: W
HStem: -24 21G<56.5 62.5> 310 58<186.5 247.18> 338 20G<108.5 119.5>
VStem: 50 69<2 177.538> 63 58<2 258.419>
AnchorPoint: "us anchor" 221 439 basechar 0
AnchorPoint: "std below anchor" 133 -49 basechar 0
AnchorPoint: "std above anchor" 137 439 basechar 0
LayerCount: 3
Fore
SplineSet
6 307 m 3xd0
 6 312 14 320 20 324 c 0
 38 335 79 353 90 355 c 0
 98 357 105 358 112 358 c 3
 127 358 129 352 134 329 c 0
 137 314 141 306 144 306 c 0
 147 306 156 313 172 327 c 0
 188 341 202 351 214 358 c 0xb0
 226 365 234 368 236 368 c 0
 241 368 245 364 250 356 c 0
 257 344 283 327 299 327 c 0
 303 327 311 329 317 329 c 3
 321 329 324 328 324 324 c 0
 324 317 320 313 313 310 c 0
 303 306 248 294 234 294 c 0
 227 294 218 297 208 302 c 0
 198 307 192 310 189 310 c 0
 184 310 179 306 172 300 c 0
 159 288 141 258 134 240 c 0
 130 230 128 210 126 179 c 0
 124 148 123 105 121 49 c 2xc8
 119 2 l 1
 89 -13 l 2
 75 -20 65 -24 60 -24 c 0
 53 -24 50 -19 50 -9 c 0xd0
 50 22 51 21 56 59 c 0
 59 81 62 126 63 194 c 1
 63 258 l 2xc8
 63 267 59 272 50 274 c 0
 40 276 6 296 6 307 c 3xd0
EndSplineSet
Validated: 1
Substitution2: "'ss07' Underdotted-1" uni1E5B
AlternateSubs2: "'salt' Stylistic Alternatives in Latin lookup 26-1" uniA75B
Substitution2: "Single Substitution no tag-1" r.alt
Substitution2: "'titl' Titling caps from lc-1" R.titling
Substitution2: "'smcp' Lowercase to Small Capitals in Latin lookup 8-1" r.sc
EndChar

StartChar: q
Encoding: 113 113 15
Width: 417
VWidth: 0
Flags: W
HStem: -305 21G<274.5 283> -9 33<150.435 237.465> 340 25<153.467 273.672>
VStem: 12 71<97.4387 264.698> 272 82<-282.565 -165.957> 296 66<-122.024 22.8023 41.5854 277.644> 296 52<-254.812 22.8023>
AnchorPoint: "us anchor" 330 439 basechar 0
AnchorPoint: "std below anchor" 166 -49 basechar 0
AnchorPoint: "std above anchor" 207 439 basechar 0
LayerCount: 3
Fore
SplineSet
12 147 m 256xf4
 12 177 18 228 28 253 c 0
 40 282 80 327 105 340 c 0
 125 350 219 365 251 365 c 256
 269 365 283 361 297 361 c 0
 299 361 302 361 304 361 c 0
 310 362 320 365 331 371 c 0
 350 380 363 384 372 384 c 0
 381 384 386 382 386 377 c 0
 386 376 386 373 384 368 c 0
 382 363 380 347 377 322 c 0
 369 249 362 207 362 110 c 256xf4
 362 41 360 -12 355 -48 c 0
 350 -84 348 -122 348 -164 c 0xf2
 348 -206 350 -232 352 -242 c 0
 353 -247 354 -251 354 -255 c 0
 354 -268 347 -273 335 -281 c 0
 310 -298 290 -305 276 -305 c 0
 273 -305 272 -304 272 -301 c 3xf8
 272 -297 273 -291 275 -282 c 0
 282 -248 289 -204 292 -148 c 0
 295 -92 296 -57 296 -44 c 0
 296 -38 296 -27 296 -16 c 0
 296 1 296 19 292 23 c 0
 291 24 289 24 286 24 c 0
 280 24 270 21 256 15 c 0
 221 -1 187 -9 153 -9 c 256
 116 -9 90 0 72 16 c 24
 54 32 39 54 28 82 c 0
 17 110 12 132 12 147 c 256xf4
83 196 m 256
 83 153 92 117 110 88 c 0
 128 59 143 41 156 34 c 8
 169 27 186 24 208 24 c 256
 248 24 274 34 285 54 c 0
 292 65 295 88 295 123 c 0
 295 199 291 246 284 262 c 0
 272 289 221 340 183 340 c 256
 172 340 156 334 136 322 c 0
 94 298 83 262 83 196 c 256
EndSplineSet
Validated: 1
Substitution2: "'ss07' Underdotted-1" uni00710323
Substitution2: "'titl' Titling caps from lc-1" Q.titling
Substitution2: "'smcp' Lowercase to Small Capitals in Latin lookup 8-1" q.sc
EndChar

StartChar: t
Encoding: 116 116 16
Width: 321
VWidth: 0
Flags: W
HStem: -5 38<158.865 257.631> 299 46<7.71255 83.989> 308 48<194.056 367.845>
VStem: 330 38<83.3126 131.807>
AnchorPoint: "us anchor" 291 439 basechar 0
AnchorPoint: "std below anchor" 165 -49 basechar 0
AnchorPoint: "std above anchor" 187 439 basechar 0
LayerCount: 3
Fore
SplineSet
-9 308 m 256xb0
 -9 313 1 320 20 330 c 0
 39 340 64 345 96 345 c 0xd0
 128 345 152 348 164 353 c 0
 176 358 184 363 187 363 c 0
 190 363 193 362 194 360 c 0
 195 358 208 356 224 356 c 2
 326 356 l 2
 364 356 383 353 383 346 c 0
 383 344 380 340 375 335 c 0
 347 314 l 0
 343 310 338 308 331 308 c 2
 257 308 l 2xb0
 180 307 137 300 130 285 c 0
 117 257 110 220 110 173 c 256
 110 132 118 101 132 80 c 0
 157 43 187 33 243 33 c 256
 258 33 269 36 278 42 c 0
 290 50 330 104 330 124 c 1
 335 129 341 133 348 134 c 1
 350 129 354 126 360 126 c 0
 366 126 368 123 368 118 c 0
 368 113 364 105 358 92 c 0
 352 79 341 67 324 54 c 0
 307 41 286 28 260 15 c 0
 234 2 203 -5 169 -5 c 256
 153 -5 133 -3 110 2 c 0
 87 7 68 20 56 40 c 0
 41 64 36 86 36 111 c 0
 36 131 39 153 43 182 c 0
 48 217 56 244 67 264 c 0
 78 284 84 294 84 296 c 0
 84 298 69 299 38 299 c 0xd0
 7 299 -9 302 -9 308 c 256xb0
EndSplineSet
Validated: 1
Substitution2: "Single Substitution no tag - 2-1" t.alt2
Substitution2: "'ss07' Underdotted-1" uni1E6D
Substitution2: "'swsh' Swash in Latin lookup 22-1" t.swash
Substitution2: "Single Substitution no tag - 3-1" t.alt2
Substitution2: "'titl' Titling caps from lc-1" T.titling
Substitution2: "'smcp' Lowercase to Small Capitals in Latin lookup 8-1" t.sc
EndChar

StartChar: u
Encoding: 117 117 17
Width: 437
VWidth: 0
Flags: W
HStem: -9 49<106.5 217.193 312 443> -9 35<300 401.291> 343 20G<141.5 153>
VStem: 47 67<53.7296 258.189> 250 138<286.227 339.8>
AnchorPoint: "us anchor" 344 439 basechar 0
AnchorPoint: "std below anchor" 202 -49 basechar 0
AnchorPoint: "std above anchor" 228 439 basechar 0
LayerCount: 3
Fore
SplineSet
4 301 m 256xb8
 4 306 9 312 20 320 c 0
 31 328 51 338 82 348 c 0
 113 358 135 363 148 363 c 256
 158 363 172 363 172 355 c 3
 172 352 170 347 164 340 c 0
 158 333 154 324 151 314 c 0
 148 304 141 286 130 258 c 0
 119 230 114 191 114 141 c 256
 114 100 123 59 146 44 c 0
 156 38 170 34 191 34 c 256
 219 34 240 38 254 48 c 0
 282 67 287 73 290 114 c 0
 294 175 298 204 302 266 c 1
 290 272 250 296 250 312 c 0
 250 339 309 358 334 366 c 0
 354 372 370 374 381 374 c 0
 386 374 388 370 388 360 c 0
 388 350 383 323 373 278 c 0
 360 221 351 135 351 81 c 256
 351 54 355 26 381 26 c 256x78
 389 26 412 30 428 35 c 0
 433 36 440 40 443 40 c 3
 445 40 446 39 446 37 c 3
 446 34 434 26 431 24 c 0
 397 2 358 -9 312 -9 c 0
 288 -9 284 -9 280 6 c 0
 277 16 274 24 262 24 c 256
 259 24 255 23 248 22 c 0
 241 21 225 16 202 7 c 0
 179 -2 153 -6 125 -6 c 256
 88 -6 60 11 51 38 c 0
 48 46 47 72 47 115 c 259
 47 155 51 190 58 210 c 0
 63 226 66 237 66 244 c 0
 66 253 60 258 44 264 c 0
 31 269 4 286 4 301 c 256xb8
EndSplineSet
Validated: 1
Substitution2: "'ss07' Underdotted-1" uni1EE5
Substitution2: "Single Substitution no tag-1" u.alt
Substitution2: "'titl' Titling caps from lc-1" U.titling
Substitution2: "'smcp' Lowercase to Small Capitals in Latin lookup 8-1" u.sc
EndChar

StartChar: x
Encoding: 120 120 18
Width: 447
VWidth: 0
Flags: W
HStem: -126 40<-171.993 -91> -66 20G<-114 -111.5> -5 36<283.5 370.509> 319 46<275.805 343.5> 324 34<73.8383 135>
VStem: 149 82<147.994 262.208>
AnchorPoint: "us anchor" 308 439 basechar 0
AnchorPoint: "std below anchor" 198 -49 basechar 0
AnchorPoint: "std above anchor" 224 439 basechar 0
LayerCount: 3
Fore
SplineSet
-187 -117 m 0xf4
 -187 -114 -183 -108 -175 -101 c 2
 -155 -82 l 2
 -130 -58 -116 -46 -112 -46 c 3
 -111 -46 -110 -47 -110 -48 c 0
 -110 -50 -120 -71 -120 -74 c 3
 -120 -81 -103 -86 -94 -86 c 0
 -88 -86 -73 -81 -51 -71 c 0
 4 -46 74 38 107 94 c 0
 128 130 141 156 144 169 c 0
 147 182 149 193 149 200 c 0
 149 218 143 237 131 257 c 2
 111 288 l 2
 100 305 93 316 89 319 c 0xf4
 85 322 81 324 76 324 c 0
 71 324 63 321 52 314 c 2
 14 292 l 18
 9 289 6 289 5 294 c 0
 5 296 12 302 28 313 c 0
 44 324 61 334 79 344 c 0
 97 354 111 358 121 358 c 256
 149 358 179 323 192 302 c 2
 210 274 l 1
 245 313 l 2
 269 339 287 354 300 358 c 0xec
 313 362 323 365 332 365 c 0
 355 365 371 355 384 342 c 0
 392 334 395 328 395 325 c 0
 395 307 379 292 367 281 c 0
 362 276 349 271 343 271 c 0
 340 271 333 273 331 278 c 0
 328 284 304 319 296 319 c 0
 284 319 274 313 266 302 c 0
 251 281 231 252 231 218 c 0
 231 203 239 177 256 141 c 0
 273 105 289 78 306 59 c 0
 323 40 340 31 356 31 c 0
 372 31 392 43 414 68 c 0
 430 86 446 105 454 105 c 0
 458 105 460 102 460 93 c 256
 460 85 456 78 446 72 c 0
 436 66 423 56 407 40 c 0
 385 19 347 -5 313 -5 c 0
 254 -5 218 33 202 77 c 0
 193 100 187 114 184 118 c 0
 181 122 177 125 174 125 c 256
 170 125 166 122 162 117 c 2
 91 32 l 10
 90 31 90 31 61 2 c 0
 19 -40 -30 -77 -92 -104 c 0
 -125 -118 -149 -126 -164 -126 c 0
 -179 -126 -187 -123 -187 -117 c 0xf4
EndSplineSet
Validated: 1
Substitution2: "'ss07' Underdotted-1" xdotbelowcomb
Substitution2: "'titl' Titling caps from lc-1" X.titling
Substitution2: "'smcp' Lowercase to Small Capitals in Latin lookup 8-1" x.sc
EndChar

StartChar: longs
Encoding: 383 383 19
Width: 220
VWidth: 0
Flags: W
HStem: -30 21G<78 86.5> 499 51<183.873 275.586>
VStem: 69 68<-19.4531 258.758> 79 58<70.15 288.992>
AnchorPoint: "std above anchor" 212 571 basechar 0
AnchorPoint: "std below anchor" 130 -49 basechar 0
AnchorPoint: "us anchor" 419 439 basechar 0
LayerCount: 3
Fore
SplineSet
17 306 m 256xd0
 17 317 21 334 30 357 c 0
 52 413 116 478 164 515 c 0
 194 538 227 550 264 550 c 256
 287 550 306 545 321 534 c 0
 336 523 343 514 343 507 c 256
 343 490 330 477 320 467 c 0
 313 460 305 457 298 457 c 256
 293 457 286 461 277 468 c 0
 263 479 235 499 212 499 c 259
 173 499 160 437 153 402 c 0
 142 346 137 243 137 174 c 0
 137 143 137 126 137 107 c 0
 137 78 139 35 142 4 c 1
 129 -9 118 -18 110 -23 c 0
 102 -28 92 -30 81 -30 c 256
 75 -30 72 -20 72 -15 c 0
 71 -2 69 50 69 68 c 0xe0
 69 113 79 214 79 261 c 0
 79 287 77 293 51 293 c 2
 40 293 l 2
 25 293 17 298 17 306 c 256xd0
EndSplineSet
Validated: 1
Substitution2: "'ss07' Underdotted-1" uni017F0323
Substitution2: "'titl' Titling caps from lc-1" S.titling
EndChar

StartChar: ampersand
Encoding: 38 38 20
Width: 590
VWidth: 0
Flags: W
HStem: -19 56<497.5 567.326> -7 47<158.742 270.378> 311 60<154.065 205.763> 420 45<268 332.983>
VStem: 21 65<108.821 228.554>
AnchorPoint: "std above anchor" 312 498 basechar 0
AnchorPoint: "us anchor" 395 485 basechar 0
AnchorPoint: "std below anchor" 186 -49 basechar 0
LayerCount: 3
Fore
SplineSet
21 142 m 0x78
 21 171 26 196 37 218 c 0
 59 263 109 316 149 346 c 0
 171 362 188 371 200 371 c 0
 209 371 217 377 224 388 c 0
 231 399 242 413 259 428 c 0
 285 453 305 465 320 465 c 0
 337 465 347 452 347 434 c 0
 347 407 331 380 299 353 c 0
 296 350 294 347 294 344 c 0
 294 336 303 327 307 323 c 2
 393 237 l 1
 409 256 l 2
 439 292 466 335 483 378 c 0
 490 395 493 406 493 411 c 0
 493 422 491 422 483 426 c 0
 473 430 446 433 446 446 c 0
 446 450 454 459 469 474 c 0
 484 489 499 496 514 496 c 0
 524 496 593 483 593 472 c 256
 593 462 564 447 560 442 c 0
 543 421 520 382 502 352 c 0
 471 301 477 300 433 256 c 2
 402 224 l 1
 417 190 l 2
 433 154 452 129 470 104 c 0
 485 84 515 61 534 47 c 0
 543 40 551 37 562 37 c 0
 569 37 578 38 590 41 c 0
 602 44 610 46 614 46 c 3
 615 46 616 46 616 44 c 3
 616 41 610 35 606 31 c 0
 589 15 565 0 540 -11 c 0
 528 -16 515 -19 504 -19 c 256xb8
 491 -19 480 -14 469 -6 c 0
 450 9 406 54 393 73 c 0
 386 84 378 89 370 89 c 0
 363 89 353 81 340 66 c 0
 321 44 257 2 226 -4 c 0
 214 -6 196 -7 171 -7 c 0
 79 -7 21 48 21 142 c 0x78
228 377 m 0
 228 355 245 350 268 350 c 0
 282 350 293 371 293 386 c 0
 293 399 287 420 274 420 c 0
 262 420 228 389 228 377 c 0
86 195 m 256
 86 112 130 66 192 48 c 0
 209 43 225 40 241 40 c 256x78
 297 40 309 68 324 110 c 0
 329 125 332 138 332 148 c 0
 332 174 303 211 246 259 c 0
 205 293 175 310 154 311 c 256
 134 311 117 288 108 274 c 0
 91 250 86 240 86 195 c 256
EndSplineSet
Validated: 1
EndChar

StartChar: y
Encoding: 121 121 21
Width: 386
VWidth: 0
Flags: W
HStem: -270 65<-82.5 13.5> 343 20G<57 66 278.5 300.5>
AnchorPoint: "us anchor" 287 439 basechar 0
AnchorPoint: "std below anchor" 235 -104 basechar 0
AnchorPoint: "std above anchor" 171 439 basechar 0
LayerCount: 3
Fore
SplineSet
-130 -220 m 256
 -130 -209 -120 -193 -100 -174 c 24
 -80 -155 -67 -146 -58 -146 c 0
 -47 -146 -36 -154 -26 -169 c 24
 -16 -184 -10 -194 -8 -198 c 0
 -6 -202 0 -205 9 -205 c 256
 18 -205 27 -200 36 -192 c 0
 45 -184 54 -174 64 -162 c 16
 73 -151 147 -24 147 -2 c 0
 147 8 145 22 140 38 c 8
 113 125 69 225 24 288 c 0
 13 304 11 303 8 315 c 256
 8 327 51 363 63 363 c 256
 69 363 74 360 79 355 c 8
 90 344 101 328 112 308 c 16
 128 278 173 170 185 138 c 24
 191 122 195 114 197 114 c 256
 199 114 205 126 216 150 c 16
 230 181 259 237 274 260 c 0
 277 265 279 269 279 273 c 256
 279 278 276 282 271 283 c 0
 255 287 210 301 210 317 c 0
 210 333 270 365 287 365 c 0
 314 365 347 345 369 341 c 16
 380 339 386 336 386 331 c 0
 386 327 376 317 355 300 c 24
 334 283 322 273 318 268 c 8
 314 263 306 244 292 212 c 8
 269 160 230 87 208 40 c 8
 180 -21 164 -55 118 -118 c 24
 90 -156 68 -184 50 -201 c 24
 27 -223 -36 -270 -75 -270 c 256
 -90 -270 -130 -234 -130 -220 c 256
EndSplineSet
Validated: 1
Substitution2: "'ss07' Underdotted-1" uni1EF5
AlternateSubs2: "'salt' Stylistic Alternatives in Latin lookup 26-1" y.alt
Substitution2: "'ss10' Alternate y-1" y.alt
Substitution2: "'titl' Titling caps from lc-1" Y.titling
Substitution2: "'smcp' Lowercase to Small Capitals in Latin lookup 8-1" y.sc
Substitution2: "'hist' Medievalize-1" uni1E8F
EndChar

StartChar: v
Encoding: 118 118 22
Width: 386
VWidth: 0
Flags: W
HStem: -28 21G<201.5 207> 337 20G<308.5 329>
VStem: 21 103<253.597 331.489>
AnchorPoint: "us anchor" 303 439 basechar 0
AnchorPoint: "std below anchor" 202 -49 basechar 0
AnchorPoint: "std above anchor" 206 439 basechar 0
LayerCount: 3
Fore
SplineSet
21 296 m 0
 21 330 69 351 105 351 c 256
 117 351 123 339 124 314 c 0
 125 283 134 246 152 204 c 0
 170 163 186 135 199 118 c 0
 212 101 221 92 224 92 c 256
 227 92 234 98 243 110 c 256
 247 114 302 210 302 238 c 0
 302 242 301 244 299 245 c 1
 286 251 l 2
 257 264 243 274 243 282 c 256
 243 291 252 306 270 326 c 0
 288 346 303 357 314 357 c 256
 344 357 369 350 369 325 c 256
 369 311 352 268 318 196 c 0
 284 124 255 60 229 7 c 256
 217 -16 209 -28 205 -28 c 264
 198 -28 189 -19 180 -1 c 256
 133 88 87 188 30 269 c 0
 24 279 21 287 21 296 c 0
EndSplineSet
Validated: 1
Substitution2: "'ss07' Underdotted-1" uni1E7F
Substitution2: "'hist' Medievalize-1" u
Substitution2: "'titl' Titling caps from lc-1" V.titling
Substitution2: "'smcp' Lowercase to Small Capitals in Latin lookup 8-1" v.sc
EndChar

StartChar: k
Encoding: 107 107 23
Width: 429
VWidth: 0
Flags: W
HStem: -2 61<362.035 403.162> 153 51<111.339 173.862> 619 20G<99.5 111>
VStem: 6 117<544.296 604.289> 30 73<43.3296 152.968> 47 59<218.242 488.25> 223 108<256.286 308.264>
AnchorPoint: "us anchor" 292 439 basechar 0
AnchorPoint: "std below anchor" 163 -49 basechar 0
AnchorPoint: "std above anchor" 182 659 basechar 0
LayerCount: 3
Fore
SplineSet
6 588 m 0xf2
 6 599 94 639 105 639 c 0
 117 639 123 626 123 598 c 0
 123 594 123 589 123 585 c 2xf2
 108 327 l 2
 106 301 106 280 106 263 c 0xe6
 106 238 107 223 111 218 c 0
 118 209 140 204 178 204 c 2
 243 204 l 2
 246 204 252 212 259 229 c 1
 259 240 248 255 227 273 c 0
 224 275 223 277 223 280 c 0
 223 285 228 292 236 300 c 0
 245 309 274 338 288 338 c 0
 302 338 314 325 322 316 c 0
 328 309 331 301 331 294 c 0
 331 279 320 260 300 236 c 0
 280 212 270 192 270 177 c 0
 270 146 292 119 336 95 c 0
 380 71 404 59 411 59 c 0
 427 59 435 58 435 55 c 0
 435 44 423 32 400 18 c 0
 377 4 362 -2 356 -2 c 0
 350 -2 328 10 291 32 c 0
 254 54 222 80 195 109 c 0
 168 138 152 153 147 153 c 2
 126 153 l 2
 111 153 104 142 103 119 c 0
 103 115 103 115 103 71 c 0
 103 59 105 50 109 43 c 0
 113 36 117 34 126 32 c 0
 133 30 139 26 139 23 c 3
 139 19 132 13 130 12 c 0
 119 6 107 0 90 -2 c 0
 69 -5 53 -6 44 -6 c 0
 35 -6 30 -5 30 -4 c 0
 30 -2 30 2 30 5 c 0xea
 30 22 32 54 36 100 c 0
 45 203 44 271 47 374 c 0
 47 381 47 388 47 395 c 0xe6
 47 432 45 466 39 496 c 0
 32 532 26 556 18 568 c 24
 10 580 6 586 6 588 c 0xf2
EndSplineSet
Validated: 1
Substitution2: "'ss07' Underdotted-1" uni1E33
Substitution2: "'titl' Titling caps from lc-1" K.titling
Substitution2: "'smcp' Lowercase to Small Capitals in Latin lookup 8-1" k.sc
EndChar

StartChar: w
Encoding: 119 119 24
Width: 632
VWidth: 0
Flags: W
HStem: -28 21G<201.5 207 436.5 442> 337 20G<544 565>
VStem: 21 103<253.114 331.912> 256 103<251.627 331.732>
AnchorPoint: "us anchor" 555 439 basechar 0
AnchorPoint: "std below anchor" 331 -49 basechar 0
AnchorPoint: "std above anchor" 330 439 basechar 0
LayerCount: 3
Fore
SplineSet
21 296 m 0
 21 331 69 351 105 351 c 0
 117 351 123 339 124 314 c 0
 125 283 134 246 152 204 c 0
 170 163 186 135 199 118 c 0
 212 101 220 92 224 92 c 0
 228 92 234 98 243 110 c 0
 255 126 284 181 294 208 c 0
 297 215 296 223 291 230 c 2
 266 269 l 2
 259 278 256 289 256 300 c 0
 256 331 307 351 340 351 c 0
 351 351 358 339 359 314 c 0
 360 281 370 245 388 204 c 0
 406 163 421 134 434 117 c 0
 447 100 456 92 460 92 c 0
 464 92 469 98 478 110 c 0
 482 114 538 209 538 237 c 0
 538 241 536 244 534 245 c 1
 521 251 l 2
 492 264 478 274 478 282 c 0
 478 291 487 306 505 326 c 0
 523 346 538 357 550 357 c 0
 580 357 604 351 604 325 c 0
 604 311 588 270 556 201 c 0
 511 105 481 40 464 7 c 0
 452 -16 444 -28 440 -28 c 0
 433 -28 425 -19 415 -1 c 0
 393 40 350 136 325 173 c 0
 322 178 319 181 317 181 c 0
 314 181 311 178 308 172 c 2
 229 7 l 2
 217 -16 209 -28 205 -28 c 0
 198 -28 189 -19 180 -1 c 8
 136 89 88 185 30 269 c 16
 24 277 21 286 21 296 c 0
EndSplineSet
Validated: 1
Substitution2: "'ss07' Underdotted-1" uni1E89
Substitution2: "'titl' Titling caps from lc-1" W.titling
Substitution2: "'smcp' Lowercase to Small Capitals in Latin lookup 8-1" w.sc
Substitution2: "'hist' Medievalize-1" w.alt
EndChar

StartChar: eogonek
Encoding: 281 281 25
Width: 296
VWidth: 0
Flags: W
HStem: -231 26<-6.5 45.8796> -5 33<137.339 232.291> 283 20<267.332 310.102> 337 23<130.941 213>
VStem: -209 8<-383.683 -373.53> 13 84<-181 -130.469> 13 54<98.7699 245.747> 46 51<-204.586 -154.135>
AnchorPoint: "std below anchor" 171 -38 basechar 0
AnchorPoint: "us anchor" 257 439 basechar 0
AnchorPoint: "std above anchor" 172 439 basechar 0
LayerCount: 3
Fore
SplineSet
13 -176 m 0xfc
 13 -186 28 -205 39 -205 c 0
 44 -205 46 -200 46 -190 c 0xf9
 46 -180 44 -171 38 -164 c 0
 32 -157 28 -154 26 -154 c 0
 16 -154 13 -167 13 -176 c 0xfc
79 286 m 0
 76 276 82 273 100 276 c 0
 118 279 135 282 151 284 c 0
 167 286 176 288 178 290 c 0
 180 292 182 297 182 306 c 0
 182 323 161 337 143 337 c 0
 115 337 87 309 79 286 c 0
-209 -382 m 0
 -209 -375 -202 -363 -187 -347 c 0
 -154 -311 -70 -208 -34 -170 c 0
 19 -113 20 -108 68 -44 c 0
 81 -27 92 -12 99 1 c 1
 79 6 53 22 44 30 c 0
 36 37 30 48 23 64 c 0
 16 80 13 114 13 165 c 0
 13 221 23 263 44 290 c 0
 65 317 91 335 120 345 c 0
 149 355 173 360 191 360 c 0
 235 360 230 357 246 326 c 0
 253 312 258 303 260 302 c 0
 261 301 264 301 267 301 c 0
 274 301 286 303 296 303 c 0
 305 303 312 301 312 296 c 1
 312 293 305 288 290 283 c 0
 261 272 147 262 113 256 c 0
 90 252 76 247 72 242 c 0
 68 237 67 224 67 204 c 0xfa
 67 140 82 94 119 59 c 0
 141 38 164 28 187 28 c 0
 229 28 265 45 282 68 c 0
 284 72 298 100 308 100 c 0
 310 100 312 98 314 94 c 0
 315 90 316 88 316 86 c 0
 316 83 314 77 308 68 c 0
 281 25 216 -5 144 -5 c 0
 136 -5 128 -5 121 -4 c 1
 103 -33 85 -62 68 -92 c 1
 81 -112 l 2
 91 -127 97 -142 97 -158 c 0xfc
 97 -197 72 -215 38 -224 c 0
 18 -229 6 -231 0 -231 c 0
 -13 -231 -25 -231 -32 -224 c 0
 -36 -220 -39 -219 -44 -219 c 0
 -49 -219 -56 -223 -66 -232 c 0
 -76 -241 -85 -255 -96 -274 c 0
 -107 -293 -126 -314 -156 -338 c 0
 -186 -362 -201 -376 -201 -379 c 0
 -201 -382 -203 -384 -208 -384 c 0
 -209 -384 -210 -383 -209 -382 c 0
EndSplineSet
Validated: 1
MultipleSubs2: "'ccmp' Glyph Composition/Decomposition in Latin lookup 14-1" e uni0328
EndChar

StartChar: uniFB02
Encoding: 64258 64258 26
Width: 518
VWidth: 0
Flags: W
HStem: -2 44<402.5 502.148> 300 35<146.288 322.418> 610 38<180.037 293.5>
VStem: 71 62<-121.421 122.187 340.812 575.753> 323 63<148.567 299.996>
AnchorPoint: "us ligature anchor" 229 391 baselig 0
AnchorPoint: "ligature below" 174 -54 baselig 0
AnchorPoint: "ligature anchor" 199 659 baselig 0
AnchorPoint: "us ligature anchor" 560 391 baselig 1
AnchorPoint: "ligature below" 432 -24 baselig 1
AnchorPoint: "ligature anchor" 434 659 baselig 1
LayerCount: 3
Fore
SplineSet
18 300 m 256
 18 309 22 318 30 325 c 2
 57 347 l 2
 69 357 71 387 71 418 c 0
 71 446 70 467 70 493 c 3
 70 518 71 525 72 548 c 0
 72 556 74 565 80 574 c 0
 93 595 180 631 208 639 c 0
 229 645 250 648 272 648 c 0
 315 648 322 646 342 628 c 0
 354 617 360 611 360 598 c 3
 360 585 337 573 324 567 c 0
 308 559 300 555 285 555 c 0
 276 555 274 560 271 568 c 0
 262 589 231 610 202 610 c 0
 178 610 148 590 140 576 c 0
 137 571 135 549 134 510 c 0
 133 471 133 434 133 398 c 3
 133 340 141 335 168 335 c 3
 236 335 278 338 295 342 c 0
 329 350 337 356 337 397 c 2
 337 471 l 2
 337 489 333 503 326 513 c 0
 320 522 317 527 317 532 c 0
 317 551 397 574 434 579 c 0
 439 580 444 580 447 580 c 0
 448 580 449 579 449 577 c 0
 449 567 436 538 432 530 c 0
 420 507 403 426 400 392 c 0
 395 334 386 310 386 223 c 0
 386 168 387 130 391 110 c 0
 399 71 424 42 472 42 c 3
 515 42 517 43 548 68 c 0
 557 76 564 79 568 79 c 0
 572 79 574 77 574 71 c 0
 574 53 496 16 481 10 c 0
 464 3 441 -2 410 -2 c 0
 395 -2 377 4 358 16 c 0
 316 42 316 73 316 146 c 0
 316 201 323 241 323 278 c 0
 323 295 318 300 301 300 c 0
 292 300 150 291 146 286 c 0
 141 280 140 -87 135 -98 c 0
 131 -107 120 -117 101 -128 c 2
 74 -143 l 1
 73 -111 73 -79 73 -46 c 3
 73 19 74 84 74 149 c 3
 74 219 74 264 48 270 c 0
 31 274 18 281 18 300 c 256
EndSplineSet
Validated: 1
LCarets2: 1 282
Ligature2: "two-element ligature in Latin" f l
EndChar

StartChar: uniFB01
Encoding: 64257 64257 27
Width: 445
VWidth: 0
Flags: W
HStem: -9 21G<305.5 314.5> 316 33<164.679 261.584> 607 48<154.883 233.351>
VStem: 71 61<350 583.842> 84 67<-66 260.533> 298 70<33.0781 170.538> 311 64<150.462 291>
AnchorPoint: "us ligature anchor" 227 391 baselig 0
AnchorPoint: "ligature below" 182 -54 baselig 0
AnchorPoint: "ligature anchor" 184 659 baselig 0
AnchorPoint: "us ligature anchor" 431 391 baselig 1
AnchorPoint: "ligature below" 371 -24 baselig 1
AnchorPoint: "ligature anchor" 364 659 baselig 1
LayerCount: 3
Fore
SplineSet
18 300 m 256xea
 18 309 22 318 30 325 c 2
 57 347 l 2
 64 353 69 366 70 386 c 0
 71 406 71 430 71 458 c 2
 71 515 l 2
 71 532 74 560 79 572 c 0
 81 577 85 584 91 592 c 0
 97 600 112 612 137 629 c 0
 162 646 192 655 227 655 c 256
 262 655 291 646 314 628 c 2
 348 600 l 1
 315 579 l 2
 300 569 290 564 286 564 c 2
 276 564 l 2
 272 564 258 572 232 586 c 0
 206 600 187 607 175 607 c 256
 153 607 141 543 137 518 c 0
 134 496 132 476 132 458 c 0
 132 440 132 425 133 416 c 2
 137 350 l 1
 174 349 l 2
 175 349 178 349 182 348 c 0
 187 348 199 350 218 354 c 0
 237 358 261 365 289 374 c 0
 320.802851505 384.222345127 334.806307125 388 351 388 c 3
 371 388 373 387 374 361 c 0
 375 346 375 328 375 310 c 0xf2
 375 292 374 258 372 209 c 0
 370.769270231 172.897396436 368.312468579 138.020864754 368 101 c 0
 368 55 377 32 396 32 c 0
 407 32 420 36 436 44 c 0
 446 49 453 52 457 52 c 3
 459 52 460 50 460 49 c 0
 460 44 451 38 439 32 c 0
 409 17 357 1 347 -2 c 0
 336 -5 320 -9 309 -9 c 3
 302 -9 298 -3 298 9 c 3
 298 16 298 23 298 30 c 9xe4
 311 291 l 1
 277 306 l 2
 261 313 249 316 235 316 c 0
 224 316 213 314 198 310 c 0
 187 307 137 293 137 285 c 0
 137 279 144 209 147 72 c 2
 151 -66 l 1
 122 -79 l 2
 103 -88 91 -92 88 -92 c 0
 85 -92 84 -56 84 18 c 0
 84 92 83 146 81 179 c 0
 79 212 75 235 70 248 c 0
 65 261 58 268 48 270 c 0
 31 273 18 281 18 300 c 256xea
EndSplineSet
Ligature2: "two-element ligature in Latin" f i
LCarets2: 1 259
Ligature2: "two-element ligature in Latin" f dotlessi
EndChar

StartChar: s
Encoding: 115 115 28
Width: 282
VWidth: 0
Flags: W
HStem: -12 53<21.5695 186.098> -2 58<29.9445 86.0654> 303 58<97.6941 185.412>
VStem: 35 49<206.766 293.566> 211 49<46.9483 107.027>
AnchorPoint: "us anchor" 206 439 basechar 0
AnchorPoint: "std below anchor" 138 -49 basechar 0
AnchorPoint: "std above anchor" 163 439 basechar 0
LayerCount: 3
Fore
SplineSet
18 17 m 0x78
 18 18 19 20 20 22 c 0
 36 42 44 53 45 54 c 0
 46 56 50 57 55 56 c 0x78
 90 43 104 41 140 41 c 256
 172 41 211 43 211 75 c 256
 211 106 165 121 136 126 c 0
 117 129 95 139 71 155 c 0
 47 171 35 198 35 237 c 256
 35 254 40 270 52 287 c 0
 64 304 78 320 94 336 c 8
 110 352 132 361 157 361 c 256
 197 361 212 343 229 316 c 0
 230 314 230 314 231 312 c 0
 231 310 230 308 227 305 c 0
 216 297 186 279 175 271 c 0
 171 269 168 269 166 272 c 0
 152 291 140 303 112 303 c 256
 94 303 84 279 84 261 c 256
 84 230 90 216 114 201 c 0
 129 192 147 185 168 180 c 0
 189 175 210 167 230 154 c 0
 250 141 260 123 260 98 c 256
 260 81 254 64 242 47 c 0
 230 30 206 15 170 4 c 0
 134 -7 107 -12 87 -12 c 256xb8
 67 -12 51 -9 38 -2 c 0
 25 5 18 12 18 17 c 0x78
EndSplineSet
Validated: 1
Substitution2: "'ss07' Underdotted-1" uni1E63
Substitution2: "'titl' Titling caps from lc-1" S.titling
Substitution2: "'smcp' Lowercase to Small Capitals in Latin lookup 8-1" s.sc
Substitution2: "'hist' Medievalize-1" longs
EndChar

StartChar: uniFB05
Encoding: 64261 64261 30
Width: 510
VWidth: 0
Flags: W
HStem: -10 44<332.5 443.522> 287 63<183.499 273.861> 308 50<383.609 586.622> 308 41<368.063 585.343> 560 38<169.83 265.5>
VStem: 43 68<-55.3972 123> 54 70<51 257.489> 252 77<55.7667 276.387> 306 61<353.514 510.217>
AnchorPoint: "us ligature anchor" 205 391 baselig 0
AnchorPoint: "ligature below" 135 -54 baselig 0
AnchorPoint: "ligature anchor" 158 659 baselig 0
AnchorPoint: "us ligature anchor" 526 391 baselig 1
AnchorPoint: "ligature below" 375 -24 baselig 1
AnchorPoint: "ligature anchor" 356 659 baselig 1
LayerCount: 3
Fore
SplineSet
19 278 m 0xca
 19 301 27 318 43 328 c 0
 73 347 77 361 77 405 c 0
 77 476 80 516 86 526 c 24
 92 536 113 551 150 570 c 0
 187 589 220 598 250 598 c 256
 281 598 334 571 348 554 c 0
 364 534 370 469 370 433 c 0
 370 414 369 394 367 376 c 0
 367 373 367 371 367 369 c 0
 367 356 372 349 383 349 c 0x9c80
 396 349 408 350 420 352 c 0
 437 355 528 358 565 358 c 0
 569 358 573 358 576 358 c 0
 593 357 602 353 602 346 c 0
 602 343 595 336 581 325 c 0
 567 314 553 308 539 308 c 2
 436 308 l 2
 409 308 403 307 383 302 c 0
 346 292 344 262 336 212 c 0
 332 183 329 161 329 146 c 0
 329 116 338 70 352 54 c 0
 364 40 392 34 419 34 c 0
 431 34 444 35 454 38 c 0
 469 42 486 58 499 63 c 0
 510 68 516 66 516 55 c 0
 516 50 505 41 484 30 c 0
 452 13 393 -10 350 -10 c 0
 315 -10 275 15 262 37 c 0
 255 49 252 70 252 98 c 0xa9
 252 126 255 154 262 181 c 0
 269 208 272 233 273 254 c 2
 274 287 l 1
 243 290 220 294 206 296 c 0
 191 299 177 302 177 313 c 0
 177 315 177 317 178 319 c 0
 182 329 190 337 204 342 c 0
 218 347 228 350 236 350 c 0
 244 350 252 348 260 346 c 0
 268 344 275 344 278 345 c 0
 287 349 306 409 306 423 c 0
 306 456 304 478 302 486 c 0
 295 510 251 541 225 550 c 0
 206 557 193 560 184 560 c 0
 156 560 148 546 142 518 c 0
 136 490 126 289 124 256 c 0xca80
 123 243 111 -9 111 -24 c 0
 111 -36 111 -36 111 -37 c 0
 111 -48 61 -71 49 -71 c 0
 44 -71 42 -62 43 -45 c 2xcc
 54 219 l 2
 54 239 50 243 34 256 c 0
 24 264 19 271 19 278 c 0xca
EndSplineSet
Validated: 1
LCarets2: 1 227
Ligature2: "two-element ligature in Latin" longs t
EndChar

StartChar: f_a
Encoding: 65536 -1 31
Width: 626
VWidth: 0
GlyphClass: 3
Flags: W
HStem: -23 40<493.5 591.889> -9 43<308.511 381.239> 322 25<327.223 398.283> 577 47<169.352 260.5>
VStem: 70 61<347.002 554.093> 87 61<-137.326 257.704> 208 72<62.5024 112.5> 438 64<70.3816 182.061 211.188 288.576>
AnchorPoint: "us ligature anchor" 397 474 baselig 0
AnchorPoint: "ligature below" 188 -54 baselig 0
AnchorPoint: "ligature anchor" 163 659 baselig 0
AnchorPoint: "us ligature anchor" 482 391 baselig 1
AnchorPoint: "ligature below" 404 -24 baselig 1
AnchorPoint: "ligature anchor" 404 391 baselig 1
LayerCount: 3
Fore
SplineSet
18 300 m 256x77
 18 309 22 318 30 325 c 2
 57 347 l 2
 65 354 70 365 70 382 c 0
 70 386 70 392 70 398 c 0
 70 422 69 456 69 483 c 0
 69 495 69 505 70 512 c 0
 71 526 75 538 82 546 c 0
 89 554 102 563 119 573 c 2
 156 595 l 2
 177 607 193 615 205 619 c 0
 216 622 229 624 244 624 c 0
 277 624 336 605 347 586 c 0
 350 580 352 576 352 572 c 0
 352 564 345 558 336 550 c 0
 325 539 308 523 290 523 c 0
 284 523 278 525 272 529 c 0
 269 532 253 540 226 555 c 0
 199 570 181 577 172 577 c 0
 146 577 143 546 139 514 c 0
 135 474 131 448 131 412 c 0
 131 370 148 335 186 334 c 0
 196 334 218 336 252 340 c 0
 286 344 314 346 337 347 c 0
 360 348 377 351 389 356 c 0
 405 362 419 367 431 367 c 0
 440 367 450 364 460 356 c 0
 469 349 478 333 487 309 c 0
 496 285 500 241 502 176 c 0
 504 111 506 75 506 69 c 0
 507 54 544 25 556 21 c 0
 564 18 570 17 576 17 c 0
 587 17 596 22 612 31 c 0
 627 39 637 43 642 43 c 0
 647 43 649 42 649 40 c 0
 649 38 640 30 621 16 c 0
 587 -9 560 -23 505 -23 c 3xbb
 482 -23 480 -22 466 -5 c 0
 459 4 456 14 456 27 c 0
 456 40 452 46 444 46 c 0
 436 46 417 36 390 18 c 0
 363 0 337 -9 313 -9 c 0
 308 -9 300 -8 292 -5 c 0
 279 -1 220 43 214 54 c 0
 210 60 208 65 208 69 c 0
 208 83 222 101 250 122 c 0
 278 143 313 163 358 180 c 0
 403 197 426 207 429 211 c 0
 432 215 433 220 433 227 c 0
 433 253 426 275 413 294 c 0
 400 313 388 322 378 322 c 0
 368 322 355 319 342 314 c 0
 329 309 304 304 266 300 c 0
 206 293 194 293 161 276 c 0
 152 271 147 263 147 251 c 2
 148 84 l 2
 149 -27 151 -85 156 -91 c 0
 159 -97 158 -105 151 -115 c 0
 145 -125 135 -133 121 -140 c 2
 92 -153 l 18
 91 -153 91 -153 90 -154 c 0
 88 -154 87 -152 87 -149 c 0
 81 -106 82 129 81 180 c 0
 80 226 78 252 72 258 c 0
 56 275 18 268 18 300 c 256x77
280 108 m 0
 280 90 295 70 304 60 c 0
 315 47 336 34 363 34 c 0x73
 403 34 415 49 430 70 c 0
 436 78 438 95 438 118 c 0
 438 141 437 163 434 183 c 1
 408 174 l 1
 341 152 302 138 293 131 c 0
 284 125 280 117 280 108 c 0
EndSplineSet
Validated: 1
LCarets2: 1 233
Ligature2: "two-element ligature in Latin" f a
EndChar

StartChar: r_a
Encoding: 65537 -1 32
Width: 646
VWidth: 0
Flags: W
HStem: -34 21G<95 104> -8 45<305.5 381.412> -8 31<539.21 599.852> 303 54<212.5 287.5 532.5 600.1> 316 43<390.94 444>
VStem: 83 52<-30.7321 223.443> 265 54<60.688 253.768> 448 48<75.7314 242.386>
AnchorPoint: "us ligature anchor" 226 391 baselig 0
AnchorPoint: "ligature below" 151 -24 baselig 0
AnchorPoint: "ligature anchor" 149 391 baselig 0
AnchorPoint: "us ligature anchor" 526 391 baselig 1
AnchorPoint: "ligature below" 420 -24 baselig 1
AnchorPoint: "ligature anchor" 432 391 baselig 1
LayerCount: 3
Fore
SplineSet
8 278 m 0xd7
 8 281 8 285 10 289 c 0
 12 293 20 300 34 310 c 0
 48 320 63 328 79 336 c 0
 95 344 106 348 112 348 c 0
 118 348 122 336 122 312 c 0
 122 288 129 277 143 277 c 0
 152 277 161 282 172 292 c 0
 221 335 254 357 272 357 c 0xd7
 303 357 288 294 316 294 c 0
 329 294 345 302 366 318 c 0
 387 334 401 346 406 351 c 0
 411 356 419 359 429 359 c 256
 459 359 465 349 474 327 c 2
 488 294 l 1
 531 327 l 2
 558 348 577 358 587 358 c 0
 604 358 621 327 621 310 c 0
 621 294 618 290 606 282 c 0
 602 279 583 266 572 266 c 0
 570 266 567 267 566 268 c 0
 556 278 560 304 541 304 c 0
 524 304 500 277 498 262 c 0
 497 255 496 248 496 242 c 0
 496 236 497 223 500 202 c 0
 505 166 505 101 516 73 c 0
 526 49 544 23 577 23 c 256
 609 23 635 50 646 73 c 0
 649 80 665 107 671 107 c 0
 673 107 674 106 674 101 c 256
 674 98 672 93 667 84 c 0
 657 65 630 33 614 18 c 0
 596 2 576 -8 544 -8 c 256xaf
 496 -8 486 0 468 25 c 2
 443 57 l 1
 397 24 l 2
 368 3 340 -8 313 -8 c 0
 298 -8 288 -5 282 1 c 0
 271 12 265 40 265 86 c 0
 265 132 262 172 254 207 c 0
 246 242 240 266 237 281 c 0
 234 296 227 303 218 303 c 0
 207 303 191 291 169 268 c 2
 133 230 l 1
 134 106 l 2
 134 88 134 88 134 74 c 0
 134 63 135 50 135 37 c 0
 135 6 132 -24 111 -32 c 0
 108 -33 105 -34 103 -34 c 256
 87 -34 85 -11 83 5 c 0
 76 52 72 142 68 194 c 0
 67 211 65 242 49 242 c 3
 39 242 34 243 22 250 c 0
 12 256 8 266 8 278 c 0xd7
319 175 m 256
 319 127 325 59 358 44 c 0
 368 39 375 37 378 37 c 256
 387 37 400 46 416 64 c 0
 432 82 442 94 444 102 c 0
 446 110 448 117 448 123 c 256
 448 147 440 185 435 209 c 0
 428 239 416 279 406 302 c 0
 402 312 399 316 396 316 c 0xcf
 381 316 341 277 334 268 c 0
 328 260 324 252 322 243 c 0
 320 234 319 211 319 175 c 256
EndSplineSet
Validated: 1
Ligature2: "'hlig' Two-element Historic Ligatures" r a
LCarets2: 1 262
EndChar

StartChar: dotlessi
Encoding: 305 305 33
Width: 207
VWidth: 0
Flags: W
HStem: -0 32<72.5 147.111> 341 20G<112.5 128>
VStem: 68 51<46.4783 271.477>
AnchorPoint: "std below anchor" 82 -49 basechar 0
AnchorPoint: "us anchor" 82 439 basechar 0
AnchorPoint: "std above anchor" 93 439 basechar 0
LayerCount: 3
Fore
SplineSet
7 296 m 256
 7 307 10 316 16 322 c 0
 22 328 36 336 58 346 c 0
 80 356 102 361 123 361 c 256
 133 361 139 355 139 344 c 3
 139 335 139 326 138 318 c 0
 133 268 125 257 122 188 c 0
 120 149 119 125 119 114 c 0
 119 79 121 56 124 46 c 0
 127 36 134 32 145 32 c 0
 156 32 169 35 186 42 c 0
 200 48 206 52 209 52 c 3
 210 52 211 51 211 50 c 0
 211 42 128 6 121 4 c 0
 110 1 97 0 80 -0 c 256
 65 0 42 0 42 5 c 0
 42 8 45 11 47 17 c 0
 48 22 49 28 50 36 c 0
 55 70 59 165 64 201 c 0
 67 224 68 242 68 252 c 0
 68 262 58 270 38 275 c 0
 18 280 7 287 7 296 c 256
EndSplineSet
Validated: 1
Substitution2: "'swsh' Swash in Latin lookup 22-1" dotlessi.swash
Substitution2: "Single Substitution no tag-1" dotlessi.alt
Substitution2: "'titl' Titling caps from lc-1" I.titling
EndChar

StartChar: uni1E8F
Encoding: 7823 7823 34
Width: 386
VWidth: 0
Flags: W
HStem: -270 65<-82.5 21.5> 343 20G<57 66 278.5 300.5> 560 60<172.756 226.773>
VStem: 171 58<561.022 618.309>
LayerCount: 3
Fore
SplineSet
-130 -220 m 256
 -130 -209 -120 -193 -100 -174 c 24
 -80 -155 -67 -146 -58 -146 c 0
 -47 -146 -36 -154 -26 -169 c 24
 -16 -184 -10 -194 -8 -198 c 0
 -6 -202 0 -205 9 -205 c 256
 34 -205 51 -185 64 -165 c 16
 72 -153 147 -23 147 -2 c 0
 147 8 145 22 140 38 c 8
 113 125 69 225 24 288 c 0
 13 304 11 303 8 315 c 256
 8 327 51 363 63 363 c 256
 69 363 74 360 79 355 c 8
 90 344 101 328 112 308 c 16
 128 278 173 170 185 138 c 24
 191 122 195 114 197 114 c 256
 199 114 205 126 216 150 c 16
 230 181 259 237 274 260 c 0
 277 265 279 269 279 273 c 256
 279 278 276 282 271 283 c 0
 255 287 210 301 210 317 c 0
 210 333 270 365 287 365 c 0
 314 365 347 345 369 341 c 16
 380 339 386 336 386 331 c 0
 386 327 376 317 355 300 c 24
 334 283 322 273 318 268 c 8
 314 263 306 244 292 212 c 8
 269 160 230 87 208 40 c 8
 180 -21 164 -55 118 -118 c 24
 90 -156 68 -184 50 -201 c 24
 27 -223 -36 -270 -75 -270 c 256
 -90 -270 -130 -234 -130 -220 c 256
171 587 m 0
 171 608 186 620 204 620 c 0
 220 620 229 600 229 585 c 0
 229 575 214 560 203 560 c 0
 185 560 171 568 171 587 c 0
EndSplineSet
Validated: 1
AlternateSubs2: "'salt' Stylistic Alternatives in Latin lookup 26-1" uni1E8F.alt
Substitution2: "'ss10' Alternate y-1" uni1E8F.alt
EndChar

StartChar: A
Encoding: 65 65 35
Width: 628
VWidth: 0
Flags: W
HStem: -139 113<-80.3035 -28.8892> -39 21G<412.5 414.5> -6 16<597.268 655.549> 285 36<101.224 163.578> 494 18<-14.601 28.125>
VStem: 40 40<192.764 254.389>
AnchorPoint: "us anchor" 354 586 basechar 0
AnchorPoint: "std below anchor" 217 -49 basechar 0
AnchorPoint: "std above anchor" 180 562 basechar 0
LayerCount: 3
Fore
SplineSet
-118 -109 m 0xbc
 -118 -96 -108 -79 -90 -58 c 0
 -72 -37 -58 -26 -49 -26 c 0xbc
 -40 -26 -33 -34 -28 -50 c 2
 -20 -78 l 1
 -1 -48 l 2
 17 -18 41 48 53 86 c 0
 60 107 63 123 63 133 c 0
 63 146 60 156 52 164 c 0
 44 172 40 183 40 197 c 0
 40 219 52 246 74 276 c 0
 96 306 115 321 130 321 c 0
 134 321 138 320 142 317 c 0
 143 317 143 316 144 316 c 0
 150 316 165 327 186 349 c 2
 222 386 l 1
 186 428 147 466 109 506 c 0
 104 511 97 513 88 511 c 2
 44 502 l 2
 18 497 1 494 -9 494 c 0
 -15 494 -19 495 -19 497 c 0
 -19 501 -12 506 2 512 c 0
 16 518 37 524 64 528 c 0
 91 532 128 533 175 533 c 0
 222 533 258 538 282 546 c 0
 306 554 318 558 321 558 c 0
 324 558 326 556 326 553 c 0
 326 547 316 542 296 538 c 0
 275 534 262 527 262 517 c 0
 262 508 268 491 281 466 c 0
 296 437 309 414 322 396 c 0
 335 378 357 341 388 282 c 0
 419 223 440 187 450 172 c 0
 460 157 468 141 473 124 c 0
 485 86 530 51 564 32 c 0
 584 21 606 14 628 10 c 0
 650 6 661 1 661 -4 c 256
 661 -9 652 -10 635 -6 c 0
 601 2 572 6 532 6 c 0
 493 6 454 -5 434 -24 c 0
 423 -34 416 -39 413 -39 c 0x7c
 412 -39 412 -39 411 -38 c 0
 395 -20 388 11 388 44 c 0
 388 59 386 72 381 82 c 2
 346 155 l 2
 298 256 266 316 250 334 c 0
 241 344 233 349 226 350 c 0
 219 350 211 345 204 334 c 0
 197 323 193 303 191 275 c 0
 187 223 179 176 143 158 c 0
 126 150 110 135 95 116 c 0
 80 97 66 67 52 26 c 0
 38 -15 26 -44 16 -59 c 0
 6 -74 1 -85 1 -90 c 0
 1 -95 -9 -104 -28 -118 c 0
 -47 -132 -64 -139 -80 -139 c 0
 -99 -139 -118 -126 -118 -109 c 0xbc
80 229 m 0
 80 209 110 176 129 176 c 0
 152 176 168 223 168 246 c 0
 168 265 159 285 139 285 c 0
 114 285 80 255 80 229 c 0
EndSplineSet
Validated: 1
Substitution2: "'ss07' Underdotted-1" uni1EA0
AlternateSubs2: "'salt' Stylistic Alternatives in Latin lookup 26-1" A.alt
Substitution2: "'ss11' Sentence caps from caps-1" A.titling
Substitution2: "'ss12' Titling caps-1" A.titling
EndChar

StartChar: E
Encoding: 69 69 36
Width: 582
VWidth: 0
Flags: W
HStem: -14 43<242.249 414.514> -7 21G<521.5 527.5> 273 43<179.188 509.15> 505 37<220.182 422.445> 542 20G<516.5 520>
VStem: 28 122<122.645 385.536> 497 29<530 555.26> 515 40<93.5529 156.802> 517 20<-5.72224 40.7443 239.664 273>
AnchorPoint: "us anchor" 463 586 basechar 0
AnchorPoint: "std above anchor" 309 562 basechar 0
AnchorPoint: "std below anchor" 287 -49 basechar 0
LayerCount: 3
Fore
SplineSet
28 241 m 256xa480
 28 326 47 414 92 456 c 0
 127 488 171 510 222 528 c 0
 249 538 287 542 338 542 c 256xb480
 389 542 427 539 454 534 c 0
 470 531 482 530 489 530 c 0
 494 530 497 530 497 532 c 0
 498 536 514 562 519 562 c 0
 521 562 522 559 522 552 c 0
 522 532 519 512 519 487 c 0
 519 472 521 459 523 448 c 0
 525 437 526 428 526 424 c 0x2e
 526 420 525 418 523 418 c 0
 518 418 516 424 514 436 c 0
 512 448 488 463 442 480 c 0
 396 497 352 505 311 505 c 256
 245 505 183 484 171 427 c 1
 157 367 l 2
 153 350 150 337 150 327 c 0
 150 311 158 305 179 305 c 0
 183 305 188 305 194 306 c 0
 216 308 274 312 368 316 c 0
 462 320 514 331 522 349 c 0
 528 362 533 369 542 369 c 0
 547 369 550 368 550 359 c 3
 550 352 543 342 543 328 c 0
 542 267 538 237 532 237 c 0
 522 237 520 259 519 273 c 1
 354 273 l 2
 246 273 183 267 166 256 c 0
 154 249 150 232 150 213 c 0
 150 174 168 122 178 107 c 0
 195 83 224 58 255 43 c 0
 274 34 300 29 331 29 c 256
 406 29 441 51 482 82 c 0
 500 96 511 109 515 120 c 0
 519 131 539 171 550 171 c 0
 554 171 555 168 555 162 c 0xb5
 555 157 553 146 550 131 c 0
 545 104 542 50 537 26 c 0
 535 16 530 -7 525 -7 c 3x6480
 518 -7 517 4 517 16 c 0
 517 25 518 36 519 42 c 9
 499 35 499 35 479 28 c 0
 431 11 352 -14 285 -14 c 0
 246 -14 220 -5 185 8 c 0
 143 23 136 29 108 54 c 0
 73 85 45 112 34 172 c 0
 30 197 28 220 28 241 c 256xa480
EndSplineSet
Validated: 1
Substitution2: "'ss07' Underdotted-1" uni1EB8
Substitution2: "'ss11' Sentence caps from caps-1" E.medium
Substitution2: "'ss12' Titling caps-1" E.titling
EndChar

StartChar: U
Encoding: 85 85 37
Width: 675
VWidth: 0
Flags: W
HStem: -26 21G<473.5 483.5> -12 25<580.838 681.523> -11 46<245.398 375.649> -3 16<610.128 689.559> 512 18<-61.226 148.93 367.037 454.798> 536 20G<277.5 280.5 642.5 650.5>
VStem: 30 121<144.479 334.388> 474 88<72.5469 448.263>
AnchorPoint: "us anchor" 485 586 basechar 0
AnchorPoint: "std above anchor" 333 562 basechar 0
AnchorPoint: "std below anchor" 322 -49 basechar 0
LayerCount: 3
Fore
SplineSet
-62 517 m 0x2f
 -62 528 -49 534 -22 534 c 0
 34 534 48 530 104 530 c 0
 137 530 245 539 264 550 c 0
 271 554 276 556 279 556 c 256
 282 556 284 554 284 550 c 3
 284 544 280 540 274 537 c 0
 228 514 200 496 190 483 c 24
 167 455 151 332 151 279 c 0
 151 212 155 165 163 140 c 24
 179 90 258 35 324 35 c 0x2f
 396 35 460 52 469 107 c 24
 472 125 474 186 474 289 c 0
 474 308 474 326 474 341 c 0
 474 432 473 453 463 496 c 8
 460 507 442 503 432 505 c 0
 429 506 370 509 368 510 c 0
 365 512 364 513 364 515 c 0
 364 524 388 536 397 536 c 0
 402 536 406 535 409 533 c 0
 412 531 418 530 430 530 c 0
 442 530 472 531 520 534 c 0
 568 537 600 541 614 546 c 0
 628 551 638 554 647 554 c 0
 654 554 663 553 663 548 c 0
 663 540 653 533 645 530 c 0
 639 528 630 523 618 514 c 24
 606 505 598 495 593 484 c 0
 588 473 583 445 576 402 c 24
 569 359 565 305 564 240 c 0
 563 175 562 135 562 118 c 16
 562 87 569 44 579 26 c 8
 584 18 590 13 598 13 c 2
 677 13 l 2x4f
 685 13 692 12 692 9 c 0
 692 5 685 1 672 -3 c 0x1f
 659 -7 633 -10 592 -12 c 0x4f
 551 -14 524 -16 511 -20 c 0
 498 -24 487 -26 480 -26 c 0x8f
 467 -26 463 -20 463 -12 c 0x4f
 463 -1 471 16 471 29 c 0
 471 34 469 39 466 42 c 0
 463 45 459 47 456 47 c 3
 453 47 443 42 438 39 c 0
 422 29 398 18 367 8 c 8
 328 -4 300 -11 282 -11 c 0
 248 -11 210 -1 169 20 c 24
 128 41 94 72 68 114 c 0
 42 156 30 197 30 236 c 256
 30 265 38 302 56 346 c 16
 74 390 90 422 104 442 c 0
 118 462 129 477 138 485 c 0
 147 493 151 499 151 504 c 0
 151 509 142 511 125 512 c 2
 -38 512 l 2
 -54 512 -62 514 -62 517 c 0x2f
EndSplineSet
Validated: 1
Substitution2: "'ss07' Underdotted-1" uni1EE4
Substitution2: "'ss11' Sentence caps from caps-1" U.titling
Substitution2: "'ss12' Titling caps-1" U.titling
EndChar

StartChar: D
Encoding: 68 68 38
Width: 707
VWidth: 0
Flags: W
HStem: -22 14<28.787 82.7695> -12 38<256.102 386.062> 520 21<284.4 415.141> 522 10<-30.9934 35.4331 326 326>
VStem: 148 103<34.5674 225.288 227.987 483.949> 150 93<38.5447 480.673> 575 113<231.897 406.616>
AnchorPoint: "us anchor" 521 586 basechar 0
AnchorPoint: "std above anchor" 330 562 basechar 0
AnchorPoint: "std below anchor" 303 -49 basechar 0
LayerCount: 3
Fore
SplineSet
-31 527 m 0x9a
 -31 530 -22 532 -4 532 c 2
 53 532 l 2x9a
 172 532 250 533 288 536 c 0
 326 539 358 541 386 541 c 0
 509 541 579 507 643 438 c 0
 673 406 688 369 688 329 c 256
 688 252 643 175 600 131 c 0
 533 63 424 3 310 -9 c 0
 291 -11 251 -12 189 -12 c 0x6a
 127 -12 86 -14 65 -17 c 0
 44 -20 34 -22 33 -22 c 0
 29 -22 27 -20 27 -17 c 0
 27 -14 38 -11 58 -8 c 0
 89 -4 115 4 127 22 c 0
 141 43 146 85 148 124 c 0x8a
 149 151 150 202 150 276 c 0x86
 150 350 150 397 148 416 c 0
 146 435 141 455 132 474 c 0
 123 493 106 505 82 510 c 0
 58 515 24 519 -19 522 c 0
 -27 523 -31 524 -31 527 c 0x9a
243 227 m 0x66
 243 191 244 121 248 90 c 0
 250 75 251 63 251 56 c 0x6a
 251 49 256 43 268 36 c 0
 280 29 300 26 327 26 c 0
 411 26 474 58 516 99 c 0
 557 139 575 215 575 296 c 256
 575 353 573 371 556 404 c 0
 541 432 516 464 489 482 c 0
 466 497 394 520 358 520 c 0
 326 520 304 518 280 508 c 0
 268 503 260 498 259 493 c 0
 258 488 256 463 255 416 c 0
 254 369 251 331 248 302 c 0
 245 273 243 248 243 227 c 0x66
EndSplineSet
Validated: 1
Substitution2: "'ss07' Underdotted-1" uni1E0C
AlternateSubs2: "'salt' Stylistic Alternatives in Latin lookup 26-1" uniA779
Substitution2: "'ss11' Sentence caps from caps-1" D.medium
Substitution2: "'ss12' Titling caps-1" D.titling
EndChar

StartChar: C
Encoding: 67 67 39
Width: 551
VWidth: 0
Flags: W
HStem: -21 38<228.037 382.82> 506 36<232.498 396.731> 541 20G<504.5 508>
VStem: 22 121<139.218 362.295> 472 25<119.58 178.5 375.656 430.156>
AnchorPoint: "us anchor" 443 586 basechar 0
AnchorPoint: "std below anchor" 280 -49 basechar 0
AnchorPoint: "std above anchor" 309 562 basechar 0
LayerCount: 3
Fore
SplineSet
22 242 m 256xd8
 22 317 40 376 76 417 c 16
 133 482 226 542 334 542 c 256xd8
 354 542 375 538 397 530 c 24
 419 522 434 518 441 518 c 256
 453 518 466 526 480 540 c 0
 490 550 502 561 507 561 c 0xb8
 509 561 510 559 510 556 c 256
 510 553 506 545 497 530 c 0
 488 515 484 498 484 478 c 0
 484 458 487 440 492 420 c 0
 497 400 500 386 500 379 c 0
 500 372 497 368 492 367 c 0
 488 367 482 378 476 399 c 0
 470 420 453 443 425 468 c 0
 397 493 366 506 332 506 c 256
 282 506 246 499 224 485 c 24
 177 455 143 346 143 265 c 256
 143 252 143 239 143 228 c 0
 143 153 146 119 192 66 c 0
 221 33 256 17 299 17 c 256
 367 17 407 44 438 84 c 0
 455 106 467 131 472 158 c 24
 475 173 481 180 492 180 c 0
 495 180 497 171 497 154 c 0
 497 137 494 117 486 94 c 0
 478 71 474 57 474 54 c 0
 474 52 510 43 510 40 c 0
 510 38 506 36 498 34 c 0
 490 32 486 27 486 22 c 0
 486 17 478 15 462 15 c 0
 446 15 422 9 388 -3 c 24
 354 -15 327 -21 305 -21 c 256
 266 -21 222 -12 176 8 c 0
 91 44 22 126 22 242 c 256xd8
EndSplineSet
Validated: 1
Substitution2: "'ss07' Underdotted-1" uni00430323
Substitution2: "'ss11' Sentence caps from caps-1" C.titling
Substitution2: "'ss12' Titling caps-1" C.titling
EndChar

StartChar: I
Encoding: 73 73 40
Width: 226
VWidth: 0
Flags: W
HStem: -14 15<32.6406 56.1875> -4 26<164.987 257.231> 4 15<208.359 265.974> 515 15<-56.8206 49.3845> 522 20G<204.5 205.5>
VStem: 71 79<26.8774 507.874>
AnchorPoint: "us anchor" 97 586 basechar 0
AnchorPoint: "std above anchor" 114 562 basechar 0
AnchorPoint: "std below anchor" 114 -49 basechar 0
LayerCount: 3
Fore
SplineSet
-57 521 m 0x94
 -57 528 -49 530 -40 530 c 0x94
 5 532 20 533 99 534 c 0
 154 535 187 537 197 540 c 0
 201 541 204 542 205 542 c 0
 206 542 208 541 208 540 c 3
 208 539 207 538 206 536 c 0
 203 532 196 527 186 526 c 0
 168 523 167 500 162 486 c 0
 154 465 155 458 151 423 c 0
 149 407 148 395 148 389 c 0
 148 377 150 336 150 232 c 0
 150 134 153 75 158 56 c 0
 165 27 170 23 194 22 c 0x4c
 200 22 221 20 259 19 c 24
 263 19 266 15 266 11 c 0
 266 7 262 4 258 4 c 0x24
 226 -1 207 -4 202 -4 c 3x44
 190 -4 178 -2 165 -2 c 3
 148 -2 130 -5 118 -5 c 0
 113 -5 96 -6 83 -6 c 3
 72 -6 61 -8 50 -11 c 0
 44 -13 39 -14 36 -14 c 0
 32 -14 31 -13 31 -10 c 3
 31 -5 41 0 46 1 c 0
 56 3 62 15 66 36 c 0
 70 58 71 94 71 133 c 0
 71 190 69 255 68 294 c 0
 67 339 65 387 61 436 c 2
 55 496 l 2
 54 504 50 509 43 511 c 2
 30 514 l 2
 20 516 9 517 -4 517 c 0
 -11 517 -19 517 -26 516 c 0
 -32 515 -38 515 -42 515 c 0
 -52 515 -57 517 -57 521 c 0x94
EndSplineSet
Validated: 1
Substitution2: "'ss07' Underdotted-1" uni1ECA
Substitution2: "'ss11' Sentence caps from caps-1" I.medium
Substitution2: "'ss12' Titling caps-1" I.titling
EndChar

StartChar: Q
Encoding: 81 81 41
Width: 676
VWidth: 0
Flags: W
HStem: -191 29<813.665 870.303> -5 19<262 359> 533 13<306.953 379.492>
VStem: 28 125<124.281 350.901> 527 120<183.929 398.792>
AnchorPoint: "us anchor" 498 586 basechar 0
AnchorPoint: "std above anchor" 350 562 basechar 0
AnchorPoint: "std below anchor" 321 -49 basechar 0
LayerCount: 3
Fore
SplineSet
28 239 m 256
 28 284 36 322 50 351 c 0
 76 404 124 465 170 496 c 0
 192 511 224 523 267 532 c 0
 310 541 342 546 361 546 c 0
 375 546 398 543 430 537 c 0
 462 531 495 518 530 500 c 0
 595 466 647 394 647 298 c 256
 647 253 641 218 630 193 c 0
 607 142 572 102 531 61 c 0
 517 47 510 35 510 26 c 0
 510 16 511 9 514 5 c 0
 519 -1 541 -15 580 -36 c 0
 649 -73 725 -106 792 -138 c 0
 821 -152 843 -159 860 -162 c 0
 868 -163 872 -167 872 -173 c 0
 872 -184 833 -191 822 -191 c 0
 815 -191 804 -190 788 -188 c 0
 772 -186 741 -178 694 -161 c 0
 647 -144 610 -129 584 -114 c 0
 558 -99 516 -78 456 -54 c 0
 396 -30 342 -15 293 -9 c 0
 274 -6 264 -5 262 -5 c 0
 221 -4 184 7 154 26 c 0
 124 45 101 63 84 79 c 0
 45 117 28 156 28 239 c 256
153 267 m 256
 153 230 154 205 162 166 c 0
 174 112 184 74 225 47 c 0
 246 33 284 23 339 16 c 0
 347 15 354 14 359 14 c 0
 372 14 369 18 381 21 c 0
 404 26 429 43 458 73 c 0
 509 126 527 192 527 286 c 256
 527 348 523 374 504 422 c 0
 483 475 461 490 410 514 c 0
 384 526 364 533 351 533 c 256
 274 533 232 491 200 438 c 0
 184 412 172 379 164 340 c 0
 156 301 153 277 153 267 c 256
EndSplineSet
Validated: 1
Substitution2: "'ss07' Underdotted-1" uni00510323
Substitution2: "'ss11' Sentence caps from caps-1" Q.medium
AlternateSubs2: "'salt' Stylistic Alternatives in Latin lookup 26-1" Q.alt
Substitution2: "'ss12' Titling caps-1" Q.titling
EndChar

StartChar: N
Encoding: 78 78 42
Width: 705
VWidth: 0
Flags: W
HStem: -27 21G<609.5 610.5> -9 21<22.4251 70.1855 162.41 196.908> 374 168<152.123 232> 488 49<636.219 669> 497 40<-31.5777 104.116> 498 15<489.689 553.877> 504 24<-31.8455 45.6926>
VStem: 112 32<96.5519 373.953> 603 29<193.796 459.125> 603 22<177.484 381.125>
AnchorPoint: "us anchor" 546 586 basechar 0
AnchorPoint: "std above anchor" 376 562 basechar 0
AnchorPoint: "std below anchor" 354 -49 basechar 0
LayerCount: 3
Fore
SplineSet
-32 515 m 0x0340
 -32 525 -8 528 4 528 c 2
 33 528 l 2x0340
 52 528 84 537 103 537 c 0x0940
 110 537 150 531 157 531 c 0
 169 531 218 542 229 542 c 3x2140
 235 542 240 540 240 537 c 3x0940
 240 530 233 527 233 520 c 3
 233 515 240 503 252 484 c 0
 264 465 281 444 302 420 c 0
 351 366 330 377 379 319 c 0
 402 292 440 262 493 226 c 0
 546 190 576 172 583 172 c 0
 593 172 598 185 600 211 c 0
 603 244 603 253 603 268 c 0
 603 275 603 293 603 305 c 3
 603 332 604 349 604 379 c 3
 604 392 603 404 602 412 c 0
 595 456 583 494 530 494 c 0
 511 494 498 495 492 498 c 0
 480 503 481 508 494 513 c 0x0580
 502 516 528 518 572 518 c 0
 616 518 655 524 691 537 c 0x0980
 700 540 704 537 704 530 c 256
 704 529 702 527 698 526 c 0
 684 523 653 498 643 488 c 0
 635 480 632 440 632 368 c 24x1180
 632 296 630 254 628 240 c 0
 626 226 625 210 625 193 c 0
 625 162 627 148 627 124 c 0
 627 115 627 105 626 92 c 0
 624 67 623 46 622 28 c 0
 621 10 619 -5 616 -14 c 0
 613 -23 611 -27 610 -27 c 0
 609 -27 608 -23 606 -16 c 0
 604 -9 600 -4 595 1 c 0
 580 16 487 79 478 90 c 24
 475 94 453 114 412 152 c 0
 371 190 344 212 332 221 c 0
 312 235 256 285 240 302 c 0
 221 323 204 354 174 370 c 0
 169 373 164 374 161 374 c 0xa140
 149 374 147 358 145 338 c 0
 144 329 144 321 144 313 c 0
 144 303 144 293 144 283 c 0
 144 274 144 265 142 255 c 0
 137 224 139 222 135 188 c 16
 133 168 131 128 131 95 c 0
 131 81 131 69 132 60 c 0
 135 30 158 23 182 16 c 0
 192 13 197 9 197 3 c 0
 197 -6 190 -9 180 -9 c 0
 165 -9 144 -2 136 -2 c 3
 121 -2 113 -4 104 -5 c 0
 95 -6 89 -9 74 -9 c 3
 71 -9 66 -5 62 -5 c 3
 55 -5 40 -9 30 -9 c 3
 25 -9 21 -9 21 -3 c 0
 21 5 31 8 50 12 c 0
 69 16 82 31 89 58 c 0
 107 123 109 124 112 232 c 0
 113 279 114 318 114 351 c 0
 114 384 113 410 112 431 c 24
 110 469 107 484 83 497 c 1
 47 497 l 2x4940
 19 497 -2 500 -14 504 c 0
 -26 508 -32 512 -32 515 c 0x0340
EndSplineSet
Validated: 1
Substitution2: "'ss07' Underdotted-1" uni1E46
Substitution2: "'ss11' Sentence caps from caps-1" N.titling
Substitution2: "'ss12' Titling caps-1" N.titling
EndChar

StartChar: X
Encoding: 88 88 43
Width: 656
VWidth: 0
Flags: W
HStem: -13 15<602.142 622.98> -7 8<29.054 59.9941> 2 8<171.672 218.908> 521 16<470.231 502.997 564.37 584.952> 525 11<33.0576 127.485 282.003 308.066>
VStem: 299 92<264.509 315.592>
AnchorPoint: "us anchor" 482 586 basechar 0
AnchorPoint: "std above anchor" 350 562 basechar 0
AnchorPoint: "std below anchor" 343 -49 basechar 0
LayerCount: 3
Fore
SplineSet
29 -4 m 3x64
 29 -1 30 1 33 1 c 3
 37 1 57 4 60 5 c 0
 62 6 68 8 79 10 c 0
 90 12 103 21 118 37 c 0
 145 65 189 123 214 151 c 0
 234 174 260 207 278 228 c 0
 285 236 299 254 299 265 c 0
 299 276 290 296 273 323 c 0
 252 356 248 369 234 386 c 0
 229 392 221 407 210 430 c 0
 193 464 193 464 191 468 c 0
 190 471 185 478 177 489 c 0
 163 509 152 516 125 520 c 0
 106 523 80 525 61 525 c 0
 53 525 33 525 33 530 c 0
 33 535 40 536 48 536 c 0
 57 536 67 535 72 534 c 0
 75 534 82 534 89 534 c 0
 109 534 138 535 142 536 c 0x6c
 146 538 176 538 232 538 c 2
 306 538 l 2
 312 538 314 536 314 535 c 3
 314 534 311 532 309 531 c 0
 306 529 302 528 295 528 c 0
 286 528 282 527 282 524 c 0
 282 519 286 508 295 488 c 0
 309 455 340 402 354 372 c 0
 360 360 370 340 377 340 c 0
 382 340 387 345 397 356 c 0
 434 397 457 447 490 491 c 0
 497 501 503 509 503 514 c 0
 503 518 499 521 486 521 c 0x14
 474 521 469 522 469 525 c 3x0c
 469 533 480 537 500 537 c 0
 510 537 519 537 526 537 c 0
 541 537 551 537 566 534 c 0
 573 533 588 530 588 526 c 3
 588 521 586 519 583 519 c 3
 548 519 478 429 462 408 c 0
 449 391 436 374 424 358 c 0
 412 342 404 332 399 329 c 0
 393 325 391 320 391 314 c 0
 391 291 423 247 435 234 c 0
 444 224 452 209 461 190 c 0
 479 152 471 161 492 132 c 0
 511 106 514 100 530 70 c 0
 547 37 574 9 614 2 c 0
 620 1 623 -1 623 -6 c 0
 623 -11 620 -13 615 -13 c 0x94
 610 -13 605 -12 602 -9 c 0
 594 -2 465 -6 460 -2 c 0
 458 0 439 1 439 4 c 3
 439 5 440 8 442 10 c 0
 446 15 448 18 448 20 c 0
 448 22 446 26 441 33 c 0
 423 56 409 82 395 110 c 0
 380 140 356 186 334 222 c 0
 331 226 323 236 318 236 c 3
 313 236 306 228 302 223 c 0
 297 217 288 205 274 188 c 0
 238 146 204 108 181 60 c 0
 171 39 166 26 166 20 c 0
 166 8 201 13 214 10 c 0
 217 9 219 8 219 5 c 3
 219 3 217 3 214 2 c 0
 209 1 193 0 166 0 c 0
 139 0 119 0 106 -1 c 0
 87 -2 88 -2 78 -2 c 0
 68 -3 46 -7 36 -7 c 3
 32 -7 29 -6 29 -4 c 3x64
EndSplineSet
Validated: 1
Substitution2: "'ss07' Underdotted-1" Xdotbelowcomb
Substitution2: "'ss11' Sentence caps from caps-1" X.titling
Substitution2: "'ss12' Titling caps-1" X.titling
EndChar

StartChar: T
Encoding: 84 84 44
Width: 601
VWidth: 0
Flags: W
HStem: -6 14<187.683 235.299> 495 34<368.148 548.625> 544 20G<565.5 568.5>
VStem: 34 29<537.955 583.5> 268 79<98.4055 483.106> 272 70<44.928 186.502>
AnchorPoint: "us anchor" 401 586 basechar 0
AnchorPoint: "std above anchor" 299 562 basechar 0
AnchorPoint: "std below anchor" 294 -49 basechar 0
LayerCount: 3
Fore
SplineSet
34 525 m 0xf8
 34 530 39 549 48 582 c 0
 50 590 53 594 57 594 c 0
 61 594 63 588 63 574 c 0
 63 541 73 534 104 534 c 3
 123 534 128 532 154 532 c 3
 162 532 170 533 179 533 c 0
 206 533 236 531 261 531 c 2
 307 531 l 2
 333 531 348 531 372 532 c 0
 382 532 402 530 410 530 c 0
 414 530 430 529 462 529 c 0
 509 529 540 531 555 553 c 0
 560 560 564 564 567 564 c 3
 570 564 571 561 571 558 c 3
 571 545 567 529 567 516 c 0
 567 503 569 489 569 478 c 0
 569 471 568 467 566 467 c 0
 564 467 559 470 550 478 c 0
 536 491 520 495 495 495 c 2
 487 495 l 1
 451 493 452 492 408 491 c 0
 384 490 371 489 368 486 c 0
 362 481 354 416 353 406 c 0
 351 365 347 268 347 230 c 0
 347 216 347 202 347 188 c 0xf8
 347 156 342 127 342 97 c 0
 342 72 360 43 376 33 c 0
 379 31 389 24 389 20 c 3
 389 18 381 14 379 13 c 0
 360 4 333 -7 312 -7 c 0
 287 -7 259 0 236 -0 c 0
 221 0 209 -6 193 -6 c 3
 189 -6 186 -6 186 -3 c 3
 186 7 207 6 214 8 c 0
 222 11 239 15 246 20 c 0
 268 37 272 90 272 128 c 0xf4
 272 172 268 220 268 264 c 2
 268 432 l 2
 268 449 253 484 240 487 c 0
 236 488 230 488 224 488 c 0
 207 488 186 486 171 486 c 0
 160 486 150 487 139 487 c 0
 107 487 76 485 45 485 c 3
 34 485 34 513 34 525 c 0xf8
EndSplineSet
Validated: 1
Substitution2: "'ss07' Underdotted-1" uni1E6C
Substitution2: "'ss11' Sentence caps from caps-1" T.medium
Substitution2: "'ss12' Titling caps-1" T.titling
EndChar

StartChar: S
Encoding: 83 83 45
Width: 423
VWidth: 0
Flags: W
HStem: -17 21G<36.5 41.5> -7 21<150.296 247.349> 524 18<180.75 273.98> 535 20G<353 355>
VStem: 32 16<96.1509 146.285> 65 75<369.514 470.593> 331 81<111.73 215.641>
AnchorPoint: "us anchor" 300 586 basechar 0
AnchorPoint: "std above anchor" 224 562 basechar 0
AnchorPoint: "std below anchor" 221 -49 basechar 0
LayerCount: 3
Fore
SplineSet
32 39 m 0x8e
 32 47 32 54 32 63 c 0
 32 119 35 148 43 148 c 3
 48 148 53 139 53 134 c 3
 53 132 52 130 51 128 c 0
 49 125 48 121 48 117 c 0
 48 108 54 97 65 84 c 0
 89 56 148 14 195 14 c 256
 244 14 305 45 316 82 c 0
 324 109 331 137 331 165 c 256
 331 192 321 203 300 226 c 0
 269 260 256 268 191 268 c 0
 130 268 87 295 74 341 c 0
 68 363 65 381 65 396 c 256
 65 467 117 521 174 535 c 0x5e
 191 539 216 541 249 542 c 0x2e
 272 542 293 543 312 545 c 0
 331 547 343 550 346 552 c 0
 349 554 352 555 354 555 c 259x1e
 356 555 356 553 356 551 c 3
 356 546 352 536 350 531 c 0
 346 521 344 508 344 494 c 0
 344 484 345 474 347 466 c 0
 349 461 349 456 349 454 c 0
 349 452 349 451 348 451 c 3
 346 451 337 458 324 474 c 0
 299 504 275 524 228 524 c 256
 191 524 158 511 148 481 c 0
 143 464 140 451 140 442 c 256
 140 415 149 382 162 369 c 0
 168 362 178 356 190 351 c 0
 202 346 227 338 263 328 c 0
 299 318 325 307 341 298 c 0
 368 282 412 221 412 179 c 256
 412 130 372 80 344 54 c 0
 311 22 254 -7 190 -7 c 256x6e
 171 -7 151 -5 130 0 c 0
 114 4 101 6 90 6 c 0
 77 6 67 3 56 -6 c 0
 48 -13 43 -17 40 -17 c 0
 33 -17 32 5 32 39 c 0x8e
EndSplineSet
Validated: 1
Substitution2: "'ss07' Underdotted-1" uni1E62
Substitution2: "'ss11' Sentence caps from caps-1" S.medium
Substitution2: "'ss12' Titling caps-1" S.titling
EndChar

StartChar: R
Encoding: 82 82 46
Width: 500
VWidth: 0
Flags: W
HStem: -10 21G<44.5 50.5 139 150.5> 511 14<-48.7266 85.7498>
VStem: 109 82<29.2031 242.942 276.602 473.707> 357 88<330.921 472.615>
AnchorPoint: "us anchor" 320 586 basechar 0
AnchorPoint: "std above anchor" 262 562 basechar 0
AnchorPoint: "std below anchor" 268 -49 basechar 0
LayerCount: 3
Fore
SplineSet
-49 517 m 3
 -49 520 -43 521 -35 522 c 0
 -21 524 1 525 12 525 c 0
 29 525 46 523 64 523 c 0
 81 523 91 525 106 525 c 2
 150 525 l 2
 164 525 176 526 188 530 c 0
 202 534 266 551 283 551 c 0
 356 551 403 519 430 472 c 0
 440 455 445 437 445 416 c 256
 445 351 420 316 382 288 c 0
 368 278 361 271 361 269 c 256
 361 267 364 259 371 245 c 0
 388 209 432 139 455 103 c 0
 470 79 485 60 498 46 c 0
 511 32 522 24 531 21 c 0
 535 20 540 14 540 9 c 0
 540 4 530 3 519 3 c 0
 506 3 491 5 487 6 c 0
 464 12 442 30 424 44 c 0
 395 67 351 125 328 160 c 0
 312 183 297 201 283 213 c 0
 269 225 256 232 244 234 c 0
 232 236 220 237 210 240 c 0
 200 243 195 244 194 243 c 0
 192 242 191 226 191 194 c 0
 191 162 192 128 194 90 c 0
 196 52 199 31 202 28 c 0
 205 25 215 23 230 22 c 2
 253 20 l 2
 256 17 255 13 252 9 c 0
 241 -1 233 -3 223 -3 c 0
 218 -3 212 -3 206 -3 c 0
 200 -3 193 -3 184 -5 c 0
 168 -8 155 -10 146 -10 c 0
 132 -10 94 -6 80 -6 c 0
 68 -6 55 -8 46 -8 c 0
 43 -8 42 -7 42 -5 c 0
 42 0 55 9 81 22 c 2
 95 29 l 1
 98 42 l 1
 105 82 109 135 109 203 c 0
 109 211 109 218 109 226 c 0
 109 369 104 457 94 488 c 0
 89 504 83 511 67 511 c 0
 63 511 57 510 51 509 c 0
 37 506 27 505 20 505 c 0
 -26 505 -49 507 -49 517 c 3
191 292 m 1
 210 274 243 260 276 260 c 0
 335 260 357 321 357 380 c 256
 357 437 343 464 320 498 c 0
 311 511 286 524 267 524 c 256
 260 524 251 521 238 515 c 0
 225 509 213 496 200 476 c 1
 200 461 l 2
 200 412 194 386 193 336 c 2
 191 292 l 1
EndSplineSet
Validated: 1
Substitution2: "'ss07' Underdotted-1" uni1E5A
Substitution2: "'ss11' Sentence caps from caps-1" R.titling
Substitution2: "'ss12' Titling caps-1" R.titling
EndChar

StartChar: period
Encoding: 46 46 47
Width: 197
VWidth: 0
Flags: W
HStem: -11 90<85.1267 141.906>
VStem: 70 76<-3.7146 62.9944>
LayerCount: 3
Fore
SplineSet
70 22 m 0
 70 46 88 63 105 72 c 0
 115 77 122 79 127 79 c 0
 140 79 146 66 146 40 c 0
 146 12 145 10 127 -2 c 0
 118 -8 108 -11 99 -11 c 256
 80 -11 70 3 70 22 c 0
EndSplineSet
Validated: 1
EndChar

StartChar: colon
Encoding: 58 58 48
Width: 250
VWidth: 0
Flags: W
HStem: -12 100<99.4795 160.62> 226 101<112.004 183.257>
VStem: 83 94<5.91778 70.5034> 93 106<244.421 312.226>
LayerCount: 3
Fore
SplineSet
83 26 m 0xe0
 83 48 92 64 110 74 c 0
 128 84 138 88 142 88 c 0
 146 88 152 84 162 76 c 0
 172 68 177 57 177 44 c 0
 177 27 169 14 152 4 c 0
 135 -6 124 -12 118 -12 c 0
 105 -12 83 13 83 26 c 0xe0
93 281 m 0xd0
 93 288 100 298 112 310 c 0
 124 322 140 327 161 327 c 0
 186 327 199 315 199 291 c 0
 199 264 192 250 169 238 c 0
 154 230 144 226 140 226 c 0
 136 226 133 227 130 229 c 0
 127 231 120 238 109 251 c 0
 98 264 93 274 93 281 c 0xd0
EndSplineSet
Validated: 1
EndChar

StartChar: longs_t_dotlessi
Encoding: 65538 -1 49
Width: 670
VWidth: 0
Flags: W
HStem: -25 39<594.068 634.674> -1 35<347 472.168 651.703 676.896> 277 44<251.421 298.895> 287 43<371.002 524.732> 337 20G<597 611.5> 560 38<186.069 282.5>
VStem: 60 67<-55.3972 123> 71 61<51 256.653> 94 54<339.555 525.509> 286 51<74.8007 253.189> 322 64<336.175 513.064> 322 49<330.111 407.062> 548 38<118.991 181.384>
AnchorPoint: "us ligature anchor" 420 509 baselig 0
AnchorPoint: "ligature below" 155 -54 baselig 0
AnchorPoint: "ligature anchor" 149 659 baselig 0
AnchorPoint: "us ligature anchor" 479 391 baselig 1
AnchorPoint: "ligature below" 419 -24 baselig 1
AnchorPoint: "ligature anchor" 354 659 baselig 1
AnchorPoint: "us ligature anchor" 586 391 baselig 2
AnchorPoint: "ligature anchor" 596 391 baselig 2
LayerCount: 3
Fore
SplineSet
36 278 m 0x6d08
 36 301 44 318 60 328 c 0x6e08
 90 347 94 361 94 405 c 0
 94 476 96 516 102 526 c 24
 108 536 129 551 166 570 c 0
 203 589 237 598 267 598 c 256
 298 598 352 571 366 554 c 0
 382 534 386 475 386 438 c 256x6ca8
 386 418 383 398 378 378 c 0
 373 358 371 347 371 342 c 0
 371 331 374 330 384 330 c 0
 388 330 393 330 400 330 c 0
 417 330 445 332 486 334 c 0
 527 336 554 340 566 347 c 0
 578 354 591 357 603 357 c 0
 620 357 624 356 624 348 c 0
 624 344 623 337 621 328 c 0
 618 314 615 280 610 228 c 0
 605 176 600 144 594 130 c 0
 588 116 586 102 586 92 c 0
 586 51 587 14 629 14 c 0
 630 14 630 14 631 14 c 0
 647 14 657 17 660 22 c 0
 663 27 669 30 676 30 c 0
 683 30 686 29 686 26 c 0
 686 21 670 10 639 -4 c 0
 608 -18 582 -25 563 -25 c 0x9c18
 536 -25 524 -13 524 12 c 3
 524 29 520 38 513 38 c 0
 506 38 500 35 498 30 c 0
 491 14 394 -1 368 -1 c 0
 326 -1 300 13 284 40 c 0
 276 54 272 65 272 74 c 256
 272 90 286 176 286 192 c 0x4c48
 286 204 290 227 298 262 c 16
 298 264 299 265 299 266 c 0
 299 277 285 277 272 277 c 2
 223 276 l 2
 203 276 192 278 192 282 c 0
 192 286 200 295 215 310 c 0
 230 325 242 332 251 332 c 0
 260 332 268 330 275 326 c 0
 281 322 286 321 290 321 c 0
 296 321 301 325 308 332 c 0
 314 338 318 346 320 357 c 0
 321 363 322 384 322 408 c 0
 322 441 321 478 319 486 c 0
 313 511 268 541 242 550 c 0
 223 557 208 560 200 560 c 0
 173 560 164 546 158 518 c 0
 154 498 151 454 148 389 c 0x6ca8
 141 236 139 268 132 105 c 0x6d08
 129 28 127 -16 127 -24 c 0
 127 -36 127 -36 127 -37 c 0
 127 -48 77 -71 66 -71 c 0
 61 -71 59 -62 60 -45 c 2x6e08
 71 219 l 2
 71 238 68 243 52 256 c 0
 42 264 36 271 36 278 c 0x6d08
337 128 m 256x5c48
 337 95 348 71 370 56 c 0
 392 41 414 34 435 34 c 256
 470 34 484 42 504 66 c 0
 532 99 530 131 540 182 c 0
 545 208 548 226 548 238 c 0
 548 257 540 255 522 268 c 0
 502 282 492 287 459 287 c 2
 369 287 l 1
 360 258 l 2
 354 236 337 153 337 128 c 256x5c48
EndSplineSet
Validated: 1
Ligature2: "three-element discretionary ligatures in Latin" longs t dotlessi
LCarets2: 2 257 499
EndChar

StartChar: r_t_u
Encoding: 65539 -1 50
Width: 884
VWidth: 0
Flags: W
HStem: -17 42<779.5 867> -2 33<317 428.511> 29 16<660 732> 278 80<731.625 762.413> 278 52<192.149 274.525> 288 40<355.244 514.573>
VStem: 18 119<272.374 332.906> 74 63<-33.0403 268.888 343.219 553.052> 275 39<137.987 261.823> 295 67<339.933 428.797> 295 52<333.142 427.251> 531 48<156.75 270.712> 704 132<283.188 333.264> 751 52<60.5574 256.366>
AnchorPoint: "us ligature anchor" 217 634 baselig 0
AnchorPoint: "ligature below" 149 -54 baselig 0
AnchorPoint: "ligature anchor" 164 757 baselig 0
AnchorPoint: "us ligature anchor" 456 391 baselig 1
AnchorPoint: "ligature below" 372 -24 baselig 1
AnchorPoint: "ligature anchor" 407 659 baselig 1
AnchorPoint: "us ligature anchor" 775 391 baselig 2
AnchorPoint: "ligature below" 650 -24 baselig 2
AnchorPoint: "ligature anchor" 700 391 baselig 2
LayerCount: 3
Fore
SplineSet
18 300 m 256x4a10
 18 309 22 318 30 325 c 2
 57 347 l 2
 71 358 78 380 78 411 c 0
 79 475 85 490 92 545 c 0
 97 587 109 645 120 678 c 0
 125 692 136 708 154 727 c 0
 172 746 184 755 188 755 c 0
 195 755 197 750 193 740 c 0
 182 713 176 696 176 689 c 0
 176 652 228 582 332 481 c 0
 352 462 362 444 362 428 c 0x4a50
 362 412 359 397 354 382 c 0
 349 367 347 355 347 348 c 0
 347 341 350 336 355 333 c 0
 360 330 378 328 409 328 c 0
 457 328 541 329 575 340 c 0
 589 345 599 347 606 347 c 0
 613 347 617 344 617 338 c 0
 617 335 615 329 610 320 c 0
 605 311 599 282 591 236 c 0
 583 190 579 156 579 133 c 0
 579 92 584 55 618 49 c 0
 634 46 648 45 660 45 c 256
 697 45 721 50 732 60 c 0
 745 72 751 77 751 91 c 0x2434
 751 94 751 98 750 102 c 0
 749 109 749 116 749 123 c 0
 749 162 763 196 763 239 c 3
 763 263 762 278 740 278 c 3
 722 278 704 292 704 310 c 3
 704 332 753 345 778 352 c 0
 796 356 810 358 820 358 c 0
 830 358 836 355 836 350 c 0x3018
 836 345 831 312 820 248 c 0
 809 184 803 140 803 115 c 0
 803 80 804 46 820 34 c 0
 828 28 850 25 864 25 c 256
 870 25 878 28 888 35 c 0
 898 42 904 45 908 45 c 0
 912 45 914 43 914 39 c 256
 914 35 906 29 889 20 c 0
 872 11 856 3 838 -5 c 0
 820 -13 806 -17 796 -17 c 0
 763 -17 746 -11 744 2 c 0
 741 20 738 29 732 29 c 0xb014
 726 29 711 23 688 12 c 0
 665 1 639 -5 609 -5 c 0
 556 -5 528 -5 520 30 c 0
 517 44 514 52 512 52 c 0
 510 52 498 47 476 36 c 0
 438 17 398 -2 348 -2 c 256
 286 -2 267 32 258 80 c 0
 256 92 255 106 255 121 c 256
 255 142 258 166 265 194 c 0
 272 222 275 244 275 258 c 0x4094
 275 272 268 278 253 278 c 0
 236 278 189 285 189 298 c 0
 189 320 225 330 250 330 c 3
 282 330 287 333 292 355 c 0
 294 366 295 375 295 384 c 0
 295 393 291 403 284 414 c 0
 273 432 195 521 182 537 c 0
 172 549 165 555 160 555 c 0
 156 555 153 550 152 539 c 0
 145 497 136 421 136 376 c 0
 136 374 136 372 136 370 c 0
 137 336 137 305 137 273 c 0x4a50
 137 227 136 179 134 110 c 0
 131 28 128 -22 123 -38 c 0
 114 -69 108 -80 84 -93 c 0
 73 -99 66 -102 60 -102 c 0
 54 -102 51 -100 51 -98 c 0
 51 -96 52 -93 53 -90 c 0
 66 -58 72 125 74 195 c 16
 74 202 74 208 74 214 c 0x4910
 74 245 71 265 48 270 c 0
 31 274 18 281 18 300 c 256x4a10
314 184 m 256x4490
 314 140 320 98 338 72 c 0
 351 53 386 31 417 31 c 259
 438 31 443 34 468 51 c 0
 500 73 520 98 523 144 c 2
 531 246 l 1
 531 262 528 263 508 272 c 0
 494 278 473 282 444 284 c 0
 415 286 392 288 377 288 c 256
 335 288 325 250 318 214 c 0
 315 201 314 191 314 184 c 256x4490
EndSplineSet
Validated: 1
Ligature2: "'hlig' Three-element Historic Ligatures" r t u
LCarets2: 2 238 504
EndChar

StartChar: r_t
Encoding: 65540 -1 51
Width: 531
VWidth: 0
Flags: W
HStem: -6 55<354.824 476.116> 296 52<191.149 273.292> 306 49<354.242 573.678>
VStem: 18 118<272.02 332.906> 73 63<-20.3106 268.941 342.188 572.041> 274 39<168.93 287.967> 293 68<365.429 457.5> 293 53<359.143 450.389>
AnchorPoint: "us ligature anchor" 224 625 baselig 0
AnchorPoint: "ligature below" 142 -54 baselig 0
AnchorPoint: "ligature anchor" 132 757 baselig 0
AnchorPoint: "us ligature anchor" 488 391 baselig 1
AnchorPoint: "ligature below" 385 -24 baselig 1
AnchorPoint: "ligature anchor" 401 659 baselig 1
LayerCount: 3
Fore
SplineSet
18 300 m 256xd0
 18 309 22 318 30 325 c 2
 57 347 l 2
 70 358 78 379 78 410 c 24
 79 471 85 511 92 564 c 0
 98 606 108 663 119 696 c 0
 124 710 136 726 154 745 c 0
 173 764 184 773 188 773 c 0
 195 773 197 768 192 758 c 0
 181 733 175 716 175 707 c 0
 175 670 227 601 331 500 c 0
 351 481 361 464 361 451 c 0xd2
 361 438 359 423 354 408 c 0
 349 393 346 382 346 375 c 0xc1
 346 368 349 362 354 359 c 0
 359 357 375 355 402 355 c 2
 421 355 l 2
 439 355 483 358 521 358 c 0
 559 358 593 355 593 347 c 256
 593 344 586 337 572 326 c 0
 558 315 548 309 541 309 c 256
 493 309 434 307 390 306 c 0
 351 305 339 304 328 280 c 0
 318 259 313 245 313 222 c 256
 313 143 320 79 378 58 c 0
 395 52 412 49 429 49 c 256
 458 49 489 63 520 90 c 24
 523 92 532 91 549 88 c 256
 558 86 562 83 562 78 c 0
 562 72 555 65 542 55 c 0
 498 22 445 -6 372 -6 c 256
 297 -6 269 47 258 107 c 0
 255 121 254 137 254 154 c 256
 254 175 257 197 264 220 c 0
 271 243 274 262 274 276 c 0xa4
 274 290 267 296 252 296 c 0
 235 296 188 303 188 316 c 0
 188 338 223 347 248 348 c 0
 280 349 285 349 290 374 c 0
 292 385 293 394 293 402 c 0
 293 410 290 420 286 429 c 0
 282 438 266 460 236 492 c 0
 206 524 186 545 178 556 c 0
 170 567 164 573 159 573 c 0
 156 573 152 566 150 554 c 0
 147 540 136 406 136 388 c 2
 136 271 l 2
 136 231 135 186 133 128 c 0
 130 46 127 -4 122 -20 c 0
 113 -51 108 -60 84 -74 c 0
 73 -80 64 -84 58 -84 c 0
 52 -84 50 -82 50 -80 c 0
 50 -78 51 -75 52 -72 c 0
 57 -57 62 -12 66 64 c 0
 71 142 73 190 73 208 c 0xca
 73 235 70 266 48 270 c 0
 31 273 18 281 18 300 c 256xd0
EndSplineSet
Validated: 1
Ligature2: "'hlig' Two-element Historic Ligatures" r t
LCarets2: 1 237
EndChar

StartChar: uniA751
Encoding: 42833 42833 52
Width: 470
VWidth: 0
Flags: W
HStem: -199 68<-57.2538 -14.0015> -190 34<-14.1625 76> -181 35<156.21 340.704> -14 35<198.948 282.737> 243 90<35.0018 83.5424> 319 36<217.129 290.967> 337 20G<127 140.5>
VStem: 77 70<-299.956 -190.125> 82 66<-143.344 -15.4954 76.0096 242.78> 361 68<98.9062 248.542>
AnchorPoint: "std above anchor" 282 439 basechar 0
AnchorPoint: "std below anchor" 232 -290 basechar 0
AnchorPoint: "us anchor" 360 439 basechar 0
LayerCount: 3
Fore
SplineSet
-83 -183 m 0x9140
 -83 -177 -82 -172 -78 -168 c 0
 -74 -164 -28 -131 -20 -131 c 0x9140
 -16 -131 -14 -132 -14 -134 c 0
 -14 -138 -15 -141 -15 -144 c 3
 -15 -148 -13 -151 -4 -153 c 0
 6 -155 20 -156 38 -156 c 2
 76 -156 l 1
 80 -129 l 2
 83 -115 84 -94 84 -67 c 2
 84 -67 82 -11 82 24 c 24
 82 121 85 147 85 207 c 3
 85 232 82 243 64 243 c 0
 49 243 19 271 19 286 c 0
 19 299 53 333 66 333 c 0
 79 333 120 357 134 357 c 0
 147 357 154 350 154 337 c 0x5ac0
 154 324 158 317 166 317 c 0
 174 317 190 323 211 334 c 0
 238 348 259 355 281 355 c 0
 322 355 386 331 404 307 c 0
 421 286 429 245 429 184 c 0
 429 56 303 -14 183 -14 c 3
 148 -14 148 -34 148 -82 c 0
 148 -142 149 -146 208 -146 c 10
 318 -146 l 18
 341 -146 353 -147 353 -151 c 3
 353 -160 313 -181 302 -184 c 0
 269 -184 246 -181 206 -181 c 0x34c0
 183 -181 150 -195 146 -212 c 0
 144 -219 144 -225 144 -232 c 0
 144 -239 147 -257 147 -270 c 0
 147 -285 143 -288 131 -297 c 0
 123 -302 80 -323 69 -323 c 0
 66 -323 65 -322 65 -321 c 0
 65 -319 66 -315 68 -308 c 0
 71 -297 74 -277 76 -247 c 0
 77 -233 77 -222 77 -214 c 3
 77 -197 73 -190 56 -190 c 0x5140
 29 -190 -13 -199 -44 -199 c 0
 -63 -199 -83 -197 -83 -183 c 0x9140
148 180 m 0x14c0
 148 130 150 108 170 76 c 0
 194 37 209 21 260 21 c 3
 298 21 310 33 335 60 c 0
 359 85 361 105 361 160 c 259
 361 240 311 319 231 319 c 3
 213 319 205 312 185 292 c 0
 156 264 149 235 148 180 c 0x14c0
EndSplineSet
Validated: 1
EndChar

StartChar: longs_i
Encoding: 65541 -1 53
Width: 416
VWidth: 0
Flags: W
HStem: -30 21G<77.5 90> -0 32<272.271 356.382> 341 20G<318 335.5> 499 51<184.199 275.586>
VStem: 66 71<-7.20312 215.657> 70 69<-2 67.1316 70.15 106.391 107.889 294> 277 51<46.4783 272.161>
AnchorPoint: "us ligature anchor" 188 391 baselig 0
AnchorPoint: "ligature below" 108 -49 baselig 0
AnchorPoint: "ligature anchor" 138 659 baselig 0
AnchorPoint: "us ligature anchor" 409 391 baselig 1
AnchorPoint: "ligature below" 306 -24 baselig 1
AnchorPoint: "ligature anchor" 303 659 baselig 1
LayerCount: 3
Fore
SplineSet
16 306 m 0xfa
 16 315 21 332 30 356 c 0
 52 413 115 477 164 515 c 0
 194 538 227 550 264 550 c 256
 287 550 306 545 321 534 c 0
 336 523 343 514 343 507 c 256
 343 490 331 478 321 468 c 0
 314 461 305 457 298 457 c 256
 293 457 286 461 277 468 c 0
 263 479 235 499 212 499 c 259
 174 499 161 437 154 402 c 0
 143 346 138 243 138 174 c 0
 138 143 137 126 137 107 c 0xfa
 137 94 137 81 139 61 c 1
 142 4 l 1
 133 -5 l 2
 115 -23 101 -27 79 -30 c 0
 76 -30 74 -29 73 -26 c 2
 70 -15 l 2xf6
 66 -2 66 50 66 68 c 0
 66 113 76 214 76 261 c 0
 76 286 75 294 52 294 c 2
 38 294 l 2
 23 294 16 298 16 306 c 0xfa
216 296 m 256
 216 307 219 316 225 322 c 0
 231 328 245 335 267 346 c 0
 287 356 308 361 328 361 c 0
 343 361 348 357 348 341 c 3
 348 314 344 292 340 274 c 0
 336 256 332 227 330 188 c 0
 328 149 328 125 328 114 c 0
 328 79 330 56 333 46 c 0
 336 36 343 32 354 32 c 0
 365 32 378 35 395 42 c 0
 409 48 415 51 418 51 c 3
 420 51 420 50 420 49 c 0
 420 41 337 6 330 4 c 0
 319 1 306 0 289 -0 c 256
 272 0 261 1 256 2 c 0
 251 3 250 4 252 7 c 0
 254 10 257 20 259 36 c 0
 263 71 267 165 272 201 c 0
 275 224 277 242 277 252 c 0
 277 262 266 270 246 275 c 0
 226 280 216 287 216 296 c 256
EndSplineSet
Validated: 1
Ligature2: "two-element ligature in Latin" longs i
LCarets2: 1 202
Ligature2: "two-element ligature in Latin" longs dotlessi
EndChar

StartChar: a.sc
Encoding: 65542 -1 54
Width: 445
VWidth: 0
Flags: W
HStem: 0 55<105 177.059 325.33 409.726>
VStem: 125 104<309.158 369.84>
AnchorPoint: "std below anchor" 207 -49 basechar 0
AnchorPoint: "std above anchor" 195 483 basechar 0
AnchorPoint: "us anchor" 264 483 basechar 0
LayerCount: 3
Fore
SplineSet
17 17 m 256
 17 21 22 29 31 41 c 0
 40 53 48 60 54 62 c 2
 75 69 l 1
 102 129 137 210 156 277 c 9
 152 290 147 320 135 326 c 0
 129 329 125 336 125 343 c 0
 125 348 127 354 132 358 c 0
 148 372 169 386 190 398 c 0
 202 405 214 408 225 408 c 256
 238 408 244 404 244 398 c 0
 244 392 241 386 236 380 c 0
 231 374 229 364 229 351 c 0
 229 332 236 298 250 249 c 0
 264 200 274 168 281 152 c 0
 293 123 308 101 324 78 c 0
 339 56 350 55 388 55 c 256
 403 55 421 60 444 70 c 0
 455 75 463 77 469 77 c 0
 475 77 478 74 478 69 c 0
 478 64 476 61 473 59 c 0
 450 43 426 30 402 18 c 0
 378 6 354 0 333 0 c 256
 295 0 264 32 248 54 c 0
 227 84 212 122 199 165 c 0
 192 190 184 203 177 203 c 0
 170 203 162 199 156 190 c 0
 145 174 128 127 121 108 c 0
 117 98 112 82 105 60 c 1
 158 44 184 33 184 26 c 0
 184 6 151 0 125 0 c 0
 105 0 57 7 36 7 c 0
 23 7 17 10 17 17 c 256
EndSplineSet
Validated: 1
EndChar

StartChar: b.sc
Encoding: 65543 -1 55
Width: 338
VWidth: 0
Flags: W
HStem: -3 40<112.071 220.288> 204 32<114.014 154.301> 354 49<106.32 161.61>
VStem: 7 97<305.546 353.707> 55 49<46.6191 197.808 236.021 288.95> 170 59<270.788 347.769> 257 57<76.145 161.434>
AnchorPoint: "std above anchor" 145 483 basechar 0
AnchorPoint: "std below anchor" 159 -49 basechar 0
AnchorPoint: "us anchor" 211 483 basechar 0
LayerCount: 3
Fore
SplineSet
7 332 m 0xf6
 7 339 15 346 31 356 c 24
 49 367 126 403 152 403 c 0
 186 403 203 393 217 370 c 24
 225 357 229 344 229 333 c 256
 229 300 216 280 199 261 c 0
 196 258 199 254 208 251 c 16
 260 237 314 213 314 149 c 264
 314 71 257 33 202 8 c 24
 186 1 173 -3 166 -3 c 256
 147 -3 106 3 94 10 c 1
 92 9 52 -7 48 -7 c 0
 41 -7 21 -1 21 5 c 0
 21 7 48 24 49 25 c 24
 52 28 53 32 54 38 c 8
 55 58 55 84 55 116 c 0
 55 164 55 164 55 178 c 8xee
 55 192 54 260 54 274 c 24
 54 283 53 288 52 289 c 24
 43 295 7 319 7 332 c 0xf6
104 127 m 16
 104 99 105 80 106 71 c 16
 109 40 156 37 190 37 c 0
 215 37 247 50 253 68 c 24
 256 76 257 90 257 107 c 16
 257 144 231 171 208 188 c 24
 194 198 181 204 166 204 c 0
 109 204 105 188 104 127 c 16
104 259 m 24
 104 239 109 236 128 236 c 256
 137 236 147 242 156 254 c 24
 165 266 170 284 170 305 c 256
 170 327 152 354 131 354 c 256
 107 354 104 338 104 306 c 16xf6
 104 274 104 274 104 259 c 24
EndSplineSet
Validated: 1
EndChar

StartChar: c.sc
Encoding: 65544 -1 56
Width: 338
VWidth: 0
Flags: W
HStem: -6 51<166.551 281> 345 63<145.417 211.51>
VStem: 28 58<143.108 259.618>
AnchorPoint: "std below anchor" 177 -49 basechar 0
AnchorPoint: "std above anchor" 190 483 basechar 0
AnchorPoint: "us anchor" 294 483 basechar 0
LayerCount: 3
Fore
SplineSet
28 157 m 256
 28 187 30 210 35 226 c 0
 45 262 98 340 122 364 c 0
 138 380 150 391 159 398 c 0
 168 405 179 408 193 408 c 0
 203 408 220 404 244 394 c 0
 268 384 282 376 288 368 c 0
 294 360 296 353 296 347 c 0
 296 344 294 339 291 334 c 0
 288 329 281 322 271 313 c 2
 253 296 l 2
 244 287 237 287 232 295 c 2
 217 316 l 2
 204 335 188 345 171 345 c 256
 155 345 138 332 120 307 c 0
 102 282 91 264 89 254 c 0
 87 244 86 236 86 229 c 256
 86 194 102 150 118 122 c 0
 139 86 144 81 172 63 c 0
 195 48 229 45 270 45 c 256
 292 45 311 58 324 72 c 0
 330 78 341 87 346 87 c 0
 348 87 349 86 349 83 c 256
 349 74 340 64 322 50 c 0
 284 21 238 -6 177 -6 c 256
 149 -6 111 15 94 26 c 0
 52 54 28 84 28 157 c 256
EndSplineSet
Validated: 1
EndChar

StartChar: d.sc
Encoding: 65545 -1 57
Width: 370
VWidth: 0
Flags: W
HStem: -8 44<117.925 221.241> 340 59<120.179 191.308>
VStem: 284 62<109.859 227.857>
AnchorPoint: "std above anchor" 158 483 basechar 0
AnchorPoint: "std below anchor" 156 -49 basechar 0
AnchorPoint: "us anchor" 269 483 basechar 0
LayerCount: 3
Fore
SplineSet
7 341 m 0
 7 351 14 360 28 368 c 16
 49 380 105 399 137 399 c 0
 166 399 197 393 230 380 c 16
 263 367 290 342 312 306 c 24
 334 270 346 235 346 202 c 0
 346 138 327 105 293 70 c 24
 267 43 204 -8 158 -8 c 0
 130 -8 117 -4 95 -4 c 256
 80 -4 66 -6 52 -6 c 0
 39 -6 13 4 13 17 c 0
 13 29 39 45 50 50 c 9
 53 108 l 26
 58 178 59 192 64 252 c 24
 66 275 67 281 68 287 c 1
 54 292 40 302 27 314 c 24
 14 326 7 335 7 341 c 0
105 114 m 0
 105 96 105 84 106 78 c 8
 107 69 110 63 116 59 c 24
 122 55 137 50 161 44 c 24
 185 38 200 36 207 36 c 264
 240 36 264 59 275 82 c 24
 281 95 284 110 284 127 c 256
 284 210 249 265 202 309 c 24
 180 330 160 340 145 340 c 0
 121 340 116 308 113 286 c 16
 108 248 106 187 105 139 c 16
 105 130 105 121 105 114 c 0
EndSplineSet
Validated: 1
EndChar

StartChar: e.sc
Encoding: 65546 -1 58
Width: 268
VWidth: 0
Flags: W
HStem: -17 46<116.917 226.844> 150 66<111.589 212.24> 361 46<110.717 192.5>
VStem: 11 94<284 360.914> 56 49<58.2373 140.297 240.659 293.53>
AnchorPoint: "std above anchor" 155 483 basechar 0
AnchorPoint: "std below anchor" 132 -50 basechar 0
AnchorPoint: "us anchor" 224 483 basechar 0
LayerCount: 3
Fore
SplineSet
11 332 m 0xf0
 11 350 29 366 68 382 c 24
 106 398 141 407 173 407 c 0
 212 407 224 397 240 374 c 0
 248 363 252 355 252 352 c 256
 252 348 246 340 234 328 c 0
 222 316 212 309 206 309 c 0
 200 309 192 314 182 323 c 0
 172 332 161 341 150 349 c 8
 139 357 131 361 127 361 c 256
 124 361 120 356 114 347 c 16
 108 338 105 320 105 296 c 0xf0
 105 272 106 254 108 240 c 0
 110 226 120 219 136 216 c 0
 151 213 221 199 221 185 c 0
 221 170 193 154 182 150 c 0
 171 147 123 143 111 141 c 257
 105 126 104 111 104 87 c 256
 104 72 106 63 109 58 c 0
 112 53 122 47 139 40 c 0
 156 33 176 29 202 29 c 256
 208 29 215 30 222 31 c 0
 227 32 235 33 241 33 c 3
 246 33 249 31 249 28 c 0
 249 21 239 12 219 0 c 0
 199 -12 178 -17 155 -17 c 256
 118 -17 87 -9 50 3 c 0
 25 12 13 19 13 28 c 0
 13 40 27 54 51 69 c 1
 52 87 52 105 52 121 c 0
 52 138 52 154 52 171 c 0
 52 191 53 212 55 234 c 0
 56 242 56 250 56 257 c 0xe8
 56 272 54 284 51 294 c 1
 25 308 11 321 11 332 c 0xf0
EndSplineSet
Validated: 1
EndChar

StartChar: f.sc
Encoding: 65547 -1 59
Width: 255
VWidth: 0
Flags: W
HStem: -3 21G<112 136>
VStem: 80 43<65.1963 165.711 244.375 331.036> 334 96<616 678.068>
AnchorPoint: "std above anchor" 50 483 basechar 0
AnchorPoint: "std below anchor" 106 -49 basechar 0
AnchorPoint: "us anchor" 456 578 basechar 0
LayerCount: 3
Fore
SplineSet
16 359 m 24
 16 380 75 409 94 415 c 16
 137 429 145 432 181 462 c 0
 212 488 272 541 299 568 c 0
 311 580 320 590 326 599 c 24
 332 608 334 614 334 618 c 256
 334 631 316 645 316 657 c 0
 316 675 349 700 369 700 c 264
 378 700 390 698 406 692 c 24
 422 686 430 677 430 665 c 264
 430 658 426 649 418 638 c 24
 401 617 356 581 334 564 c 0
 309 545 255 496 230 476 c 0
 209 459 167 427 150 410 c 24
 144 404 141 394 138 378 c 0
 135 357 129 290 128 268 c 0
 128 260 128 252 129 244 c 1
 137 241 199 217 199 209 c 256
 199 205 195 200 187 194 c 16
 183 191 141 165 129 165 c 0
 128 165 128 166 127 166 c 9
 124 160 123 143 123 114 c 24
 123 85 124 69 127 65 c 17
 138 63 201 44 201 33 c 0
 201 16 145 -3 127 -3 c 0
 97 -3 60 1 38 8 c 24
 27 12 22 16 22 20 c 8
 24 35 59 56 74 60 c 9
 76 64 78 81 79 111 c 16
 79 126 80 138 80 148 c 0
 80 158 80 164 79 168 c 1
 71 181 54 185 40 192 c 0
 32 196 29 201 29 208 c 0
 29 218 71 239 80 242 c 25
 80 256 76 312 73 332 c 1
 60 334 16 347 16 359 c 24
EndSplineSet
Validated: 1
EndChar

StartChar: g.sc
Encoding: 65548 -1 60
Width: 376
VWidth: 0
Flags: W
HStem: 0 50<137.915 243.28> 335 64<128.986 211.5>
VStem: 13 71<96.9564 274.11>
AnchorPoint: "std above anchor" 192 483 basechar 0
AnchorPoint: "std below anchor" 165 -49 basechar 0
AnchorPoint: "us anchor" 273 483 basechar 0
LayerCount: 3
Fore
SplineSet
13 160 m 256
 13 216 23 259 44 290 c 0
 61 314 87 349 111 366 c 0
 129 378 163 399 190 399 c 256
 233 399 245 389 264 363 c 0
 274 350 278 341 276 336 c 0
 274 331 266 322 249 307 c 0
 232 292 223 285 220 285 c 0
 208 285 190 317 183 322 c 0
 176 327 163 335 153 335 c 256
 132 335 123 324 110 308 c 0
 86 279 84 250 84 188 c 0
 84 145 90 116 104 99 c 0
 123 75 171 50 208 50 c 0
 233 50 245 50 254 68 c 0
 259 77 261 85 260 90 c 0
 259 100 216 134 209 138 c 0
 202 142 181 148 181 158 c 0
 181 166 201 181 206 184 c 0
 219 191 251 206 277 206 c 0
 282 206 287 205 292 204 c 0
 306 200 326 169 332 156 c 0
 337 146 339 138 339 131 c 256
 339 123 338 116 336 110 c 0
 334 104 323 92 304 72 c 0
 273 38 225 0 166 0 c 256
 113 0 85 8 59 36 c 0
 26 71 13 94 13 160 c 256
EndSplineSet
Validated: 1
EndChar

StartChar: h.sc
Encoding: 65549 -1 61
Width: 387
VWidth: 0
Flags: W
HStem: -4 40<108.607 168.635> 3 43<310.336 376.856> 182 39<128.292 256.736>
VStem: 55 49<45.4746 178.83 248.236 303.62> 225 100<325.123 375> 225 87<325.123 375> 261 48<46.4702 175.305>
AnchorPoint: "std above anchor" 176 483 basechar 0
AnchorPoint: "std below anchor" 192 -49 basechar 0
AnchorPoint: "us anchor" 288 483 basechar 0
LayerCount: 3
Fore
SplineSet
6 3 m 0x72
 6 13 49 44 55 48 c 1
 55 105 55 105 55 117 c 0
 55 139 54 194 54 239 c 0
 54 262 54 282 55 294 c 1
 37 302 15 311 15 326 c 0
 15 350 68 374 86 380 c 0
 98 385 107 387 112 387 c 0
 119 387 123 384 124 377 c 0
 124 370 111 338 110 332 c 0
 108 322 104 291 104 267 c 0
 104 260 104 253 105 248 c 0
 107 239 120 229 128 225 c 0
 134 222 155 221 194 221 c 0
 233 221 254 226 258 235 c 0
 260 239 263 304 264 308 c 0
 266 314 264 318 258 320 c 0
 248 324 225 334 225 349 c 0
 225 371 262 383 285 389 c 0
 303 394 314 397 319 397 c 0
 323 397 325 394 325 387 c 3x78
 325 384 325 380 324 375 c 0
 320 358 314 312 312 296 c 0x74
 310 272 308 156 308 105 c 3
 308 94 309 86 309 83 c 0
 310 68 311 56 316 46 c 1
 327 46 377 38 377 26 c 0
 377 15 357 3 342 3 c 0x72
 340 3 337 3 335 4 c 0
 328 6 323 6 318 4 c 0
 309 0 266 -2 256 -5 c 0
 249 -7 244 -8 242 -8 c 0
 238 -8 234 -2 234 2 c 0
 234 5 238 9 244 16 c 0
 250 23 256 29 262 36 c 1
 261 62 l 2
 261 70 260 90 259 123 c 2
 258 168 l 1
 231 181 206 182 166 182 c 3
 125 182 108 181 106 148 c 0
 105 133 104 112 104 91 c 0
 104 73 105 55 108 45 c 257
 121 40 130 38 151 36 c 0
 164 35 171 30 171 23 c 0
 171 4 128 -4 109 -4 c 0xb2
 103 -4 82 0 76 0 c 0
 69 0 36 -7 29 -7 c 0
 14 -7 6 -4 6 3 c 0x72
EndSplineSet
Validated: 1
Comment: "Original image not high enough resolution."
EndChar

StartChar: i.sc
Encoding: 65550 -1 62
Width: 202
VWidth: 0
Flags: W
HStem: 0 45<115.279 183.23>
VStem: 7 113<339 392> 55 54<57.6089 304.982>
AnchorPoint: "std above anchor" 96 483 basechar 0
AnchorPoint: "std below anchor" 82 -49 basechar 0
AnchorPoint: "us anchor" 100 483 basechar 0
LayerCount: 3
Fore
SplineSet
7 339 m 0xc0
 7 344 13 351 24 361 c 0
 40 375 83 406 110 406 c 0
 116 406 120 401 120 392 c 3xc0
 120 383 120 375 119 366 c 0
 115 304 109 229 109 171 c 0
 109 118 109 87 110 77 c 0
 110 60 158 45 175 45 c 0
 186 45 191 42 191 36 c 0
 191 27 182 18 163 11 c 0
 144 4 117 0 81 0 c 0
 45 0 25 2 20 8 c 0
 15 13 13 18 13 22 c 0
 13 30 21 39 31 50 c 0
 53 73 55 97 55 142 c 2
 55 291 l 1xa0
 42 299 7 321 7 339 c 0xc0
EndSplineSet
Validated: 1
EndChar

StartChar: j.sc
Encoding: 65551 -1 63
Width: 166
VWidth: 0
Flags: W
HStem: -145 23<-77.5 9.86005>
VStem: -130 80<-119.105 -57.2935> 55 54<-44.4459 305.711>
AnchorPoint: "std below anchor" 114 -96 basechar 0
AnchorPoint: "std above anchor" 100 483 basechar 0
AnchorPoint: "us anchor" 104 483 basechar 0
LayerCount: 3
Fore
SplineSet
-130 -87 m 256
 -130 -82 -124 -74 -113 -62 c 0
 -102 -50 -91 -44 -81 -44 c 0
 -67 -44 -56 -57 -50 -83 c 16
 -44 -109 -33 -122 -18 -122 c 0
 24 -122 48 -66 52 -24 c 0
 55 4 56 40 56 76 c 0
 56 112 55 151 55 183 c 2
 55 291 l 1
 42 299 7 321 7 339 c 0
 7 344 13 351 24 361 c 0
 40 375 83 406 110 406 c 0
 117 406 121 400 120 389 c 0
 116 327 109 237 109 178 c 0
 109 106 109 106 109 64 c 0
 109 -5 82 -75 44 -112 c 8
 21 -134 -12 -145 -54 -145 c 256
 -101 -145 -130 -135 -130 -87 c 256
EndSplineSet
Validated: 1
EndChar

StartChar: k.sc
Encoding: 65552 -1 64
Width: 443
VWidth: 0
Flags: W
HStem: -7 21G<103.5 117.5> 7 34<363 458.906>
VStem: 72 52<42.1285 127.64 182.099 409.157>
AnchorPoint: "std above anchor" 122 531 basechar 0
AnchorPoint: "std below anchor" 180 -49 basechar 0
AnchorPoint: "us anchor" 245 483 basechar 0
LayerCount: 3
Fore
SplineSet
-8 434 m 0xa0
 -8 437 -2 444 8 454 c 0
 18 464 33 470 52 474 c 0
 71 478 88 487 104 498 c 0
 120 509 133 515 141 515 c 0
 148 515 151 510 151 499 c 3
 151 492 150 485 149 479 c 0
 140 418 135 363 131 298 c 0
 129 265 127 239 124 218 c 0
 123 214 123 210 123 206 c 0
 123 193 127 184 136 182 c 0
 163 174 164 177 195 168 c 0
 226 159 253 148 279 134 c 1
 290 144 302 158 308 174 c 0
 309 178 310 182 310 187 c 3
 310 192 309 196 306 199 c 0
 302 202 285 217 277 224 c 0
 275 226 273 227 273 231 c 0
 273 234 274 237 275 240 c 0
 279 252 288 267 291 272 c 0
 296 280 313 283 326 285 c 0
 335 287 348 287 364 287 c 0
 383 287 389 280 389 270 c 0
 389 261 385 249 380 236 c 0
 362 195 356 182 325 151 c 0
 312 138 304 127 303 119 c 1
 314 111 342 86 354 78 c 0
 366 70 398 53 412 47 c 0
 422 43 435 41 448 41 c 0
 457 41 466 42 474 43 c 1
 474 35 471 29 464 26 c 0
 449 19 399 7 376 7 c 256x60
 350 7 305 35 288 48 c 0
 264 66 230 90 205 105 c 0
 193 112 181 119 168 124 c 0
 161 127 155 128 150 128 c 0
 130 128 124 108 124 82 c 2
 124 61 l 2
 124 52 126 47 135 43 c 0
 147 39 157 32 165 26 c 0
 167 25 168 21 168 19 c 3
 168 13 161 7 157 5 c 0
 149 1 123 -7 112 -7 c 256
 95 -7 69 -2 54 1 c 0
 44 3 33 7 33 15 c 0
 33 17 34 21 36 24 c 0
 43 35 51 46 64 50 c 0
 70 52 72 60 72 74 c 3
 72 88 71 102 71 115 c 0
 71 168 75 215 76 278 c 0
 76 315 76 342 76 360 c 0
 76 395 53 417 18 418 c 0
 1 418 -8 424 -8 434 c 0xa0
EndSplineSet
Validated: 1
EndChar

StartChar: l.sc
Encoding: 65553 -1 65
Width: 297
VWidth: 0
Flags: W
HStem: 0 45<125.794 246.047>
VStem: 62 58<63.6453 455.674>
AnchorPoint: "std above anchor" 111 609 basechar 0
AnchorPoint: "std below anchor" 117 -49 basechar 0
AnchorPoint: "us anchor" 199 483 basechar 0
LayerCount: 3
Fore
SplineSet
-66 458 m 256
 -66 463 -54 476 -30 494 c 0
 9 524 12 526 52 536 c 0
 64 539 74 543 82 550 c 0
 89 556 134 586 146 586 c 256
 149 586 151 580 151 569 c 0
 151 558 148 550 142 546 c 0
 136 542 132 521 127 480 c 0
 122 439 120 362 120 250 c 0
 120 138 122 76 125 63 c 257
 142 53 155 45 181 45 c 0
 210 45 244 56 260 67 c 0
 273 76 291 91 304 99 c 0
 307 101 309 101 311 101 c 3
 314 101 315 100 315 96 c 0
 315 88 305 73 285 52 c 0
 245 10 204 0 124 0 c 256
 115 0 102 0 89 -0 c 0
 55 0 17 2 17 17 c 256
 17 33 47 49 58 55 c 1
 62 81 62 119 62 157 c 2
 62 251 l 2
 62 317 58 382 46 436 c 0
 39 466 29 481 14 481 c 0
 -1 481 -14 476 -24 466 c 0
 -34 456 -43 451 -52 451 c 0
 -61 451 -66 453 -66 458 c 256
EndSplineSet
Validated: 1
AlternateSubs2: "'salt' Stylistic Alternatives in Latin lookup 26-1" l.sc2
Substitution2: "Single Substitution no tag-1" l.sc2
EndChar

StartChar: m.sc
Encoding: 65554 -1 66
Width: 600
VWidth: 0
Flags: W
HStem: -21 21G<116.5 131.5 264.5 268.5> 0 53<521.633 588.67>
VStem: 116 81<279 355.296> 144 53<208.918 317.3> 299 104<297.5 355.485> 354 49<222.45 316.543>
AnchorPoint: "std above anchor" 278 483 basechar 0
AnchorPoint: "std below anchor" 270 -49 basechar 0
AnchorPoint: "us anchor" 419 483 basechar 0
LayerCount: 3
Fore
SplineSet
-8 7 m 256x88
 -8 9 4 18 28 32 c 24
 52 46 67 57 76 64 c 0
 94 78 123 144 130 170 c 16
 134 185 144 268 144 293 c 0x98
 144 302 141 307 130 313 c 24
 121 318 116 323 116 327 c 0
 116 336 128 349 152 366 c 24
 176 383 192 392 202 393 c 0
 211 393 228 391 228 382 c 256
 228 376 226 370 222 363 c 0
 215 352 197 314 197 296 c 256
 197 262 207 237 220 206 c 0
 237 165 249 140 274 108 c 16
 286 93 293 85 294 85 c 0
 308 85 329 124 335 136 c 24
 351 171 354 214 354 266 c 256xa4
 354 300 344 316 318 322 c 8
 305 325 299 328 299 333 c 0
 299 338 302 342 308 347 c 24
 321 357 359 379 373 387 c 0
 383 393 392 396 399 396 c 0
 412 396 418 393 418 387 c 0
 418 381 415 371 410 356 c 16
 405 341 403 324 403 306 c 256
 403 289 406 271 412 252 c 24
 424 216 470 131 490 103 c 16
 502 86 513 73 528 64 c 0
 541 57 562 53 583 53 c 0
 592 53 600 53 608 55 c 0
 618 57 624 58 627 58 c 3
 628 58 629 57 629 56 c 264
 629 51 622 45 607 34 c 24
 586 19 556 0 528 0 c 264x48
 485 0 464 16 443 42 c 8
 425 65 408 94 396 116 c 0
 392 123 387 126 380 126 c 256
 369 126 359 120 352 107 c 0
 338 81 316 44 300 18 c 0
 291 4 283 -6 278 -12 c 0
 273 -18 270 -21 267 -21 c 256
 262 -21 260 -17 260 -12 c 0
 260 -2 266 14 268 18 c 9
 253 37 l 26
 228 68 202 108 183 142 c 24
 175 157 170 165 168 168 c 24
 166 171 163 173 160 173 c 256
 155 173 149 164 142 146 c 0
 135 128 128 111 120 98 c 16
 112 85 109 76 109 72 c 0
 109 50 116 44 132 34 c 0
 142 28 151 23 161 18 c 16
 171 13 176 9 176 6 c 256
 176 -9 140 -21 123 -21 c 256
 110 -21 100 -17 90 -8 c 24
 80 1 69 6 58 6 c 256
 38 6 23 -3 5 -3 c 256
 -4 -3 -8 0 -8 7 c 256x88
EndSplineSet
Validated: 1
EndChar

StartChar: n.sc
Encoding: 65555 -1 67
Width: 414
VWidth: 0
Flags: W
HStem: 0 57<98.2129 153.018>
VStem: 18 81<287.574 341.941> 57 40<55.4168 166.987 267.42 289.281> 296 50<191.141 329.112> 307 33<-61.2601 61.3445> 308 48<-46.9281 96.9988 182.314 295.576>
AnchorPoint: "std above anchor" 194 483 basechar 0
AnchorPoint: "std below anchor" 151 -49 basechar 0
AnchorPoint: "us anchor" 311 483 basechar 0
LayerCount: 3
Fore
SplineSet
7 14 m 256xa4
 7 25 18 35 26 42 c 0
 32 48 38 53 45 58 c 0
 52 63 56 102 57 174 c 0
 57 181 57 189 57 195 c 0xa4
 57 253 53 282 45 285 c 0
 34 288 18 309 18 322 c 256
 18 325 19 329 22 334 c 0
 25 339 38 350 62 367 c 0
 86 384 102 393 107 393 c 0
 111 393 113 389 113 381 c 0
 113 361 105 314 100 297 c 0
 99 294 99 291 99 289 c 0
 99 281 103 275 112 270 c 0
 134 259 147 248 165 234 c 0
 173 228 189 217 214 203 c 0
 239 189 259 182 274 182 c 3
 288.594537462 182 303 182.424198051 303 191 c 3
 303 194 302 197 300 202 c 0
 297 209 296 222 296 241 c 0
 296 247 296 253 296 260 c 0
 296 275 297 287 297 296 c 0
 297 305 296 309 296 311 c 0
 295 314 288 320 276 328 c 0
 264 336 257 342 257 349 c 0
 257 362 267 374 286 384 c 0
 305 394 321 399 334 399 c 3
 344 399 345 382 346 354 c 0xd0
 347 310 346 164 351 124 c 0
 354 97 356 76 356 62 c 0x84
 356 48 355 35 352 25 c 0
 349 15 345 -2 340 -26 c 0
 335 -50 329 -62 320 -62 c 256
 309 -62 307 -33 307 -5 c 0x88
 307 16 308 36 308 44 c 0
 308 48 308 52 308 56 c 0
 308 79 305 93 286 97 c 0
 260 103 231 104 206 114 c 0
 191 120 173 132 151 146 c 0
 129 160 115 167 108 167 c 0
 101 167 97 149 97 112 c 0
 97 75 100 57 105 57 c 0
 106 57 l 0
 117 57 159 44 159 36 c 0
 157 8 114 4 78 1 c 0
 69 0 61 0 54 0 c 0
 40 0 29 1 22 4 c 0
 12 8 7 11 7 14 c 256xa4
EndSplineSet
EndChar

StartChar: o.sc
Encoding: 65556 -1 68
Width: 376
VWidth: 0
Flags: W
HStem: -11 50<150.355 259.222> 340 58<164.729 228.5>
VStem: 31 65<98.407 240.396> 295 67<105.205 222.257>
AnchorPoint: "std above anchor" 217 483 basechar 0
AnchorPoint: "std below anchor" 185 -49 basechar 0
AnchorPoint: "us anchor" 296 483 basechar 0
LayerCount: 3
Fore
SplineSet
31 136 m 256
 31 175 33 174 48 225 c 0
 67 291 82 321 131 354 c 0
 154 370 172 381 185 388 c 0
 198 395 210 398 223 398 c 256
 234 398 245 395 254 389 c 0
 276 374 309 336 324 312 c 0
 340 287 362 233 362 195 c 256
 362 178 360 159 354 138 c 0
 348 117 334 91 310 58 c 0
 286 25 266 4 250 -2 c 0
 234 -8 213 -11 186 -11 c 256
 120 -11 98 -6 64 34 c 0
 35 68 31 90 31 136 c 256
96 195 m 256
 96 132 111 100 139 70 c 0
 159 48 202 39 240 39 c 256
 263 39 278 50 285 71 c 0
 292 92 295 109 295 121 c 256
 295 196 260 256 227 305 c 0
 211 328 193 340 174 340 c 256
 160 340 143 328 124 304 c 0
 105 280 96 244 96 195 c 256
EndSplineSet
Validated: 1
EndChar

StartChar: p.sc
Encoding: 65557 -1 69
Width: 361
VWidth: 0
Flags: W
HStem: 40 43<107.659 231.232> 346 50<120.211 219.565>
VStem: 54 50<-172.68 44 88.1443 246.734> 59 47<37.0501 44 88.1443 319.144> 271 66<150.123 289.372>
AnchorPoint: "std above anchor" 173 483 basechar 0
AnchorPoint: "std below anchor" 218 -49 basechar 0
AnchorPoint: "us anchor" 281 483 basechar 0
LayerCount: 3
Fore
SplineSet
-17 -219 m 3xd8
 -17 -208 7 -190 25 -178 c 0
 41 -167 47 -161 49 -142 c 4
 50 -134 52 -76 54 32 c 0xe8
 56 140 58 231 59 306 c 1
 50 311 5 339 5 353 c 256
 5 357 25 366 64 378 c 0
 103 390 142 396 181 396 c 256
 221 396 248 391 263 381 c 0
 278 371 294 353 311 328 c 0
 328 303 337 277 337 251 c 256
 337 225 331 195 320 162 c 0
 309 129 287 100 254 76 c 0
 221 52 189 40 160 40 c 0
 149 40 131 41 106 44 c 1
 102 -166 l 1
 109 -168 161 -184 161 -190 c 259
 161 -193 157 -200 148 -210 c 0
 139 -220 120 -225 92 -226 c 0
 64 -227 42 -227 23 -227 c 256
 -3 -227 -17 -224 -17 -219 c 3xd8
104 114 m 0
 104 99 105 91 108 88 c 0
 111 85 128 83 158 83 c 0
 186 83 212 90 236 104 c 0
 260 118 271 145 271 187 c 256
 271 258 256 292 220 324 c 0
 204 339 183 346 157 346 c 0
 138 346 125 338 118 320 c 0
 111 302 107 267 106 215 c 0xd8
 105 163 104 129 104 114 c 0
EndSplineSet
Validated: 1
EndChar

StartChar: q.sc
Encoding: 65558 -1 70
Width: 317
VWidth: 0
Flags: W
HStem: -268 51<331.735 398.248> 313 85<133.632 178.789>
VStem: 18 57<110.462 260.526> 227 66<112.396 248.555>
AnchorPoint: "std above anchor" 157 483 basechar 0
AnchorPoint: "std below anchor" 56 -49 basechar 0
AnchorPoint: "us anchor" 265 483 basechar 0
LayerCount: 3
Fore
SplineSet
18 125 m 0
 18 155 26 230 35 251 c 0
 56 300 97 348 138 380 c 16
 153 392 163 398 169 398 c 0
 185 398 206 383 232 352 c 0
 258 321 272 297 278 280 c 0
 286 257 293 223 293 199 c 256
 293 185 288 164 279 134 c 0
 270 104 256 80 238 61 c 0
 220 42 212 29 212 22 c 1
 241 -51 276 -118 318 -180 c 0
 335 -205 358 -217 389 -217 c 0
 400 -217 406 -222 406 -232 c 0
 406 -239 400 -246 388 -255 c 0
 376 -264 362 -268 345 -268 c 0
 313 -268 285 -248 260 -209 c 0
 224 -152 205 -114 184 -66 c 0
 174 -44 174 -34 156 -17 c 0
 146 -8 135 -2 120 1 c 0
 57 12 18 51 18 125 c 0
75 215 m 256
 75 154 89 102 126 76 c 0
 139 67 152 62 165 62 c 256
 193 62 202 72 212 90 c 0
 222 107 227 132 227 159 c 256
 227 218 205 253 180 290 c 0
 170 305 156 313 138 313 c 256
 112 313 84 270 79 248 c 0
 76 235 75 224 75 215 c 256
EndSplineSet
Validated: 1
EndChar

StartChar: r.sc
Encoding: 65559 -1 71
Width: 412
VWidth: 0
Flags: W
HStem: -7 40<105.378 168.864> 5 53<313.346 388.41> 168 28<114.179 182.886> 356 45<143.343 186.402> 356 37<119.06 142.854>
VStem: 60 48<55 167.999 197.826 290.671> 222 49<243.865 316.98>
AnchorPoint: "std above anchor" 144 483 basechar 0
AnchorPoint: "std below anchor" 163 -49 basechar 0
AnchorPoint: "us anchor" 255 483 basechar 0
LayerCount: 3
Fore
SplineSet
7 330 m 0xa6
 7 341 20 354 48 370 c 24
 76 386 100 393 120 393 c 0xae
 129 393 140 386 143 380 c 1
 150 383 178 401 188 401 c 0
 208 401 241 376 250 364 c 16
 260 351 271 317 271 296 c 0
 271 268 264 257 246 241 c 24
 231 228 219 220 209 210 c 0
 206 205 207 200 212 197 c 24
 240 176 248 163 272 132 c 24
 285 115 297 101 307 88 c 24
 326 63 326 60 364 58 c 16
 368 58 372 58 376 58 c 0
 399 58 417 62 430 70 c 0
 436 73 438 72 438 67 c 0
 438 64 437 61 434 58 c 8
 426 47 390 27 376 20 c 8
 355 10 340 5 312 5 c 0x76
 305 5 296 9 286 18 c 24
 261 41 231 86 210 118 c 8
 197 138 188 150 184 154 c 24
 174 164 162 166 140 167 c 16
 132 167 126 168 122 168 c 0
 114 168 111 166 108 156 c 8
 104 140 102 109 102 86 c 24
 102 55 104 41 128 36 c 16
 134 35 149 33 162 33 c 0
 167 33 175 34 178 35 c 0
 183 36 189 37 196 38 c 16
 197 38 198 38 199 38 c 3
 203 38 204 37 204 36 c 3
 204 32 193 25 188 22 c 8
 172 13 143 2 124 -3 c 24
 114 -6 107 -7 101 -7 c 0
 87 -7 61 0 47 0 c 0
 32 0 19 3 19 17 c 0
 19 21 43 44 45 46 c 0
 47 48 50 51 54 55 c 9
 55 95 57 227 60 262 c 24
 61 276 61 284 61 291 c 9
 53 293 7 321 7 330 c 0xa6
108 230 m 8
 111 207 121 196 143 196 c 256
 167 196 191 214 206 226 c 8
 216 234 222 245 222 256 c 264
 222 287 200 323 181 340 c 16
 169 351 159 356 150 356 c 0
 149 356 148 356 147 356 c 0x36
 132 356 124 347 118 337 c 0
 113 327 108 268 108 240 c 0
 108 236 108 233 108 230 c 8
EndSplineSet
Validated: 1
EndChar

StartChar: s.sc
Encoding: 65560 -1 72
Width: 314
VWidth: 0
Flags: W
HStem: -9 52<58.5324 179.005> 379 91<157.035 214.135>
VStem: 8 46<51.3326 91.6417> 19 64<297.077 370.917> 206 68<97.3203 185.5>
AnchorPoint: "std above anchor" 171 502 basechar 0
AnchorPoint: "std below anchor" 105 -49 basechar 0
AnchorPoint: "us anchor" 278 483 basechar 0
LayerCount: 3
Fore
SplineSet
8 8 m 2xe8
 8 26 l 2
 8 52 28 108 52 108 c 0
 57 108 59 105 59 101 c 0
 59 94 54 82 54 78 c 0xe8
 54 55 89 43 112 43 c 0
 141 43 163 50 180 65 c 0
 197 80 206 91 206 98 c 0
 206 105 202 117 196 134 c 0
 180 178 149 197 100 218 c 0
 70 231 50 243 38 254 c 0
 26 265 19 283 19 306 c 256
 19 335 38 368 50 386 c 0
 67 411 108 448 140 460 c 0
 158 467 170 470 175 470 c 0
 200 470 226 453 226 430 c 0
 226 417 218 402 202 387 c 0
 197 382 193 380 188 379 c 0
 186 379 183 381 178 384 c 0
 173 387 166 392 157 401 c 2
 139 418 l 2
 131 426 124 427 118 421 c 2
 105 408 l 2
 90 393 83 372 83 345 c 0xd8
 83 319 83 311 98 299 c 0
 108 290 129 280 162 270 c 0
 195 260 221 246 242 228 c 0
 263 210 274 193 274 178 c 256
 274 164 267 139 254 102 c 0
 229 30 170 -9 74 -9 c 2
 31 -9 l 2
 16 -9 8 -3 8 8 c 2xe8
EndSplineSet
Validated: 1
AlternateSubs2: "'salt' Stylistic Alternatives in Latin lookup 26-1" s.sc2
Substitution2: "Single Substitution no tag-1" s.sc2
EndChar

StartChar: t.sc
Encoding: 65561 -1 73
Width: 336
VWidth: 0
Flags: W
HStem: -9 57<203.143 267.354> 323 76<73.2647 146.188>
VStem: 142 53<64.7522 189.347> 155 57<96.2432 320.531>
AnchorPoint: "std above anchor" 184 483 basechar 0
AnchorPoint: "std below anchor" 179 -49 basechar 0
AnchorPoint: "us anchor" 245 483 basechar 0
LayerCount: 3
Fore
SplineSet
9 331 m 0xd0
 9 353 100 391 118 395 c 0
 131 398 143 399 155 399 c 0
 173 399 173 399 203 399 c 0
 241 399 242 405 270 410 c 0
 281 412 291 414 300 418 c 0
 309 422 315 424 320 424 c 256
 325 424 327 423 327 420 c 0
 327 414 317 402 298 386 c 0
 279 370 259 357 240 346 c 0
 222 336 212 323 212 309 c 0xd0
 212 292 213 270 213 234 c 0
 213 200 210 170 204 144 c 0
 198 118 195 101 195 96 c 0
 195 79 196 75 208 66 c 0
 220 56 239 50 258 48 c 0
 267 47 284 44 284 36 c 0
 284 3.60713609017 210.224085515 -9 172 -9 c 3
 135 -9 85 -8 85 20 c 0
 85 29 92 39 105 48 c 0
 118 57 128 62 133 64 c 1
 138 80 141 99 142 120 c 0xe0
 143 141 146 154 150 160 c 0
 154 166 155 176 155 190 c 0
 155 217 151 291 144 310 c 0
 139 323 120 327 98 327 c 0
 78 327 56 324 40 323 c 0
 37 323 34 323 31 323 c 0
 16 323 9 325 9 331 c 0xd0
EndSplineSet
EndChar

StartChar: u.sc
Encoding: 65562 -1 74
Width: 423
VWidth: 0
Flags: W
HStem: -49 21G<240 246> 323 70<24.4459 134.171> 370 23<150.212 185.944>
VStem: 46 63<160.481 319.842>
AnchorPoint: "std above anchor" 214 483 basechar 0
AnchorPoint: "std below anchor" 193 -49 basechar 0
AnchorPoint: "us anchor" 339 483 basechar 0
LayerCount: 3
Fore
SplineSet
-7 339 m 0xd0
 -7 344 0 352 12 363 c 0
 42 391 65 393 130 393 c 0xd0
 167 393 186 389 186 382 c 3
 186 378 180 374 166 370 c 0xb0
 134 360 109 287 109 246 c 0
 109 182 148 122 184 87 c 0
 207 65 228 54 248 54 c 3
 273 54 279 79 283 106 c 0
 286 128 290 161 294 206 c 2
 302 293 l 1
 267 313 l 2
 256 319 248 325 242 331 c 0
 236 337 234 342 234 345 c 3
 234 366 311 395 336 398 c 0
 351 400 364 401 374 401 c 0
 384 401 389 398 389 391 c 0
 389 384 386 375 380 363 c 0
 374 351 368 316 362 259 c 0
 352 157 316 30 267 -29 c 0
 256 -42 248 -49 244 -49 c 0
 236 -49 233 -45 233 -40 c 0
 233 -34 236 -26 236 -19 c 0
 236 -15 235 -11 232 -9 c 0
 227 -6 213 -3 190 0 c 0
 167 3 144 14 122 33 c 0
 74 72 48 136 46 227 c 0
 46 244 48 263 56 286 c 0
 62 302 65 313 65 318 c 0
 65 321 63 323 61 323 c 0
 58 323 54 321 46 316 c 0
 38 311 32 310 27 310 c 0
 19 310 12 314 4 322 c 0
 -3 329 -7 334 -7 339 c 0xd0
EndSplineSet
Validated: 1
EndChar

StartChar: v.sc
Encoding: 65563 -1 75
Width: 488
VWidth: 0
Flags: W
HStem: -26 21G<226.5 233.5> 327 63<270.651 330.352>
VStem: 7 63<270.769 363.957> 339 136<273.5 366.5>
AnchorPoint: "std above anchor" 232 483 basechar 0
AnchorPoint: "std below anchor" 229 -49 basechar 0
AnchorPoint: "us anchor" 372 483 basechar 0
LayerCount: 3
Fore
SplineSet
7 322 m 256
 7 331 9 339 13 345 c 0
 23 360 65 402 78 416 c 8
 88 426 96 431 101 431 c 0
 110 431 114 426 113 417 c 0
 113 410 109 400 101 390 c 0
 88 374 70 352 70 327 c 0
 70 304 85 275 116 240 c 0
 167 182 153 194 188 162 c 0
 200 151 210 139 222 124 c 0
 234 109 242 101 247 101 c 0
 270 101 295 159 301 179 c 0
 306 195 314 215 325 238 c 0
 336 261 339 271 339 276 c 267
 339 309 317 324 285 327 c 0
 257 331 250 333 250 347 c 3
 250 353 253 358 257 361 c 24
 262 365 310 388 318 390 c 0
 323 391 336 392 357 392 c 256
 383 392 457 387 469 376 c 0
 473 372 475 369 475 364 c 3
 475 336 457 328 434 320 c 0
 411 312 406 306 400 293 c 0
 393 279 387 262 382 242 c 0
 370 195 342 126 316 90 c 0
 300 68 286 44 272 20 c 24
 258 -4 249 -18 246 -21 c 0
 243 -24 237 -26 230 -26 c 256
 223 -26 216 -23 212 -18 c 0
 198 -1 159 58 144 77 c 24
 121 106 59 198 39 232 c 24
 26 254 18 271 14 286 c 0
 10 301 7 313 7 322 c 256
EndSplineSet
Validated: 1
EndChar

StartChar: w.sc
Encoding: 65564 -1 76
Width: 676
VWidth: 0
Flags: W
HStem: -26 127<223.085 251.123 387.35 415.609>
VStem: 6 64<268.226 363.645> 170 64<270.898 362.817>
AnchorPoint: "std above anchor" 348 483 basechar 0
AnchorPoint: "std below anchor" 314 -49 basechar 0
AnchorPoint: "us anchor" 538 483 basechar 0
LayerCount: 3
Fore
SplineSet
6 322 m 0
 6 331 8 339 12 345 c 0
 22 360 65 402 78 416 c 0
 88 426 95 431 100 431 c 0
 109 431 113 426 113 417 c 0
 113 410 108 400 100 390 c 0
 87 374 70 353 70 327 c 0
 70 304 82 278 106 250 c 0
 147 202 149 195 186 162 c 0
 198 151 210 139 222 124 c 0
 234 109 242 101 246 101 c 0
 254 101 263 109 273 124 c 1
 256 149 l 2
 231 184 213 213 201 234 c 0
 189 255 180 272 176 287 c 0
 172 302 170 313 170 322 c 0
 170 331 172 339 176 345 c 0
 186 359 230 402 242 416 c 0
 251 426 259 431 264 431 c 0
 273 431 277 426 277 417 c 0
 277 410 272 400 264 390 c 0
 251 374 234 353 234 327 c 0
 234 304 249 275 280 240 c 2
 310 206 l 1
 317 220 338 268 338 286 c 0
 338 307 327 317 310 324 c 0
 294 330 287 335 287 347 c 3
 287 352 291 357 296 362 c 0
 305 370 339 390 355 391 c 0
 364 392 371 392 376 392 c 0
 384 392 429 377 433 374 c 0
 436 372 437 369 437 364 c 0
 437 349 437 343 426 336 c 0
 407 324 389 268 382 240 c 0
 376 219 367 194 356 167 c 1
 354 160 l 1
 365 149 377 136 388 122 c 0
 399 108 406 101 410 101 c 0
 431 101 458 156 463 172 c 0
 468 188 502 272 507 288 c 0
 509 295 510 301 510 306 c 0
 510 315 505 322 493 325 c 0
 480 328 472 331 472 343 c 0
 472 351 475 357 480 361 c 0
 485 365 521 390 529 391 c 0
 533 392 537 392 541 392 c 0
 573 392 638 391 638 364 c 0
 638 359 638 355 637 350 c 0
 637 336 611 325 598 320 c 0
 577 312 571 308 564 293 c 0
 557 279 551 262 546 242 c 0
 534 196 506 127 480 90 c 0
 464 68 450 44 436 20 c 0
 422 -4 413 -18 410 -21 c 0
 407 -24 401 -26 394 -26 c 256
 387 -26 380 -23 376 -18 c 0
 372 -13 362 1 347 22 c 2
 308 77 l 1
 307 78 l 1
 294 59 282 40 271 21 c 0
 257 -4 248 -18 245 -21 c 0
 242 -24 236 -26 229 -26 c 256
 222 -26 216 -23 212 -18 c 0
 208 -13 198 1 184 22 c 0
 149 77 129 95 87 156 c 0
 64 190 47 217 36 236 c 0
 20 264 6 290 6 322 c 0
EndSplineSet
Validated: 1
EndChar

StartChar: x.sc
Encoding: 65565 -1 77
Width: 528
VWidth: 0
Flags: W
HStem: -18 52<437.572 493.077> -13 68<52.5 116> 317 79<89.5 163.5> 334 67<356.5 432>
AnchorPoint: "std above anchor" 274 483 basechar 0
AnchorPoint: "std below anchor" 251 -49 basechar 0
AnchorPoint: "us anchor" 403 483 basechar 0
LayerCount: 3
Fore
SplineSet
7 45 m 256x40
 7 50 13 57 24 66 c 0
 35 75 46 86 60 98 c 0
 74 110 82 117 84 116 c 0
 86 115 87 110 87 98 c 0
 87 79 88 55 106 55 c 0
 126 55 157 85 199 146 c 2
 227 187 l 1
 191 237 l 2
 154 290 121 317 94 317 c 0
 85 317 74 314 60 308 c 0
 46 302 39 302 38 307 c 0
 38 314 56 331 92 357 c 0
 128 383 150 396 159 396 c 256x60
 168 396 187 382 215 354 c 0
 243 326 260 306 265 293 c 0
 270 280 275 274 279 274 c 256
 284 274 290 280 296 292 c 0
 302 304 315 322 337 346 c 0
 359 370 376 386 388 392 c 0
 400 398 410 401 417 401 c 256
 447 401 462 384 473 364 c 0
 479 353 482 345 482 338 c 256
 482 335 481 331 479 326 c 0
 477 321 470 312 456 297 c 0
 444 284 432 273 421 273 c 0
 414 273 408 278 403 291 c 0
 396 310 380 334 359 334 c 0
 354 334 342 320 324 291 c 2
 297 248 l 1
 325 198 l 2
 354 147 360 137 384 106 c 0
 401 84 452 34 490 34 c 256x90
 501 34 512 39 522 50 c 0
 530 59 544 73 550 73 c 3
 555 73 556 71 556 66 c 256
 556 63 551 56 542 45 c 0
 528 29 485 -5 465 -13 c 0x40
 456 -16 447 -18 438 -18 c 256x80
 429 -18 416 -16 399 -12 c 0
 382 -8 362 5 340 26 c 0
 318 47 298 72 277 102 c 0
 256 132 241 147 232 147 c 0
 227 147 223 141 218 130 c 0
 213 119 189 92 146 50 c 0
 103 8 72 -13 54 -13 c 0
 51 -13 46 -11 40 -6 c 0
 33 0 7 33 7 45 c 256x40
EndSplineSet
Validated: 1
EndChar

StartChar: y.sc
Encoding: 65566 -1 78
Width: 425
VWidth: 0
Flags: W
HStem: -145 23<5.5 88.8684> 298 63<289.747 315.688> 307 57<57.5741 109.5>
AnchorPoint: "std above anchor" 205 483 basechar 0
AnchorPoint: "std below anchor" 260 -49 basechar 0
AnchorPoint: "us anchor" 328 483 basechar 0
LayerCount: 3
Fore
SplineSet
-76 -87 m 256xc0
 -76 -82 -70 -74 -59 -62 c 0
 -48 -50 -37 -44 -27 -44 c 0
 -13 -44 1 -57 14 -83 c 16
 27 -109 41 -122 56 -122 c 0
 72 -122 92 -112 114 -93 c 0
 136 -74 151 -48 158 -16 c 0
 165 16 168 47 168 77 c 256
 168 157 144 217 110 267 c 8
 92 294 77 307 64 307 c 0
 58 307 49 300 37 285 c 0
 25 270 18 263 15 263 c 272
 14 263 13 264 13 267 c 0
 13 271 15 280 20 294 c 8
 25 308 36 323 55 340 c 16
 74 356 90 364 103 364 c 256xa0
 116 364 132 354 152 332 c 16
 172 310 183 293 187 281 c 0
 191 269 196 263 203 263 c 0
 210 263 218 269 228 280 c 8
 248 303 277 334 306 349 c 16
 322 357 331 361 335 361 c 256
 350 361 366 352 386 334 c 24
 406 316 416 298 416 281 c 256
 416 266 408 255 390 248 c 16
 378 243 368 241 360 241 c 0
 356 241 352 242 349 243 c 8
 348 244 297 295 297 295 c 24
 294 298 289 299 282 298 c 24
 269 295 259 275 252 238 c 24
 245 201 238 160 234 114 c 0
 230 68 226 36 222 21 c 24
 218 6 208 -16 192 -46 c 24
 161 -104 106 -145 17 -145 c 256
 -6 -145 -28 -141 -47 -134 c 8
 -66 -127 -76 -111 -76 -87 c 256xc0
EndSplineSet
Validated: 1
Substitution2: "'hist' Medievalize-1" uni1E8F.sc
EndChar

StartChar: z.sc
Encoding: 65567 -1 79
Width: 444
VWidth: 0
Flags: W
HStem: -36 68<235.464 356.536> 1 21G<66.5 76> 319 85<65.248 246.95>
AnchorPoint: "std above anchor" 234 483 basechar 0
AnchorPoint: "std below anchor" 175 -49 basechar 0
AnchorPoint: "us anchor" 336 483 basechar 0
LayerCount: 3
Fore
SplineSet
9 347 m 0x60
 9 349 14 353 23 359 c 0
 73 391 111 404 171 404 c 0
 200 404 214 401 251 401 c 0
 284 401 284 401 312 401 c 0
 340 401 403 415 421 423 c 0
 428 426 433 427 437 427 c 0
 438 427 439 426 439 424 c 0
 439 417 437 412 432 411 c 0
 404 401 382 389 366 375 c 0
 350 361 339 352 333 349 c 0
 323 344 316 338 312 332 c 0
 307 325 296 306 282 273 c 0
 255 212 222 140 185 93 c 0
 182 90 181 87 181 84 c 0
 181 81 183 79 186 77 c 0
 195 70 215 62 244 50 c 24
 273 38 300 32 325 32 c 0
 374 32 405 37 416 48 c 0
 423 55 426 53 425 44 c 0
 424 36 421 30 415 26 c 0
 402 16 384 4 360 -12 c 0
 336 -28 310 -36 281 -36 c 0xa0
 221 -36 199 -36 158 -14 c 0
 138 -3 117 2 95 2 c 0
 89 2 79 1 73 1 c 0
 60 1 34 8 34 19 c 0
 34 20 38 22 46 24 c 24
 68 29 87 39 103 52 c 0
 135 78 193 171 212 212 c 16
 224 236 233 260 240 284 c 16
 245 302 248 315 248 322 c 0
 248 324 247 325 247 326 c 0
 246 328 241 328 234 326 c 0
 217 321 204 319 196 319 c 0
 177 319 151 323 116 330 c 24
 81 337 51 341 25 341 c 0
 14 341 8 343 9 347 c 0x60
EndSplineSet
Validated: 1
EndChar

StartChar: macron
Encoding: 175 175 81
Width: 392
VWidth: 0
Flags: W
HStem: 502 52<46.2549 226.986>
VStem: 30 328
LayerCount: 3
Fore
SplineSet
30 518 m 0
 30 529 88 552 98 554 c 0
 107 556 116 557 127 557 c 27
 139 557 145 556 157 556 c 3
 204 556 250 562 281 566 c 0
 305 569 350 579 352 580 c 0
 354 581 356 581 357 581 c 3
 358 581 358 581 358 580 c 3
 358 578 355 575 353 574 c 0
 344 565 272 533 256 530 c 0
 246 528 226 524 196 515 c 0
 166 506 141 502 122 502 c 0
 104 502 30 505 30 518 c 0
EndSplineSet
Validated: 1
EndChar

StartChar: e_n
Encoding: 65568 -1 82
Width: 647
VWidth: 0
Flags: W
HStem: -2 32<117.131 228.17> 280 39<241.668 311.418> 326 35<446.5 526> 334 35<124.959 193>
VStem: 13 66<89.5547 244.063> 317 46<105.516 248.445> 527 65<32.5428 282.401>
AnchorPoint: "us ligature anchor" 267 391 baselig 0
AnchorPoint: "ligature below" 151 -24 baselig 0
AnchorPoint: "ligature anchor" 186 391 baselig 0
AnchorPoint: "us ligature anchor" 538 391 baselig 1
AnchorPoint: "ligature below" 442 -24 baselig 1
AnchorPoint: "ligature anchor" 474 391 baselig 1
LayerCount: 3
Fore
SplineSet
13 165 m 256xee
 13 237 14 224 32 260 c 0
 47 289 96 334 125 352 c 0
 144 364 165 369 188 369 c 0xde
 198 369 206 367 212 364 c 0
 218 361 228 354 240 340 c 0
 252 326 261 319 268 319 c 0
 275 319 291 326 316 338 c 0
 341 350 358 356 368 356 c 256
 378 356 384 351 386 340 c 0
 390 325 392 320 399 320 c 3
 403 320 410 320 418 322 c 0
 430 325 441 329 452 337 c 0
 466 347 499 361 519 361 c 256
 533 361 570 337 576 328 c 0
 581 319 592 266 592 251 c 0
 592 234 589 211 583 180 c 0
 577 149 574 121 574 95 c 0
 574 88 574 82 574 76 c 0
 574 52 576 40 596 40 c 0
 604 40 609 37 609 31 c 0
 609 14 522 -2 504 -2 c 256
 495 -2 496 0 500 12 c 0
 508 37 517 101 522 133 c 0
 526 156 527 174 527 188 c 3
 527 220 526 254 517 274 c 0
 509 292 481 326 457 326 c 256
 436 326 395 280 389 264 c 0
 385 253 380 224 373 178 c 0
 366 132 363 99 363 82 c 0
 363 58 367 54 384 46 c 0
 393 42 397 37 397 34 c 0
 397 32 385 25 362 14 c 0
 339 3 321 -2 310 -2 c 256
 301 -2 296 5 296 19 c 2
 296 25 l 2
 296 37 293 43 286 44 c 0
 282 44 273 38 258 28 c 0
 243 18 222 10 196 5 c 0
 170 0 149 -3 134 -3 c 256
 99 -3 88 0 66 18 c 0
 40 38 32 46 21 80 c 0
 16 96 13 124 13 165 c 256xee
79 210 m 0
 79 179 92 111 102 86 c 0
 116 50 149 30 197 30 c 0
 268 30 295 91 309 148 c 0
 314 167 316 189 316 212 c 0
 316 227 317 236 317 243 c 0
 317 255 315 259 303 270 c 0
 296 277 290 280 286 280 c 0
 282 280 277 279 272 278 c 0
 267 277 241 272 182 264 c 0
 123 256 93 245 82 230 c 0
 80 227 79 220 79 210 c 0
99 282 m 0
 99 275 105 272 114 272 c 0
 138 272 181 290 183 294 c 0
 185 297 186 301 186 304 c 0
 186 318 168 334 156 334 c 0
 135 334 113 317 106 302 c 0
 102 293 99 286 99 282 c 0
EndSplineSet
LCarets2: 1 331
Ligature2: "two-element ligature in Latin" e n
EndChar

StartChar: e_t_u
Encoding: 65569 -1 83
Width: 977
VWidth: 0
GlyphClass: 3
Flags: W
HStem: -19 38<129.746 221.776 895.239 934.798> -8 35<414.935 494.777 636 745.099> 272 49<272.736 350.996> 300 41<415.641 592.524> 336 20G<876.488 897.5> 349 38<144.945 221>
VStem: 13 53<92.0529 236.851> 603 51<114.914 270.981>
AnchorPoint: "us ligature anchor" 245 391 baselig 0
AnchorPoint: "ligature below" 158 -24 baselig 0
AnchorPoint: "ligature anchor" 195 391 baselig 0
AnchorPoint: "us ligature anchor" 545 391 baselig 1
AnchorPoint: "ligature below" 457 -24 baselig 1
AnchorPoint: "ligature anchor" 494 391 baselig 1
AnchorPoint: "us ligature anchor" 854 391 baselig 2
AnchorPoint: "ligature below" 759 -24 baselig 2
AnchorPoint: "ligature anchor" 771 391 baselig 2
LayerCount: 3
Fore
SplineSet
13 141 m 256x83
 13 184 23 239 38 270 c 0
 57 309 115 358 158 374 c 0
 182 383 198 387 208 387 c 256
 234 387 268 359 273 339 c 0
 277 325 280 321 289 321 c 0xa7
 295 321 304 322 318 324 c 0
 338 326 362 328 390 330 c 0
 431 333 440 341 474 341 c 2
 556 341 l 2x13
 588 341 615 344 637 348 c 0
 660 353 675 355 684 355 c 0
 693 355 697 354 697 351 c 0
 697 322 673 265 664 240 c 0
 657 221 654 192 654 151 c 0
 654 106 657 76 664 62 c 0
 674 42 697 27 722 27 c 0
 729 27 736 28 743 31 c 0
 783 47 808 61 816 74 c 0
 824 87 830 120 835 173 c 2
 842 255 l 1
 828.124127669 266.224326981 804.800991755 280.710890721 790 286 c 0
 781.31813368 289.102450192 777 295 777 304 c 0
 777 313 790 323 816 336 c 0
 842 349 865.976203958 356 887 356 c 3
 908 356 918.981304179 353.483009588 918.981304179 340.000001424 c 3
 918.981304179 324.474023366 917.803062644 315.717227547 914.695215782 295.000001248 c 0
 905.303801776 232.395871177 891 100.28653026 891 72 c 0
 891 49 892 36 895 31 c 0
 900 22 911 18 930 18 c 0
 949 18 958 17 958 16 c 256
 958 15 954 11 945 5 c 0
 934 -3 880 -21 862 -21 c 0
 851 -21 831 -21 826 -15 c 0
 824 -12 823 -2 822 17 c 0
 821 36 820 45 818 45 c 0
 816 45 804 39 783 26 c 0
 753.252868991 7.58510937526 692 -8 650 -8 c 0x4b
 622 -8 607 2 598 22 c 0
 589 41 584 50 581 50 c 0
 571 50 539 26 528 20 c 0
 512 12 445 -4 419 -4 c 0
 376 -4 344 10 324 38 c 1
 310 59 l 1
 276 33 264 25 229 4 c 0
 203 -11 188 -19 154 -19 c 256
 108 -19 93 -8 71 10 c 24
 52 25 34 64 23 90 c 0
 16 106 13 123 13 141 c 256x83
66 170 m 256
 66 122 100 60 130 37 c 0
 146 25 168 19 199 19 c 0
 235 19 264 41 284 63 c 0
 312 93 309 101 314 154 c 0
 316 180 323 205 334 230 c 0
 345 255 351 269 351 270 c 0
 351 271 346 272 336 272 c 0
 283 272 220 264 158 254 c 0
 113 247 86 240 78 235 c 0
 70 230 66 208 66 170 c 256
377 160 m 0
 377 145 378 125 382 102 c 0
 390 53 418 29 477 29 c 256
 534 29 550.198124843 46.3503689689 568 86 c 0
 590 135 589 118 597 188 c 0
 601 223 603 244 603 253 c 0
 603 262 603 267 602 269 c 0
 594 290 535 300 490 300 c 0x13
 454 300 418 290 404 268 c 0
 391 248 377 192 377 160 c 0
90 285 m 0
 90 280 95 277 106 277 c 0
 120 277 192 284 198 290 c 0
 201 293 202 298 202 302 c 0
 202 306 200 314 196 324 c 0
 190 339 169 349 152 349 c 256x07
 139 349 128 338 120 329 c 0
 112 321 90 299 90 285 c 0
EndSplineSet
LCarets2: 2 305 584
Ligature2: "three-element ligatures in Latin" e t u
EndChar

StartChar: e_a
Encoding: 65570 -1 84
Width: 654
VWidth: 0
Flags: W
HStem: -13 39<542 629.05> 3 38<139.87 216.917 358.733 425.91> 316 37<416 495.5> 343 35<147.45 240.5>
VStem: 13 63<102.202 237.615>
AnchorPoint: "us ligature anchor" 255 391 baselig 0
AnchorPoint: "ligature below" 148 -24 baselig 0
AnchorPoint: "ligature anchor" 196 391 baselig 0
AnchorPoint: "us ligature anchor" 542 391 baselig 1
AnchorPoint: "ligature below" 448 -24 baselig 1
AnchorPoint: "ligature anchor" 482 391 baselig 1
LayerCount: 3
Fore
SplineSet
13 155 m 256x48
 13 226 46 305 89 334 c 0
 111 349 139 360 174 367 c 0
 209 374 229 378 234 378 c 256x58
 247 378 272 343 274 333 c 0
 279 311 312 310 340 310 c 0
 362 310 377 311 387 314 c 0
 397 317 414 324 438 336 c 0
 462 348 479 353 491 353 c 0
 500 353 508 348 518 338 c 0
 528 328 535 311 539 288 c 0
 543 265 547 224 551 163 c 0
 555 102 562 64 570 49 c 0
 578 34 595 26 621 26 c 3
 653 26 659 31 681 52 c 0
 694 64 703 70 708 70 c 0
 711 70 712 67 712 62 c 0
 712 57 704 49 687 38 c 0
 661 21 600 -13 560 -13 c 0
 524 -13 501 0 490 26 c 0xa8
 486 35 480 42 472 45 c 0
 469 46 466 47 464 47 c 3
 459 47 455 43 451 39 c 0
 445 33 438 28 430 24 c 0
 407 12 386 3 371 3 c 3
 347 3 324 18 310 33 c 0
 298 46 291 53 288 53 c 3
 285 53 279 52 270 48 c 2
 189 8 l 2
 180 4 167 2 150 1 c 0
 106 1 53 42 33 71 c 0
 20 91 13 119 13 155 c 256x48
76 211 m 256
 76 181 79 149 88 122 c 0
 101 85 147 41 198 41 c 0
 217 41 237 46 257 56 c 0
 284 69 289 73 291 89 c 0
 292 94 294 104 297 113 c 0
 303 133 314 140 330 147 c 0
 348 155 444 193 462 198 c 0
 468 200 470 203 470 209 c 3
 470 217 469 225 468 233 c 0
 463 271 458 297 438 310 c 0
 431 314 425 316 420 316 c 0x68
 412 316 401 313 388 306 c 8
 350 287 334 283 273 277 c 0
 238 274 191 266 132 254 c 0
 107 249 92 242 86 234 c 0
 80 226 76 219 76 211 c 256
354 99 m 3
 354 78 358 73 374 56 c 0
 385 45 397 40 407 40 c 0
 418 40 430 48 444 65 c 0
 458 82 466 94 469 101 c 0
 472 108 473 120 473 137 c 2
 474 165 l 1
 472 175 455 176 441 176 c 0
 437 176 433 176 430 176 c 0
 420 176 364 139 360 133 c 0
 355 125 354 111 354 99 c 3
94 290 m 0
 94 284 97 279 106 278 c 0
 107 278 107 278 108 278 c 0
 126 278 184 291 194 295 c 0
 202 298 206 302 206 306 c 0
 206 319 200 328 188 334 c 0
 176 340 169 343 167 343 c 3x18
 152 343 106 321 101 312 c 0
 98 307 94 297 94 290 c 0
EndSplineSet
Validated: 1
LCarets2: 1 302
Ligature2: "two-element ligature in Latin" e a
EndChar

StartChar: e_t
Encoding: 65571 -1 85
Width: 590
VWidth: 0
Flags: W
HStem: -26 42<403.5 505.904> -12 41<100.337 221.078> 279 47<276.406 343.993 392.135 600.607> 307 18<594.523 633.634> 337 23<130.28 208.5>
VStem: 11 69<92.6141 242.456>
AnchorPoint: "us ligature anchor" 215 391 baselig 0
AnchorPoint: "ligature below" 146 -24 baselig 0
AnchorPoint: "ligature anchor" 163 391 baselig 0
AnchorPoint: "us ligature anchor" 517 391 baselig 1
AnchorPoint: "ligature below" 430 -24 baselig 1
AnchorPoint: "ligature anchor" 467 391 baselig 1
LayerCount: 3
Fore
SplineSet
11 133 m 256x4c
 11 231 27 300 94 334 c 0
 128 351 165 360 202 360 c 0
 215 360 224 358 228 353 c 0
 232 348 238 340 245 327 c 2
 257 305 l 1
 326 310 l 2
 373 313 398 316 402 318 c 0
 415 323 444 326 490 326 c 0x6c
 536 326 566 325 578 324 c 0
 579 324 580 324 582 324 c 0
 590 324 602 325 612 325 c 0
 624 325 634 324 634 318 c 0
 634 313 629 310 619 307 c 0
 565 288 555 285 484 284 c 0
 432 283 398 282 388 248 c 0
 381.634037566 226.355727725 373 194 373 170 c 256
 373 147 377 105 382 86 c 0
 385 74 394 59 408 42 c 0
 422 25 440 16 462 16 c 256
 506 16 542 23 558 48 c 0
 565 59 570 65 574 65 c 0
 580 65 583 61 583 54 c 0
 583 47 577 40 566 30 c 0
 546 13 486 -19 452 -23 c 0
 435 -25 420 -26 409 -26 c 256x9c
 398 -26 388 -24 378 -18 c 0
 368 -12 354 2 338 25 c 0
 322 48 312 59 307 59 c 0
 302 59 295 55 285 48 c 0
 232 8 185 -12 144 -12 c 256
 59 -12 11 44 11 133 c 256x4c
96 286 m 256
 93 276 99 273 114 276 c 0
 129 279 145 282 161 284 c 0
 177 286 186 288 188 290 c 0
 190 292 192 297 192 306 c 256
 192 323 171 337 153 337 c 256
 129 337 103 307 96 286 c 256
80 178 m 259
 80 154 80.427734375 133.731445312 91 112 c 0
 109 75 114 67 146 46 c 0
 162.233398438 35.3466796875 179 29 200 29 c 259
 226 29 262 40 286 77 c 0
 313 118 310 155 324 206 c 0
 330 229 334 243 338 250 c 0
 342 257 344 262 344 265 c 0
 344 273 334 276 324 278 c 0
 320.899131635 278.620173673 316 279 308 279 c 0
 296 279 279.06046048 278.493022755 256 276 c 0
 219 272 187 266 154 258 c 0
 121.562910311 250.136463106 107.814453125 246.455078125 100 243 c 0
 80.091796875 234.196289062 80 212.520507812 80 178 c 259
EndSplineSet
LCarets2: 1 297
Ligature2: "two-element ligature in Latin" e t
EndChar

StartChar: j
Encoding: 106 106 90
Width: 207
VWidth: 0
Flags: W
HStem: -268 21G<62 70> 343 20G<112.5 129> 494 72<77.3689 144.909>
VStem: 58 53<-252.693 140.819> 68 71<172.446 351.032> 75 72<496.531 563.469>
AnchorPoint: "us anchor" 167 595 basechar 0
AnchorPoint: "std below anchor" 79 -291 basechar 0
AnchorPoint: "std above anchor" 104 586 basechar 0
LayerCount: 3
Fore
SplineSet
5 297 m 256xe8
 5 309 8 318 14 323 c 0
 20 328 34 336 56 347 c 0
 78 358 101 363 124 363 c 256
 134 363 139 356 139 343 c 0xe8
 139 326 137 306 132 282 c 0
 123 240 121 152 118 105 c 0
 115 59 110 -26 110 -76 c 0
 110 -96 111 -117 111 -138 c 0
 111 -184 108 -228 90 -252 c 0
 82 -262 74 -268 66 -268 c 0
 58 -268 53 -260 53 -245 c 0
 53 -215 58 -196 58 -168 c 0
 58 -134 58 -99 58 -63 c 0xf0
 58 44 68 154 68 252 c 0
 68 261 57 268 37 274 c 0
 16 280 5 288 5 297 c 256xe8
75 530 m 0xe4
 75 552 90 566 112 566 c 0
 134 566 147 552 147 530 c 0
 147 508 134 494 112 494 c 0
 90 494 75 508 75 530 c 0xe4
EndSplineSet
Validated: 1
Substitution2: "'ss07' Underdotted-1" uni006A0323
Substitution2: "Single subsitution no tag - 4-1" uni0237
Substitution2: "Single Substitution no tag-1" j.alt
Substitution2: "'titl' Titling caps from lc-1" J.titling
Substitution2: "'hist' Medievalize-1" dotlessi
Substitution2: "'smcp' Lowercase to Small Capitals in Latin lookup 8-1" j.sc
EndChar

StartChar: acute
Encoding: 180 180 91
Width: 337
VWidth: 0
Flags: W
HStem: 671 50<334.487 379.946>
VStem: 354 31<634.338 670.817>
LayerCount: 3
Fore
SplineSet
39 452 m 0
 39 455 40 457 41 459 c 0
 70 493 101 524 136 554 c 0
 171 584 218 619 276 660 c 0
 334 701 368 721 375 721 c 256
 382 721 385 712 385 694 c 0
 385 661 380 641 372 634 c 0
 365 628 361 625 358 625 c 0
 355 625 354 629 354 641 c 0
 354 661 348 671 336 671 c 256
 319 671 290 656 248 624 c 0
 206 592 161 555 113 513 c 0
 65 471 41 450 40 450 c 256
 39 450 39 451 39 452 c 0
EndSplineSet
Validated: 1
EndChar

StartChar: c_t
Encoding: 65572 -1 97
Width: 570
VWidth: 0
Flags: W
HStem: -16 46<132.352 226.689 372.91 464.954> 287 47<198.784 309.76> 309 48<392 620.375> 585 44<143.211 248.318>
VStem: 21 61<87.2937 248.185> 49 74<344.09 555.671> 68 81<309.411 416.384> 319 73<351.512 435>
AnchorPoint: "us ligature anchor" 220 391 baselig 0
AnchorPoint: "ligature below" 149 -24 baselig 0
AnchorPoint: "us ligature anchor" 498 391 baselig 1
AnchorPoint: "ligature below" 423 -24 baselig 1
AnchorPoint: "ligature below" 439 659 baselig 2
AnchorPoint: "ligature anchor" 210 659 baselig 2
LayerCount: 3
Fore
SplineSet
21 129 m 0xb9
 21 199 31 230 54 270 c 0
 63 286 68 304 68 323 c 0xb3
 68 342 64 378 58 428 c 0
 52 478 49 507 49 515 c 0xb5
 49 523 50 530 52 537 c 0
 54 544 63 555 80 571 c 0
 97 587 123 601 157 612 c 0
 191 623 215 629 229 629 c 256
 261 629 295 619 318 608 c 0
 371 583 378 524 384 447 c 2
 392 351 l 1
 427 353 l 2
 475 356 520 357 561 357 c 256
 614 357 640 354 640 349 c 256
 640 346 632 339 616 327 c 0
 600 315 588 309 580 309 c 256
 537 309 496 309 458 308 c 24
 420 307 396 298 385 283 c 0
 372 265 368 177 367 146 c 0
 366 123 366 105 366 94 c 256
 366 47 377 30 417 30 c 256
 463 30 513 50 538 70 c 0
 551 80 560 85 565 85 c 0
 570 85 573 82 573 76 c 256
 573 70 565 61 548 48 c 0
 520 27 428 -16 379 -16 c 256
 341 -16 311 -10 308 20 c 0
 307 33 302 39 293 39 c 0
 284 39 274 34 263 25 c 0
 252 16 233 7 206 -1 c 0
 179 -9 159 -13 146 -13 c 256
 105 -13 71 5 50 28 c 0
 28 51 21 89 21 129 c 0xb9
82 192 m 0xb9
 82 124 100 68 146 42 c 0
 166 31 185 26 203 26 c 0
 229 26 252 34 272 50 c 0
 292 66 306 113 311 190 c 2
 318 287 l 1
 253 287 l 2
 210 287 188 289 187 294 c 0
 187 318 245 334 272 334 c 0
 292 334 305 336 310 340 c 0
 316 347 319 371 319 411 c 0
 319 490 289 548 236 570 c 0
 212 580 195 585 182 585 c 256
 155 585 139 569 130 550 c 0
 125 539 123 523 123 501 c 0xd5
 123 457 126 421 131 382 c 0
 134 363 137 352 142 347 c 0
 147 342 149 338 149 333 c 0xd3
 149 328 142 320 127 309 c 0
 96 285 82 241 82 192 c 0xb9
EndSplineSet
Validated: 1
Ligature2: "'hlig' Two-element Historic Ligatures" c t
LCarets2: 1 283
EndChar

StartChar: dcroat
Encoding: 273 273 98
Width: 442
VWidth: 0
Flags: W
HStem: -19 35<328 425.378> -6 37<160.128 247.757> -4 22<422.282 439.633> 332 36<172.21 291.717> 620 20G<367.5 379 652.5 678>
VStem: 28 68<88.2585 238.779> 281 141<541.416 621.352> 310 68<-2 34 69.3945 287> 325 74<361.294 447.715> 641 87<546.5 617.438>
LayerCount: 3
Fore
SplineSet
28 145 m 256x5d40
 28 201 34 213 62 260 c 0
 79 289 94 310 108 321 c 0
 135 343 220 368 271 368 c 256
 283 368 301 361 313 361 c 3
 321 361 325 367 325 376 c 3x5cc0
 325 435 314 528 293 565 c 0
 285 578 281 588 281 595 c 0
 281 609 294 620 320 628 c 0
 346 636 363 640 372 640 c 0
 386 640 405 637 415 631 c 0
 419 629 422 626 422 620 c 3x5e40
 422 616 420 610 416 603 c 0
 410 592 406 573 403 544 c 0
 400 515 399 498 399 494 c 3x5cc0
 399 484 405 479 418 479 c 0
 457 479 513 491 586 514 c 0
 622 525 640 539 641 554 c 0
 641 562 635 570 624 580 c 0
 613 590 608 599 608 608 c 0
 608 628 642 648 663 648 c 256
 693 648 728 626 728 601 c 0
 728 580 713 561 684 543 c 0
 607 495 535 468 470 461 c 0
 439 458 420 454 410 448 c 0
 400 442 395 431 394 414 c 0
 389 296 383 283 380 145 c 2
 378 34 l 1x5d40
 391 22 406 16 422 16 c 0x9e40
 428 16 435 16 441 18 c 0
 447 19 450 19 450 17 c 0
 450 13 440 6 421 -4 c 0x3e40
 402 -14 374 -19 337 -19 c 0x9e40
 319 -19 310 -16 310 -2 c 0
 310 2 311 6 312 11 c 0
 316 28 314 36 307 36 c 0
 300 36 285 30 262 19 c 0
 239 8 223 1 213 -2 c 0
 203 -5 193 -6 183 -6 c 256
 126 -6 87 3 65 21 c 0
 43 39 32 60 30 84 c 0
 28 108 28 128 28 145 c 256x5d40
96 192 m 256
 96 181 98 163 101 139 c 0
 108 90 130 64 167 45 c 0
 186 36 206 31 227 31 c 256
 281 31 297 77 306 129 c 0
 312 161 314 189 314 212 c 0
 314 261 289 296 258 316 c 0
 241 327 226 332 214 332 c 256
 175 332 142 307 113 256 c 0
 102 235 96 213 96 192 c 256
EndSplineSet
Validated: 1
LCarets2: 1 0
Ligature2: "'ccmp' Medieval combos-1" d uni0304
EndChar

StartChar: e_x
Encoding: 65573 -1 99
Width: 735
VWidth: 0
Flags: W
HStem: -185 56<37.5 139> -19 42<127.326 238.364> -13 45<557.5 650.381> 313 45<564.535 638> 340 39<125.759 235>
VStem: 14 68<79.5432 225.935> 423 90<133.828 246.059>
AnchorPoint: "us ligature anchor" 242 391 baselig 0
AnchorPoint: "ligature below" 78 14 baselig 0
AnchorPoint: "ligature anchor" 201 391 baselig 0
AnchorPoint: "us ligature anchor" 587 391 baselig 1
AnchorPoint: "ligature below" 454 -24 baselig 1
AnchorPoint: "ligature anchor" 510 391 baselig 1
LayerCount: 3
Fore
SplineSet
14 165 m 0xc6
 14 236 28 288 56 319 c 0
 69 333 93 348 129 361 c 0
 180 379 182 379 219 379 c 259xce
 251 379 264 371 271 342 c 0
 275 325 280 318 289 318 c 0
 295 318 302 321 311 327 c 0
 328 338 366 358 389 358 c 256
 412 358 434 327 444 310 c 0
 450 299 470 266 486 266 c 3
 497 266 503 277 511 291 c 0
 527 320 592 357 630 358 c 0
 646 358 678 330 683 320 c 0
 685 315 685 308 683 298 c 0
 681 288 673 279 657 270 c 0
 641 261 631 257 626 257 c 0
 623 257 622 260 622 267 c 0
 622 279 590 313 578 313 c 0
 564 313 524 261 519 250 c 0
 515 240 513 226 513 206 c 0
 513 168 530 126 543 102 c 0
 550 90 561 75 578 58 c 0
 595 41 612 32 629 32 c 256
 675 32 703 64 724 88 c 0
 734 100 741 105 745 105 c 256
 747 105 748 104 748 102 c 256
 748 100 748 98 746 95 c 0
 726 60 667 12 628 -2 c 0
 608 -9 588 -13 569 -13 c 256xb6
 546 -13 535 -9 520 7 c 0
 510 18 503 28 499 36 c 2
 470 89 l 2
 455 116 446 129 443 129 c 0
 439 129 436 126 433 122 c 0
 430 118 409 93 372 48 c 0
 309 -29 315 -18 265 -65 c 0
 249 -80 236 -92 224 -100 c 0
 190 -124 199 -122 150 -146 c 0
 123 -159 100 -170 79 -176 c 0
 58 -182 45 -185 40 -185 c 0
 35 -185 32 -184 32 -182 c 0
 32 -175 47 -156 79 -127 c 0
 111 -98 130 -83 137 -83 c 3
 139 -83 141 -84 141 -85 c 3
 141 -88 136 -93 127 -100 c 0
 113 -111 105 -119 105 -123 c 0
 105 -127 111 -129 123 -129 c 0
 155 -129 185 -116 213 -92 c 0
 269 -43 324 14 367 77 c 0
 389 109 403 134 411 154 c 0
 419 174 423 187 423 193 c 0
 423 199 421 206 419 213 c 0
 417 220 411 232 400 248 c 0
 389 264 384 273 383 276 c 0
 381 282 366 296 357 296 c 0
 352 296 340 293 321 287 c 0
 287 276 236 271 203 260 c 0
 168 248 141 247 108 230 c 0
 91 221 82 205 82 182 c 0
 82 161 87 134 97 100 c 0
 107 66 119 45 133 36 c 0
 147 27 169 23 197 23 c 0
 252 23 283 47 305 79 c 0
 312 89 323 103 330 103 c 0
 333 103 335 101 335 94 c 0
 335 79 276 21 267 15 c 0
 240 -2 176 -19 130 -19 c 0
 102 -19 65 4 53 20 c 0
 41 37 16 102 15 131 c 0
 14 147 14 158 14 165 c 0xc6
88 270 m 0
 89 264 96 261 109 261 c 0
 122 261 148 267 188 280 c 0
 201 284 207 290 207 300 c 0
 207 323 193 340 167 340 c 0
 134 340 111 328 96 303 c 0
 89 291 88 286 88 277 c 0
 88 275 88 273 88 270 c 0
EndSplineSet
LCarets2: 1 332
Ligature2: "two-element ligature in Latin" e x
EndChar

StartChar: g.alt1
Encoding: 65574 -1 100
Width: 424
VWidth: 0
Flags: W
HStem: -392 55<17.224 224.404> -299 20G<86 87.5> 261 80<397.362 491> 278 38<350.094 462.786> 322 41<176.854 231.237>
VStem: 30 68<100.006 241.55> 283 71<148.923 268.112> 396 68<-221.15 -113.347>
AnchorPoint: "std below anchor" 183 -409 basechar 0
AnchorPoint: "us anchor" 325 439 basechar 0
AnchorPoint: "std above anchor" 227 439 basechar 0
LayerCount: 3
Fore
SplineSet
-29 -370 m 256xd7
 -29 -361 -14 -346 17 -327 c 0
 55 -303 62 -299 74 -288 c 0
 76 -287 85 -279 87 -279 c 3
 88 -279 89 -280 89 -281 c 3
 89 -283 82 -290 80 -292 c 0
 66 -306 58 -316 58 -321 c 0
 58 -332 89 -336 137 -337 c 256
 198 -337 239 -334 259 -328 c 0
 294 -317 368 -273 384 -244 c 0
 392 -229 396 -209 396 -182 c 256
 396 -147 384 -119 360 -98 c 0
 336 -77 302 -59 256 -44 c 0
 210 -29 181 -17 168 -10 c 0
 155 -3 151 4 156 12 c 0
 159 18 161 22 161 25 c 0
 161 31 152 31 134 31 c 0
 65 31 30 72 30 155 c 256
 30 210 53 252 80 282 c 0
 113 319 135 329 192 348 c 0
 222 358 242 363 249 363 c 0
 260 363 260 363 266 363 c 0
 284 363 290 355 300 338 c 0
 307 325 312 319 317 318 c 0
 323 317 331 316 341 316 c 0xdf
 373 316 420 321 434 326 c 0
 451 331 466 336 476 339 c 0
 480 340 483 341 485 341 c 3
 489 341 491 339 491 336 c 2
 491 311 l 17
 500 292 505 276 508 261 c 1xe7
 506 261 499 261 478 266 c 0
 457 271 425 278 396 278 c 0
 382 278 368 276 358 272 c 0
 355 271 352 269 350 266 c 1
 353 255 354 247 354 240 c 256
 354 206 349 180 340 162 c 0
 323 129 285 86 258 64 c 0
 245 53 238 45 238 40 c 0
 238 35 244 30 254 24 c 0
 264 18 280 12 302 7 c 0
 351 -5 403 -21 436 -52 c 0
 454 -69 464 -99 464 -142 c 256
 464 -181 452 -214 427 -241 c 0
 402 -268 374 -291 341 -310 c 0
 308 -329 280 -345 257 -357 c 0
 234 -369 202 -378 161 -384 c 0
 120 -390 90 -392 69 -392 c 256
 4 -392 -29 -385 -29 -370 c 256xd7
98 186 m 0
 98 153 104 126 115 107 c 0
 126 88 135 76 142 72 c 0
 149 68 157 67 166 67 c 256
 183 67 216 68 227 74 c 0
 244 83 269 121 276 143 c 0
 281 158 283 173 283 190 c 256
 283 245 263 281 228 304 c 0
 209 316 195 322 186 322 c 256
 144 322 123 290 110 256 c 0
 102 235 98 211 98 186 c 0
EndSplineSet
Validated: 1
EndChar

StartChar: g.alt2
Encoding: 65575 -1 101
Width: 416
VWidth: 0
LigCaretCntFixed: 1
Flags: W
HStem: -392 55<17.224 222.139> -299 20G<86 87.5> 303 38<348.633 517.552> 322 41<176.854 231.149> 348 12<563.257 592>
VStem: 30 68<100.323 241.611> 283 65<137.842 270.4> 396 68<-221.15 -113.347>
AnchorPoint: "std below anchor" 185 -418 basechar 0
AnchorPoint: "us anchor" 309 439 basechar 0
AnchorPoint: "std above anchor" 229 439 basechar 0
LayerCount: 3
Fore
SplineSet
-29 -370 m 0xef
 -29 -361 -14 -346 17 -327 c 0
 55 -303 62 -299 74 -288 c 0
 76 -287 85 -279 87 -279 c 3
 88 -279 89 -280 89 -281 c 3
 89 -283 82 -290 80 -292 c 0
 66 -306 58 -316 58 -321 c 0
 58 -331 89 -337 137 -337 c 0
 198 -337 239 -334 259 -328 c 0
 294 -317 368 -273 384 -244 c 0
 392 -229 396 -209 396 -182 c 0
 396 -147 384 -119 360 -98 c 0
 336 -77 302 -59 256 -44 c 0
 210 -29 181 -17 168 -10 c 0
 155 -3 151 4 156 12 c 0
 159 18 161 22 161 25 c 0
 161 31 152 31 134 31 c 0
 65 31 30 72 30 155 c 0
 30 210 53 252 80 282 c 0
 113 319 135 329 192 348 c 0xef
 222 358 242 363 249 363 c 0
 260 363 260 363 266 363 c 0xd7
 288 363 305 342 325 340 c 0
 329 340 333 339 337 339 c 3
 352 339 360 341 379 341 c 3
 392 341 414 340 434 340 c 3
 472 340 525 346 593 360 c 1
 592 348 l 1
 591 348 590 348 589 348 c 0
 559 348 527 332 495 301 c 1
 459 303 439 303 423 303 c 0
 407 303 396 302 374 298 c 0
 359 296 348 293 348 279 c 0
 348 276 348 273 350 268 c 0
 353 259 354 249 354 240 c 0
 354 171 335 145 302 108 c 0
 286 90 271 75 258 64 c 0
 245 53 238 45 238 40 c 0
 238 35 244 30 254 24 c 0
 264 18 280 12 302 7 c 0
 351 -5 403 -21 436 -52 c 0
 454 -69 464 -99 464 -142 c 0
 464 -181 452 -214 427 -241 c 0
 402 -268 374 -291 341 -310 c 0
 308 -329 280 -344 257 -356 c 0
 234 -368 202 -378 162 -384 c 0
 122 -390 90 -392 69 -392 c 0
 4 -392 -29 -385 -29 -370 c 0xef
98 187 m 0
 98 154 104 128 115 108 c 0
 126 88 135 76 142 72 c 0
 149 68 158 67 166 67 c 0
 183 67 216 68 227 74 c 0
 244 83 269 121 276 142 c 0
 281 156 283 172 283 189 c 0
 283 244 262 281 228 304 c 0
 210 316 195 322 186 322 c 0xd7
 144 322 123 290 110 256 c 0
 102 235 98 212 98 187 c 0
EndSplineSet
Validated: 1
EndChar

StartChar: t_u
Encoding: 65576 -1 102
Width: 693
VWidth: 0
Flags: W
HStem: -9 49<370.073 473.611> -9 35<160.501 259.853 577.352 655.315> 286 46<6.84974 84.9883> 295 53<128.405 306.665> 343 20G<396 409.5>
VStem: 85 25<171 283> 303 67<52.8364 247.202> 506 138<284.21 340.383>
AnchorPoint: "us ligature anchor" 258 391 baselig 0
AnchorPoint: "ligature below" 174 -24 baselig 0
AnchorPoint: "ligature anchor" 211 391 baselig 0
AnchorPoint: "us ligature anchor" 571 391 baselig 1
AnchorPoint: "ligature below" 459 -24 baselig 1
AnchorPoint: "ligature anchor" 467 391 baselig 1
LayerCount: 3
Fore
SplineSet
-9 294 m 0x67
 -9 300 1 308 20 317 c 0
 39 326 64 332 96 332 c 0x67
 128 332 152 335 164 340 c 0
 176 345 184 348 187 348 c 0x17
 190 348 193 347 194 345 c 0
 195 344 200 343 210 343 c 3x0f
 245 343 280 343 316 344 c 0
 327 344 334 346 338 348 c 0x17
 368 359 388 363 404 363 c 0
 415 363 428 363 428 355 c 3
 428 352 425 347 419 340 c 0
 413 333 408 324 406 314 c 0
 404 304 397 286 386 258 c 0
 375 230 370 191 370 141 c 0
 370 100 379 59 401 44 c 0
 410 38 426 34 447 34 c 0
 474 34 495 38 510 48 c 0
 539 67 542 73 546 116 c 8
 551 178 553 203 557 266 c 1
 544 272 506 295 506 312 c 0
 506 339 562 357 587 365 c 0
 607 371 626 374 637 374 c 0
 642 374 644 370 644 360 c 0
 644 350 639 323 629 278 c 0
 614 211 607 122 607 58 c 0
 607 42 621 26 636 26 c 0x4f
 643 26 662 29 677 35 c 0
 686 39 693 40 699 40 c 3x87
 701 40 702 40 702 38 c 3
 702 33 690 26 686 24 c 0
 653 4 614 -9 568 -9 c 0
 544 -9 539 -9 535 6 c 0
 533 16 530 24 518 24 c 0
 515 24 508 24 501 22 c 0
 494 20 481 16 458 7 c 0
 435 -2 409 -6 381 -6 c 0
 354 -6 329 4 317 20 c 0
 310 29 308 35 308 39 c 1
 286 11 223 -8 169 -8 c 0
 152 -8 133 -5 110 -0 c 0
 87 5 68 16 56 36 c 0
 41 60 36 81 36 107 c 0
 36 127 39 150 43 179 c 0
 48 214 56 240 68 256 c 0
 80 272 85 281 85 283 c 0
 85 285 69 286 38 286 c 0
 7 286 -9 288 -9 294 c 0x67
110 171 m 0
 110 69 152 30 243 30 c 0
 274 30 288 43 303 65 c 1
 303 101 303 101 303 115 c 0
 303 149 306 176 311 196 c 0
 315 213 319 231 319 248 c 0
 319 262 316 274 307 283 c 0
 300 290 283 294 257 295 c 0x17
 184 295 142 288 129 274 c 0
 116 260 110 226 110 171 c 0
EndSplineSet
Validated: 1
LCarets2: 1 293
Ligature2: "two-element ligature in Latin" t u
EndChar

StartChar: f_u
Encoding: 65577 -1 103
Width: 679
VWidth: 0
Flags: W
HStem: -9 35<542.5 642.325> 287 36<151.314 305.662> 343 20G<377 391.5> 600 38<153 264.5>
VStem: 72 60<341.5 554.79> 89 68<-120.392 253.558> 289 67<53.7296 267.166> 492 138<286.227 339.8>
AnchorPoint: "us ligature anchor" 252 391 baselig 0
AnchorPoint: "ligature below" 186 -54 baselig 0
AnchorPoint: "ligature anchor" 220 659 baselig 0
AnchorPoint: "us ligature anchor" 562 391 baselig 1
AnchorPoint: "ligature below" 453 -24 baselig 1
AnchorPoint: "ligature anchor" 469 391 baselig 1
LayerCount: 3
Fore
SplineSet
18 300 m 256xfb
 18 309 22 318 30 325 c 2
 57 347 l 2
 67 356 72 370 72 390 c 24
 72 454 74 496 78 515 c 0
 82 534 90 552 104 570 c 0
 141 617 161 638 247 638 c 256
 282 638 305 633 316 622 c 0
 327 611 332 604 331 600 c 0
 330 596 323 587 309 574 c 0
 295 561 283 554 272 554 c 0
 261 554 250 562 240 577 c 0
 230 592 214 600 191 600 c 256
 168 600 152 590 144 570 c 0
 136 550 132 511 132 454 c 0xfb
 132 397 137 361 147 346 c 0
 157 331 179 323 214 323 c 0
 249 323 286 331 325 348 c 16
 348 358 368 363 386 363 c 0
 397 363 415 362 415 355 c 3
 415 352 412 347 406 340 c 0
 400 333 394 324 392 314 c 0
 390 304 383 286 372 258 c 0
 361 230 356 191 356 141 c 256
 356 100 366 59 388 44 c 0
 397 38 412 34 434 34 c 256
 462 34 484 38 498 48 c 0
 526 67 529 73 532 114 c 0
 536 174 540 203 544 266 c 1
 531 272 492 295 492 312 c 0
 492 339 549 358 574 366 c 0
 594 372 612 374 623 374 c 0
 628 374 630 370 630 360 c 0
 630 350 625 323 615 278 c 0
 602 222 593 134 593 81 c 256
 593 54 597 26 623 26 c 256
 635 26 677 36 684 41 c 0
 685 42 688 39 688 37 c 0
 688 36 687 34 685 33 c 0
 648 5 604 -9 554 -9 c 0
 531 -9 525 -9 522 6 c 0
 520 16 516 24 504 24 c 256
 501 24 497 23 490 22 c 0
 483 21 467 16 444 7 c 0
 421 -2 396 -6 368 -6 c 256
 330 -6 303 11 293 38 c 0
 290 46 289 72 289 115 c 256
 289 168 293 205 300 226 c 0
 306 243 310 254 310 262 c 0
 310 266 309 270 306 273 c 0
 299 284 278 287 255 287 c 0
 234 287 212 284 197 282 c 2
 149 273 l 1
 152 131 l 2
 153 37 155 -18 156 -35 c 0
 157 -51 157 -60 157 -63 c 0xf7
 157 -89 148 -109 132 -124 c 0xfb
 116 -139 106 -147 102 -147 c 0
 98 -147 96 -146 95 -144 c 0
 94 -142 92 -90 89 13 c 2xf7
 84 141 l 2
 81 208 78 245 72 254 c 0
 66 263 58 268 48 270 c 0
 31 273 18 281 18 300 c 256xfb
EndSplineSet
Validated: 1
LCarets2: 1 287
Ligature2: "two-element ligature in Latin" f u
EndChar

StartChar: e_r_i
Encoding: 65578 -1 104
Width: 704
VWidth: 0
LigCaretCntFixed: 1
Flags: W
HStem: -22 21G<321.5 332.5> -1 41<137.28 240.859 638.516 678.365> 13 27<638.887 693.5> 276 28<242.625 280.824> 290 76<429.198 488.812> 337 36<106.242 189.612> 489 71<597.516 663.328>
VStem: 13 69<111.221 235.128> 202 41<304.003 326.713> 318 51<23.585 56.9467> 571 67<29 175.847> 580 61<29.4185 288.785> 595 71<491.672 557.484>
AnchorPoint: "us ligature anchor" 221 391 baselig 0
AnchorPoint: "ligature below" 148 -24 baselig 0
AnchorPoint: "ligature anchor" 164 391 baselig 0
AnchorPoint: "us ligature anchor" 472 391 baselig 1
AnchorPoint: "ligature below" 418 -24 baselig 1
AnchorPoint: "ligature anchor" 423 391 baselig 1
AnchorPoint: "us ligature anchor" 696 391 baselig 2
AnchorPoint: "ligature below" 618 -24 baselig 2
AnchorPoint: "ligature anchor" 631 586 baselig 2
LayerCount: 3
Fore
SplineSet
13 173 m 0x43d0
 13 200 17 226 25 252 c 0
 50 333 96 373 182 373 c 0
 194 373 208 370 222 363 c 0
 236 356 243 346 243 332 c 0
 243 326 242 319 242 314 c 0
 242 308 243 304 250 304 c 0x57d0
 258 304 274 312 298 329 c 0
 322 346 341 354 352 354 c 0
 362 354 367 346 367 330 c 0
 367 314 373 307 386 307 c 0
 393 307 400 311 407 320 c 0
 430 347 446 361 456 361 c 0
 466 361 477 356 488 345 c 2
 514 320 l 1
 562 343 l 2
 593 358 613 366 622 366 c 0
 631 366 637 361 639 352 c 0
 641 343 642 319 642 282 c 0
 642 245 642 205 641 164 c 2x0bd0
 638 29 l 1
 671 37 l 2
 682 40 690 40 696 40 c 0
 702 40 704 38 704 36 c 0
 704 31 690 23 662 13 c 0
 634 3 613 -2 598 -2 c 0
 574 -2 571 -2 571 16 c 0x2be0
 571 22 572 35 574 53 c 0
 578 90 580 132 580 178 c 0
 580 224 580 254 579 266 c 0
 578 289 571 290 551 290 c 0
 548 290 545 290 541 290 c 2
 484 289 l 2
 462 289 449 290 445 292 c 0
 441 294 438 294 437 294 c 0
 426 294 415 282 404 257 c 0
 393 232 386 200 382 159 c 0
 378 118 374 92 372 80 c 0
 370 68 369 60 369 54 c 0
 369 33 378 23 396 23 c 0
 399 23 404 23 410 25 c 0
 413 26 415 26 416 26 c 0
 418 26 419 26 419 25 c 0
 419 23 412 18 397 9 c 2
 388 4 l 2
 357 -13 337 -22 328 -22 c 0xabd0
 315 -22 308 -18 308 -9 c 0
 308 -5 309 0 312 7 c 0
 317 19 318 28 318 34 c 0
 318 43 313 60 304 60 c 0
 303 60 l 0
 300 60 294 56 286 49 c 0
 248 16 203 -1 150 -1 c 0
 57 -1 13 74 13 173 c 0x43d0
595 525 m 0x03c8
 595 546 609 560 630 560 c 0
 651 560 666 546 666 525 c 0
 666 504 651 489 630 489 c 0
 609 489 595 504 595 525 c 0x03c8
82 205 m 0
 82 160 104 99 125 74 c 0
 150 44 154 40 208 40 c 256
 234 40 249 46 262 58 c 0
 282 76 285 82 297 98 c 0
 300 102 304 116 312 142 c 0
 320 168 324 195 324 222 c 256
 324 263 312 276 274 276 c 256x53c0
 261 276 232 271 188 261 c 0
 144 251 119 242 103 235 c 0
 87 228 82 218 82 205 c 0
93 288 m 256
 93 279 98 274 109 274 c 256
 129 274 202 279 202 297 c 0
 202 303 197 312 187 322 c 0
 177 332 164 337 149 337 c 256x07c0
 118 337 93 315 93 288 c 256
EndSplineSet
Ligature2: "three-element ligatures in Latin" e r i
LCarets2: 2 305 543
EndChar

StartChar: e_r_dotlessi
Encoding: 65579 -1 105
Width: 704
VWidth: 0
Flags: W
HStem: -22 21G<321.5 332.5> -1 41<137.28 240.859 638.516 678.365> 13 27<638.887 693.5> 276 28<242.625 280.824> 290 76<429.198 488.812> 337 36<106.242 189.612>
VStem: 13 69<111.221 235.128> 202 41<304.003 326.713> 318 51<23.585 56.9467> 571 67<29 175.847> 580 61<29.4185 288.785>
AnchorPoint: "us ligature anchor" 221 391 baselig 0
AnchorPoint: "ligature below" 148 -24 baselig 0
AnchorPoint: "ligature anchor" 164 391 baselig 0
AnchorPoint: "us ligature anchor" 472 391 baselig 1
AnchorPoint: "ligature below" 418 -24 baselig 1
AnchorPoint: "ligature anchor" 423 391 baselig 1
AnchorPoint: "us ligature anchor" 696 391 baselig 2
AnchorPoint: "ligature below" 618 -24 baselig 2
AnchorPoint: "ligature anchor" 631 586 baselig 2
LayerCount: 3
Fore
SplineSet
13 173 m 0x43a0
 13 200 17 226 25 252 c 0
 50 333 96 373 182 373 c 0
 194 373 208 370 222 363 c 0
 236 356 243 346 243 332 c 0
 243 326 242 319 242 314 c 0
 242 308 243 304 250 304 c 0x57a0
 258 304 274 312 298 329 c 0
 322 346 341 354 352 354 c 0
 362 354 367 346 367 330 c 0
 367 314 373 307 386 307 c 0
 393 307 400 311 407 320 c 0
 430 347 446 361 456 361 c 0
 466 361 477 356 488 345 c 2
 514 320 l 1
 562 343 l 2
 593 358 613 366 622 366 c 0
 631 366 637 361 639 352 c 0
 641 343 642 319 642 282 c 0
 642 245 642 205 641 164 c 2x0ba0
 638 29 l 1
 671 37 l 2
 682 40 690 40 696 40 c 0
 702 40 704 38 704 36 c 0
 704 31 690 23 662 13 c 0
 634 3 613 -2 598 -2 c 0
 574 -2 571 -2 571 16 c 0x2bc0
 571 22 572 35 574 53 c 0
 578 90 580 132 580 178 c 0
 580 224 580 254 579 266 c 0
 578 289 571 290 551 290 c 0
 548 290 545 290 541 290 c 2
 484 289 l 2
 462 289 449 290 445 292 c 0
 441 294 438 294 437 294 c 0
 426 294 415 282 404 257 c 0
 393 232 386 200 382 159 c 0
 378 118 374 92 372 80 c 0
 370 68 369 60 369 54 c 0
 369 33 378 23 396 23 c 0
 399 23 404 23 410 25 c 0
 413 26 415 26 416 26 c 0
 418 26 419 26 419 25 c 0
 419 23 412 18 397 9 c 2
 388 4 l 2
 357 -13 337 -22 328 -22 c 0xaba0
 315 -22 308 -18 308 -9 c 0
 308 -5 309 0 312 7 c 0
 317 19 318 28 318 34 c 0
 318 43 313 60 304 60 c 0
 303 60 l 0
 300 60 294 56 286 49 c 0
 248 16 203 -1 150 -1 c 0
 57 -1 13 74 13 173 c 0x43a0
82 205 m 0
 82 160 104 99 125 74 c 0
 150 44 154 40 208 40 c 256
 234 40 249 46 262 58 c 0
 282 76 285 82 297 98 c 0
 300 102 304 116 312 142 c 0
 320 168 324 195 324 222 c 256
 324 263 312 276 274 276 c 256
 261 276 232 271 188 261 c 0
 144 251 119 242 103 235 c 0
 87 228 82 218 82 205 c 0
93 288 m 256
 93 279 98 274 109 274 c 256
 129 274 202 279 202 297 c 0
 202 303 197 312 187 322 c 0
 177 332 164 337 149 337 c 256
 118 337 93 315 93 288 c 256
EndSplineSet
LCarets2: 2 302 554
Ligature2: "three-element ligatures in Latin" e r dotlessi
EndChar

StartChar: r_m
Encoding: 65580 -1 106
Width: 967
VWidth: 0
GlyphClass: 3
Flags: W
HStem: -36 41G<64 74.5 810 828.5> -1 39<381 464> 263 78<21.8672 76.522> 296 31<287.199 377.817> 306 57<204.17 271.777> 312 41<749.893 841>
VStem: 56 74<-20.7273 234.219> 367 70<10.575 238.712> 606 56<32.125 248.53> 840 73<70.0415 277.151>
AnchorPoint: "us ligature anchor" 229 391 baselig 0
AnchorPoint: "ligature below" 176 -24 baselig 0
AnchorPoint: "ligature anchor" 176 391 baselig 0
AnchorPoint: "us ligature anchor" 844 391 baselig 1
AnchorPoint: "ligature below" 634 -24 baselig 1
AnchorPoint: "ligature anchor" 662 391 baselig 1
LayerCount: 3
Fore
SplineSet
11 302 m 0xa3c0
 11 306 13 311 18 316 c 0
 23 321 38 330 63 341 c 0xa3c0
 88 352 108 358 121 358 c 0
 150 358 151 355 151 324 c 0
 151 308 154 299 158 299 c 0
 162 299 174 308 193 326 c 0
 212 344 227 355 236 358 c 0
 245 361 251 363 256 363 c 0x0bc0
 261 363 271 357 284 345 c 0
 297 333 311 327 325 327 c 0x13c0
 338 327 357 333 384 345 c 0
 411 357 429 363 437 363 c 256x0bc0
 444 363 450 357 456 345 c 0
 462 333 469 327 476 327 c 0x13c0
 483 327 500 332 530 343 c 0
 560 354 583 359 599 359 c 0
 615 359 628 357 636 352 c 0
 644 347 654 334 667 313 c 1
 678 298 l 1
 735 326 l 2
 766 341 788 348 799 350 c 0
 810 352 821 353 830 353 c 0
 852 353 885 327 893 312 c 0
 902 296 913 240 913 214 c 0
 913 201 910 173 902 132 c 0
 894 91 890 66 890 57 c 0
 890 37 892 31 910 31 c 3
 925 31 945 33 953 33 c 3
 960 33 964 31 964 28 c 0
 964 25 954 20 936 12 c 0
 915 3 842 -16 815 -16 c 0
 805 -16 802 -15 802 -11 c 0
 802 -7 805 -2 810 6 c 0
 823 27 828 99 834 128 c 0
 838 146 840 161 840 174 c 0
 840 221 833 255 818 278 c 0
 803 301 787 312 770 312 c 0x07c0
 753 312 733 301 710 278 c 0
 681 249 678 246 675 219 c 0
 669 163 662 90 662 74 c 0
 662 47 667 35 691 30 c 2
 711 26 l 1
 681 12 l 2
 661 3 641 -3 620 -4 c 2
 590 -6 l 1
 592 34 l 2
 595 89 606 140 606 198 c 0
 606 243 586 319 545 319 c 0
 536 319 523 315 506 306 c 0x0bc0
 465 284 459 259 452 196 c 0
 448 160 445 132 442 113 c 0
 439 94 437 80 437 71 c 0
 437 48 446 38 464 38 c 0
 482 38 484 34 473 25 c 0
 455 12 410 -1 381 -1 c 0
 367 -1 367 3 367 18 c 0
 367 26 371 56 378 108 c 0
 385 160 389 203 389 236 c 0
 389 269 382 286 369 286 c 0
 359 286 352 288 349 291 c 0
 346 294 340 296 334 296 c 0
 328 296 317 294 302 291 c 0
 287 288 272 286 256 286 c 0
 240 286 229 289 220 296 c 0x53c0
 211 303 206 306 203 306 c 0x0bc0
 198 306 188 295 173 272 c 0
 158 249 149 232 147 221 c 0
 143 201 134 58 134 32 c 0
 134 11 132 -2 130 -6 c 0
 126 -14 81 -36 68 -36 c 256
 60 -36 56 -25 56 -4 c 0
 56 17 58 36 62 54 c 0
 66 72 70 112 73 174 c 2
 77 268 l 1
 57 264 l 2
 53 263 50 263 47 263 c 0
 35 263 29 270 20 282 c 0
 13 291 11 298 11 302 c 0xa3c0
EndSplineSet
Validated: 1
LCarets2: 1 327
Ligature2: "two-element ligature in Latin" r m
EndChar

StartChar: e_r_n
Encoding: 65581 -1 107
Width: 955
VWidth: 0
Flags: W
HStem: -8 21G<336.5 344.5 829 848> -1 50<622 704> -1 37<98.5 235.973> 267 92<475.646 536.438> 274 36<266.492 320.106> 337 30<134.11 220.5>
VStem: 13 67<70.9881 246.582> 621 67<109.639 273.719> 804 74<31.6684 135.154> 833 68<79.7644 295.874>
AnchorPoint: "us ligature anchor" 221 391 baselig 0
AnchorPoint: "ligature below" 139 -24 baselig 0
AnchorPoint: "ligature anchor" 182 391 baselig 0
AnchorPoint: "us ligature anchor" 490 391 baselig 1
AnchorPoint: "ligature below" 437 -24 baselig 1
AnchorPoint: "ligature anchor" 441 391 baselig 1
AnchorPoint: "us ligature anchor" 838 391 baselig 2
AnchorPoint: "ligature below" 743 -24 baselig 2
AnchorPoint: "ligature anchor" 750 391 baselig 2
LayerCount: 3
Fore
SplineSet
13 132 m 0x2b40
 13 200 19 239 44 280 c 0
 70 322 83 332 134 352 c 0
 160 362 188 367 218 367 c 256
 223 367 226 366 230 365 c 0
 235 363 272 324 272 316 c 0
 272 312 275 310 280 310 c 0x2f40
 285 310 294 314 308 322 c 0
 324 331 377 349 398 349 c 256
 413 349 414 344 416 322 c 0
 417 307 420 299 424 299 c 0
 428 299 438 307 456 324 c 0
 474 341 487 351 496 354 c 0
 505 357 512 359 515 359 c 0
 519 359 523 356 528 349 c 2
 558 308 l 1
 577 327 l 2
 591 341 632 361 657 361 c 0
 679 361 689 360 694 342 c 0
 697 332 703 327 714 327 c 0
 717 327 720 327 724 328 c 0
 760 334 778 355 822 355 c 0
 843 355 861 348 877 334 c 0
 893 320 901 290 901 245 c 0x1340
 901 203 888 129 880 88 c 0
 879 80 878 70 878 63 c 3
 878 42 890 36 907 28 c 0
 914 24 918 20 918 18 c 256
 918 14 910 9 894 2 c 0
 878 -5 859 -8 837 -8 c 0
 836 -8 836 -8 835 -8 c 0x9380
 823 -8 805 1 804 10 c 0
 804 13 806 21 810 36 c 0x2380
 816 57 833 183 833 212 c 0
 833 255 830 278 806 302 c 0
 793 316 780 323 768 323 c 0
 756 323 741 318 724 306 c 0
 707 294 696 286 693 281 c 0
 690 276 688 266 688 252 c 0
 688 238 685 221 680 200 c 0
 674 176 673 143 673 108 c 3
 673 71 675 49 704 49 c 0
 716 49 723 48 723 44 c 0
 723 40 717 34 704 25 c 0
 685 12 649 -1 622 -1 c 0
 615 -1 596 3 596 8 c 3
 596 10 596 16 599 26 c 0
 604 44 614 194 617 214 c 0
 620 233 621 246 621 254 c 0
 621 274 614 274 590 274 c 0x4b40
 575 274 558 273 539 270 c 0
 526 268 518 267 511 267 c 0x1340
 500 267 495 270 485 281 c 0
 479 287 474 291 469 291 c 3
 463 291 458 286 452 280 c 0
 438 266 419 241 416 232 c 0
 410 213 406 116 404 93 c 0
 402 74 401 59 401 48 c 0
 401 37 403 30 408 25 c 0
 411 22 412 19 412 17 c 0
 412 7 393 -2 377 -9 c 0
 358 -18 347 -20 342 -20 c 259
 331 -20 331 -16 331 0 c 1
 346 217 l 1
 346 253 334 251 316 266 c 0
 309 272 300 274 290 274 c 0
 280 274 247 271 192 264 c 0
 137 257 111 252 100 247 c 0
 81 238 80 234 80 210 c 0
 80 206 80 201 80 195 c 0
 80 134 85 96 95 80 c 0
 113 51 151 36 197 36 c 256
 244 36 276 50 293 79 c 0
 302 93 310 100 316 100 c 0
 322 100 325 98 325 93 c 0
 325 82 317 70 300 55 c 0
 259 18 199 -1 120 -1 c 256
 77 -1 41 23 26 54 c 0
 17 72 13 97 13 132 c 0x2b40
89 282 m 0
 89 275 92 272 99 273 c 0
 127 277 149 281 166 286 c 0
 183 291 191 296 191 303 c 0
 191 321 163 337 146 337 c 0
 118 337 89 308 89 282 c 0
EndSplineSet
LCarets2: 2 300 571
Ligature2: "three-element ligatures in Latin" e r n
EndChar

StartChar: uni1E8F.sc
Encoding: 65582 -1 108
Width: 427
VWidth: 0
LigCaretCntFixed: 1
Flags: W
HStem: -145 24<4.5 90.4489> 298 63<282.5 343.5> 307 57<57.5741 109.5> 523 107<248.283 290.763>
VStem: 214 103<533.051 615.365>
AnchorPoint: "std above anchor" 256 684 basechar 0
AnchorPoint: "std below anchor" 289 -49 basechar 0
AnchorPoint: "us anchor" 420 483 basechar 0
LayerCount: 3
Fore
SplineSet
-76 -87 m 256xd8
 -76 -82 -70 -74 -59 -62 c 0
 -48 -50 -37 -44 -27 -44 c 0
 -13 -44 0 -56 13 -82 c 16
 26 -108 40 -121 56 -121 c 0
 72 -121 92 -111 114 -92 c 0
 136 -73 151 -48 158 -16 c 0
 165 16 168 47 168 77 c 256
 168 156 144 218 110 267 c 8
 92 294 77 307 64 307 c 0
 58 307 49 300 37 285 c 0
 25 270 18 263 15 263 c 272
 14 263 13 264 13 267 c 0
 13 271 15 280 20 294 c 8
 25 308 36 323 55 340 c 16
 74 356 90 364 103 364 c 256xb8
 116 364 132 354 152 332 c 16
 172 310 183 293 187 281 c 0
 191 269 196 263 203 263 c 0
 210 263 218 269 228 280 c 8
 248 303 277 334 306 349 c 16
 322 357 331 361 336 361 c 256
 351 361 368 352 387 334 c 24
 406 316 416 298 416 281 c 256
 416 266 408 255 390 248 c 16
 376 243 366 240 359 240 c 0
 357 240 355 241 354 241 c 8
 348 243 338 252 322 269 c 24
 306 286 298 295 296 296 c 16
 294 297 291 298 287 298 c 0
 278 298 271 293 266 283 c 0
 261 273 256 254 250 226 c 8
 244 198 239 160 234 114 c 0
 229 68 226 36 222 21 c 24
 218 6 208 -16 192 -46 c 24
 160 -105 107 -145 16 -145 c 256
 -7 -145 -28 -142 -47 -134 c 8
 -66 -126 -76 -110 -76 -87 c 256xd8
214 578 m 0
 214 594 236 619 248 625 c 16
 254 628 262 630 270 630 c 0
 278 630 286 628 291 622 c 8
 295 617 302 605 309 586 c 16
 315 569 317 561 317 554 c 0
 317 547 312 542 298 534 c 0
 287 528 273 523 261 523 c 0
 254 523 246 525 240 529 c 0
 231 536 214 563 214 578 c 0
EndSplineSet
Validated: 1
EndChar

StartChar: e_u
Encoding: 65583 -1 109
Width: 662
VWidth: 0
Flags: W
HStem: -2 44<384.811 472.96 587.74 622.542> 275 76<270 377> 342 34<126.716 208> 346 20G<580 589.5>
VStem: 13 65<97.8146 230.937> 187 47<308.198 336.636> 318 45<121.255 271.597> 483 116<282.119 334.461> 528 58<79.4961 280.253>
AnchorPoint: "us ligature anchor" 215 391 baselig 0
AnchorPoint: "ligature below" 146 -24 baselig 0
AnchorPoint: "ligature anchor" 180 391 baselig 0
AnchorPoint: "us ligature anchor" 536 391 baselig 1
AnchorPoint: "ligature below" 441 -24 baselig 1
AnchorPoint: "ligature anchor" 453 391 baselig 1
LayerCount: 3
Fore
SplineSet
13 159 m 256x9e80
 13 211 25 254 48 288 c 0
 71 322 96 346 124 358 c 0
 152 370 176 376 195 376 c 0xae80
 221 376 234 363 234 337 c 0
 234 330 233 312 237 308 c 0
 240 306 250 306 266 310 c 0
 282 314 301 322 322 334 c 0
 343 346 360 351 373 351 c 0
 381 351 402 344 404 338 c 0
 405 335 401 327 394 314 c 0
 387 301 382 270 378 220 c 0
 374 170 371 140 368 130 c 0
 365 120 363 112 363 106 c 0
 363 71 400 46 437 46 c 0
 475 46 500 60 511 90 c 0
 522 120 528 166 528 227 c 0xce80
 528 251 521 269 506 281 c 0
 491 293 483 303 483 311 c 0xcf
 483 321 498 333 528 347 c 2xce80
 559 361 l 2
 568 364 576 366 584 366 c 0
 595 366 595 362 598 350 c 0
 599 348 599 344 599 338 c 0x9f
 599 322 597 291 593 245 c 0
 588 183 586 139 586 112 c 0
 586 105 586 98 586 92 c 0
 586 64 588 42 609 42 c 0
 611 42 633 48 646 48 c 0
 651 48 655 47 655 44 c 0
 655 23 563 -2 541 -2 c 0
 523 -2 514 5 514 19 c 0
 514 30 512 35 509 35 c 0
 505 35 492 29 470 18 c 0
 448 7 430 1 417 1 c 0
 380 1 345 8 320 25 c 0
 304 36 296 48 296 61 c 0
 296 66 294 68 291 68 c 0
 284 68 270 55 263 48 c 0
 240 27 194 -1 148 -1 c 0
 119 -1 94 9 72 28 c 0
 34 62 13 94 13 159 c 256x9e80
78 180 m 256
 78 121 92 100 127 68 c 0
 147 50 170 41 196 41 c 256
 217 41 237 50 254 68 c 0
 280 95 290 107 303 134 c 0
 310 148 311 165 315 182 c 0
 317 191 318 203 318 219 c 0
 318 253 311 275 282 275 c 0xce
 258 275 222 269 174 258 c 0
 126 247 98 236 90 228 c 0
 82 220 78 204 78 180 c 256
89 284 m 0
 89 275 91 270 96 270 c 0
 101 270 117 274 145 282 c 0
 173 290 187 301 187 312 c 0
 187 326 162 342 148 342 c 256xae
 126 342 116 331 103 314 c 0
 94 302 89 293 89 284 c 0
EndSplineSet
Validated: 1
LCarets2: 1 300
Ligature2: "two-element ligature in Latin" e u
EndChar

StartChar: uniA753
Encoding: 42835 42835 110
Width: 439
VWidth: 0
Flags: W
HStem: -340 65<-170.407 -99.7402> -278 21G<40.5 50> -111 30<-84.2736 34.329> -8 27<188.893 281.351> 328 37<202.744 288.961>
VStem: -232 61<-263.125 -184.827> 42 57<-235.859 -117.266> 61 57<82.6993 263.982> 343 69<98.39 245.932>
AnchorPoint: "std above anchor" 245 439 basechar 0
AnchorPoint: "std below anchor" 262 -49 basechar 0
AnchorPoint: "us anchor" 338 439 basechar 0
LayerCount: 3
Fore
SplineSet
-232 -247 m 0xbe80
 -232 -206 -206 -169 -156 -134 c 0
 -106 -99 -57 -81 -8 -81 c 0
 7 -81 20 -82 31 -83 c 0
 40 -84 44 -80 45 -73 c 0
 48 12 51 77 55 124 c 0
 59 176 61 209 61 225 c 0
 61 228 61 230 61 232 c 0
 58 254 54 259 35 267 c 0
 16 273 6 284 6 301 c 0
 6 306 10 312 18 322 c 0
 26 332 43 342 70 351 c 0
 97 360 113 365 118 365 c 0xbd80
 131 365 136 363 136 351 c 0
 136 341 133 333 133 325 c 0
 133 320 135 316 142 316 c 0
 150 316 156 318 164 321 c 0
 169 323 183 330 208 344 c 0
 232 358 255 362 275 362 c 256
 321 362 359 338 382 310 c 0
 410 275 412 259 412 196 c 256
 412 133 411 129 386 92 c 0
 364 59 319 25 283 6 c 0
 264 -4 244 -8 223 -8 c 256
 205 -8 182 -5 151 -0 c 0
 143 1 134 2 125 2 c 3
 117 2 111 -2 109 -11 c 0
 100 -52 97 -154 97 -200 c 0
 97 -207 99 -217 99 -225 c 0
 99 -229 98 -233 97 -236 c 0
 95 -240 88 -248 76 -260 c 0
 64 -272 54 -278 46 -278 c 0x7e80
 35 -278 29 -277 31 -268 c 0
 37 -227 42 -190 42 -154 c 0
 42 -151 42 -148 42 -145 c 0
 41 -122 21 -111 -20 -111 c 256
 -72 -111 -120 -140 -148 -166 c 0
 -163 -181 -171 -197 -171 -216 c 0
 -171 -256 -145 -275 -105 -275 c 0
 -94 -275 -81 -273 -67 -270 c 1
 -50 -280 l 1
 -90 -320 -132 -340 -176 -340 c 0
 -181 -340 -192 -333 -208 -318 c 0
 -224 -303 -232 -280 -232 -247 c 0xbe80
118 181 m 0
 118 110 143 51 194 30 c 0
 211 23 234 19 265 19 c 0
 298 19 310 41 322 68 c 0
 332 91 343 137 343 165 c 256
 343 172 340 188 333 212 c 0
 319 264 304 280 261 307 c 0
 239 321 221 328 207 328 c 256
 193 328 179 321 166 306 c 0
 135 274 119 232 118 181 c 0
EndSplineSet
Validated: 1
EndChar

StartChar: e_longs_i
Encoding: 65584 -1 111
Width: 695
VWidth: 0
Flags: W
HStem: -10 21G<350 361.5> -0 32<138.225 210.125> 60 66<294.78 315.173> 282 27<258.177 309.714> 336 30<141.449 220.5> 446 41<464.958 537.363>
VStem: 6 65<93.3812 233.965> 343 67<17.2402 240.784> 356 68<100.662 281.991> 553 50<46.4783 270.799>
AnchorPoint: "us ligature anchor" 220 391 baselig 0
AnchorPoint: "ligature below" 129 -24 baselig 0
AnchorPoint: "ligature anchor" 179 391 baselig 0
AnchorPoint: "us ligature anchor" 461 391 baselig 1
AnchorPoint: "ligature below" 405 -24 baselig 1
AnchorPoint: "ligature anchor" 526 586 baselig 1
AnchorPoint: "us ligature anchor" 668 391 baselig 2
AnchorPoint: "ligature below" 581 -24 baselig 2
AnchorPoint: "ligature anchor" 643 586 baselig 2
LayerCount: 3
Fore
SplineSet
6 147 m 0xbec0
 6 173 11 201 20 232 c 0
 30 267 44 292 58 306 c 0
 72 320 95 333 128 346 c 0
 161 359 187 366 206 366 c 256
 235 366 251 356 256 330 c 0
 259 316 263 309 268 309 c 259
 291 309 304 311 310 314 c 0
 316 317 324 329 335 349 c 0
 354 384 369 411 392 428 c 0
 404 437 426 449 459 464 c 0
 492 479 516 487 531 487 c 0
 548 487 566 481 585 469 c 1
 604 459 l 2
 609 456 612 452 612 449 c 0
 612 447 611 445 609 442 c 2
 600 434 l 2
 589 423 577 418 565 418 c 0
 554 418 542 422 530 430 c 0
 518 438 506 441 494 444 c 0
 487 446 482 446 478 446 c 0
 466 446 463 440 456 426 c 0
 436 385 426 334 424 272 c 0xbec0
 422 210 418 165 414 136 c 0
 410 107 410 81 410 58 c 0
 410 35 409 22 408 17 c 0
 404 7 369 -10 354 -10 c 256
 346 -10 342 -5 341 4 c 1
 343 26 343 38 343 47 c 3xbf40
 343 61 340 75 340 100 c 3
 340 114 343 136 348 163 c 0
 354 194 356 216 356 242 c 3
 356 270 355 282 342 282 c 3
 319 282 292 278 264 274 c 0
 233 270 201 263 173 257 c 0
 138 249 116 244 106 242 c 0
 87 238 71 206 71 181 c 0
 71 116 104 52 154 43 c 0
 176 39 192 37 204 37 c 256
 238 39 250 49 272 73 c 0
 286 88 294 101 298 111 c 0
 302 121 308 126 317 126 c 0
 325 126 329 120 329 112 c 0
 329 108 328 103 326 99 c 8
 322 91 303 60 291 60 c 0
 286 60 274 54 255 40 c 0
 226 18 181 1 134 1 c 0
 131 1 129 1 126 1 c 0
 93 2 65 17 42 45 c 0
 17 76 6 109 6 147 c 0xbec0
491 296 m 256
 491 307 494 316 500 322 c 0
 506 328 520 336 542 346 c 0
 564 356 586 361 608 361 c 256
 619 361 623 354 623 341 c 3
 623 270 610 266 606 188 c 0
 604 149 603 125 603 114 c 0
 603 79 604 56 608 46 c 0
 612 36 619 32 630 32 c 0
 641 32 654 35 671 42 c 0
 685 48 692 52 694 52 c 3
 695 52 696 51 696 50 c 3
 696 42 613 6 606 4 c 0
 595 1 581 0 564 -0 c 256x7e40
 549 0 527 0 527 5 c 3
 527 10 532 18 534 36 c 0
 538 71 543 165 548 201 c 0
 551 224 553 242 553 252 c 0
 553 262 543 270 522 275 c 0
 501 280 491 287 491 296 c 256
103 286 m 0
 103 278 109 274 120 274 c 0
 124 274 130 275 136 276 c 0
 158 280 175 283 189 286 c 0
 203 289 209 295 209 302 c 0
 209 308 204 316 198 324 c 0
 191 332 184 336 175 336 c 0
 161 336 145 327 130 318 c 0
 112 307 103 297 103 286 c 0
EndSplineSet
Validated: 1
Ligature2: "three-element ligatures in Latin" e longs dotlessi
LCarets2: 2 335 479
Ligature2: "three-element ligatures in Latin" e longs i
EndChar

StartChar: e_longs
Encoding: 65585 -1 112
Width: 489
VWidth: 0
Flags: W
HStem: -10 21G<350 361.5> 1 36<125.77 218.185> 60 66<294.78 315.173> 282 27<258.177 309.714> 336 30<141.449 220.5> 446 41<464.958 537.363>
VStem: 6 65<93.3812 233.965> 343 67<17.2402 240.784> 356 68<100.662 281.991>
AnchorPoint: "us ligature anchor" 221 391 baselig 0
AnchorPoint: "ligature below" 129 -24 baselig 0
AnchorPoint: "ligature anchor" 179 391 baselig 0
AnchorPoint: "us ligature anchor" 649 391 baselig 1
AnchorPoint: "ligature below" 403 -24 baselig 1
AnchorPoint: "ligature anchor" 479 535 baselig 1
LayerCount: 3
Fore
SplineSet
6 147 m 0x7e80
 6 173 11 201 20 232 c 0
 30 267 44 292 58 306 c 0
 72 320 95 333 128 346 c 0
 161 359 187 366 206 366 c 256
 235 366 251 356 256 330 c 0
 259 316 263 309 268 309 c 259
 291 309 304 311 310 314 c 0
 316 317 324 329 335 349 c 0
 354 384 369 411 392 428 c 0
 404 437 426 449 459 464 c 0
 492 479 516 487 531 487 c 0
 548 487 566 481 585 469 c 1
 604 459 l 2
 609 456 612 452 612 449 c 0
 612 447 611 445 609 442 c 2
 600 434 l 2
 589 423 577 418 565 418 c 0
 554 418 542 422 530 430 c 0
 518 438 506 441 494 444 c 0
 487 446 482 446 478 446 c 0
 466 446 463 440 456 426 c 0
 436 385 426 334 424 272 c 0x7e80
 422 210 418 165 414 136 c 0
 410 107 410 81 410 58 c 0
 410 35 409 22 408 17 c 0
 404 7 369 -10 354 -10 c 256
 346 -10 342 -5 341 4 c 1
 343 26 343 38 343 47 c 3xbf
 343 61 340 75 340 100 c 3
 340 114 343 136 348 163 c 0
 354 194 356 216 356 242 c 3
 356 270 355 282 342 282 c 3
 319 282 292 278 264 274 c 0
 233 270 201 263 173 257 c 0
 138 249 116 244 106 242 c 0
 87 238 71 206 71 181 c 0
 71 116 104 52 154 43 c 0
 176 39 192 37 204 37 c 256
 238 39 250 49 272 73 c 0
 286 88 294 101 298 111 c 0
 302 121 308 126 317 126 c 0
 325 126 329 120 329 112 c 0
 329 108 328 103 326 99 c 8
 322 91 303 60 291 60 c 0
 286 60 274 54 255 40 c 0
 226 18 181 1 134 1 c 0
 131 1 129 1 126 1 c 0
 93 2 65 17 42 45 c 0
 17 76 6 109 6 147 c 0x7e80
103 286 m 0
 103 278 109 274 120 274 c 0
 124 274 130 275 136 276 c 0
 158 280 175 283 189 286 c 0
 203 289 209 295 209 302 c 0
 209 308 204 316 198 324 c 0
 191 332 184 336 175 336 c 0
 161 336 145 327 130 318 c 0
 112 307 103 297 103 286 c 0
EndSplineSet
Validated: 1
LCarets2: 1 326
Ligature2: "two-element ligature in Latin" e longs
EndChar

StartChar: t_dotlessi
Encoding: 65586 -1 113
Width: 479
VWidth: 0
Flags: W
HStem: -25 21G<338 352.5> -18 44<434.252 446.556> -5 39<144.5 235.5> 306 43<137 334.462>
VStem: 332 62<93.5692 288>
AnchorPoint: "us ligature anchor" 230 391 baselig 0
AnchorPoint: "ligature below" 152 -24 baselig 0
AnchorPoint: "ligature anchor" 171 391 baselig 0
AnchorPoint: "us ligature anchor" 364 391 baselig 1
AnchorPoint: "ligature below" 378 -24 baselig 1
AnchorPoint: "ligature anchor" 381 391 baselig 1
LayerCount: 3
Fore
SplineSet
-33 304 m 0x38
 -33 308 -27 315 -15 324 c 0
 -3 333 21 340 57 343 c 0
 93 346 182 349 252 349 c 0
 286 349 315 348 332 347 c 1
 349 360 377 371 403 371 c 0
 416 371 426 359 426 345 c 0
 426 340 425 335 422 330 c 0
 417 321 411 298 406 262 c 0
 400 219 394 137 394 89 c 0
 394 85 394 81 394 78 c 0
 394 63 404 27 416 24 c 0
 421 23 428 22 434 22 c 0
 439 22 468 26 479 26 c 0
 482 26 484 26 484 25 c 0
 484 13 394 -15 384 -18 c 0x58
 370 -22 357 -25 348 -25 c 0x98
 328 -25 318 -19 317 -6 c 0
 317 5 321 32 321 45 c 0
 321 57 319 61 315 61 c 0
 311 61 304 57 295 50 c 0
 276 36 198 -5 166 -5 c 256
 123 -5 110 7 83 34 c 0
 53 65 36 96 36 152 c 0
 36 209 38 212 60 254 c 0
 71 275 77 289 77 294 c 0
 77 297 68 298 50 298 c 2
 1 297 l 2
 -22 297 -33 300 -33 304 c 0x38
103 213 m 0
 103 164 110 128 126 102 c 0
 152 60 176 34 233 34 c 0x38
 238 34 245 36 252 39 c 0
 259 42 271 50 286 63 c 0
 301 76 311 92 318 112 c 0
 325 132 329 165 332 211 c 2
 335 288 l 1
 314 292 l 2
 288 297 252 306 223 306 c 0
 210 306 197 305 184 304 c 2
 137 300 l 1
 119 263 l 2
 108 242 103 225 103 213 c 0
EndSplineSet
Validated: 1
Ligature2: "two-element discretionary ligatures in Latin" t dotlessi
LCarets2: 1 297
EndChar

StartChar: r_n
Encoding: 65587 -1 114
Width: 676
VWidth: 0
Flags: W
HStem: -8 21G<552 567.5> -1 50<345 426> 267 92<197.24 258.204> 274 87<304.5 397.347>
VStem: 68 55<30.0945 240.057> 343 67<123.449 273.719> 526 82<27.9589 115.081> 555 67<28.1885 296.163>
AnchorPoint: "us ligature anchor" 204 391 baselig 0
AnchorPoint: "ligature below" 153 -24 baselig 0
AnchorPoint: "ligature anchor" 160 391 baselig 0
AnchorPoint: "us ligature anchor" 560 391 baselig 1
AnchorPoint: "ligature below" 473 -24 baselig 1
AnchorPoint: "ligature anchor" 476 391 baselig 1
LayerCount: 3
Fore
SplineSet
10 309 m 0xad
 10 314 16 322 30 330 c 0
 46 340 98 358 120 358 c 0
 136 358 136 353 138 331 c 0
 139 316 142 309 145 309 c 0
 149 309 160 316 178 330 c 0
 196 344 210 351 218 354 c 0
 226 357 233 359 239 359 c 0xad
 242 359 245 356 250 349 c 2
 280 308 l 1
 299 327 l 2
 314 342 353 361 378 361 c 0
 399 361 412 360 416 342 c 0
 418 332 425 328 436 328 c 0
 439 328 442 329 446 329 c 0
 478 333 506 355 544 355 c 0
 607 355 622 308 622 245 c 0x1d
 622 199 612 116 608 75 c 0
 608 71 608 68 608 65 c 0x1e
 608 48 612 37 622 32 c 0x1d
 634 26 641 21 641 18 c 0
 641 2 577 -8 558 -8 c 0
 546 -8 527 1 526 10 c 0x9e
 526 13 529 20 534 30 c 0
 539 40 543 69 548 116 c 0
 553 163 555 195 555 213 c 0
 555 256 551 279 527 303 c 0
 514 316 501 323 490 323 c 0
 478 323 463 318 446 306 c 0
 429 294 418 286 415 281 c 0
 412 276 410 266 410 252 c 0
 410 238 407 221 402 200 c 0
 397 179 395 153 395 122 c 0
 395 91 397 71 401 62 c 0
 405 53 413 49 426 49 c 0
 439 49 445 48 445 44 c 0
 445 40 439 34 426 25 c 0
 408 13 371 -1 345 -1 c 0
 337 -1 321 2 318 7 c 0
 317 10 317 16 320 26 c 0
 323 36 326 66 329 114 c 0
 332 162 335 195 338 214 c 0
 341 233 343 246 343 254 c 0
 343 274 337 274 312 274 c 0x5d
 297 274 279 273 260 270 c 0
 247 268 239 267 232 267 c 0
 221 267 216 270 206 281 c 0
 200 287 196 291 191 291 c 3
 185 291 178 286 171 280 c 0
 156 268 140 250 137 241 c 0
 131 222 125 131 124 106 c 0
 123 87 123 72 123 61 c 0
 123 50 125 43 130 38 c 0
 133 35 134 32 134 30 c 0
 134 20 116 11 100 4 c 0
 81 -5 68 -7 64 -7 c 3
 53 -7 53 -4 53 13 c 1
 63 90 68 165 68 236 c 0
 68 257 64 270 54 273 c 0
 42 277 10 295 10 309 c 0xad
EndSplineSet
Validated: 1
LCarets2: 1 297
Ligature2: "two-element ligature in Latin" r n
EndChar

StartChar: e_m
Encoding: 65588 -1 115
Width: 919
VWidth: 0
Flags: W
HStem: -13 40<835.259 874.788> 0 39<134.833 242.171 406.943 424.922> 285 34<283.955 329.143> 316 35<706.184 800> 336 20G<553 573> 337 47<142.203 223.878>
VStem: 13 67<87.0774 243.584> 339 66<38.2704 76.9978> 356 71<109.645 255.709> 543 79<5.87713 153.643> 795 39<75.8073 152.726>
AnchorPoint: "us ligature anchor" 241 383 baselig 0
AnchorPoint: "ligature below" 151 -24 baselig 0
AnchorPoint: "ligature anchor" 189 383 baselig 0
AnchorPoint: "us ligature anchor" 794 383 baselig 1
AnchorPoint: "ligature below" 592 -24 baselig 1
AnchorPoint: "ligature anchor" 618 383 baselig 1
LayerCount: 3
Fore
SplineSet
13 116 m 0x5360
 13 173 18 217 30 248 c 0
 57 321 97 352 170 374 c 0
 193 381 210 384 221 384 c 256
 246 384 274 359 282 340 c 0
 288 326 293 319 300 319 c 0
 305 319 312 323 322 330 c 0
 347 349 376 368 417 368 c 256
 427 368 427 365 427 350 c 0
 427 335 434 318 448 318 c 3
 455 318 476 326 501 337 c 0x66e0
 531 351 545 356 561 356 c 3x0ae0
 585 356 609 342 624 329 c 0
 637 318 646 313 650 313 c 0
 654 313 671 319 702 332 c 0
 733 345 760 351 782 351 c 256
 818 351 840 336 854 312 c 0
 862 299 866 279 866 252 c 0
 866 216 861 179 850 140 c 0
 839 101 834 76 834 66 c 0
 834 36 838 29 868 27 c 0
 880 26 886 24 886 21 c 259
 886 1 824 -13 802 -13 c 256x92e0
 780 -13 767 -12 762 -9 c 0
 757 -6 756 3 760 19 c 0
 766 42 795 136 795 165 c 0
 795 194 789 265 779 283 c 0
 770 298 741 316 720 316 c 256
 694 316 685 306 666 286 c 0
 653 272 645 262 642 255 c 0
 639 248 637 235 636 216 c 0
 634 178 625 137 623 99 c 0
 622 86 622 78 622 71 c 0
 622 57 626 53 646 46 c 0
 660 41 660 34 647 26 c 0
 623 11 598 0 562 -0 c 0
 547 0 543 1 543 7 c 0
 543 11 545 16 546 24 c 0
 553 60 555 111 564 150 c 0
 570 175 572 196 572 213 c 0
 572 244 568 272 556 290 c 0
 545 306 526 315 499 315 c 3
 487 315 484 313 477 307 c 0
 461 294 434 266 431 258 c 0
 428 252 427 236 427 210 c 0x52e0
 427 184 423 158 416 132 c 0
 409 106 405 87 405 74 c 0
 405 53 413 38 431 38 c 0
 438 38 441 37 441 34 c 0
 441 31 434 25 420 16 c 0
 401 3 371 -5 345 -5 c 0
 336 -5 334 1 332 12 c 0
 330 20 330 27 332 32 c 0
 332 32 339 57 339 70 c 0
 339 74 338 77 336 77 c 0
 333 77 320 70 300 54 c 0
 265 27 216 0 159 0 c 0
 70 0 13 35 13 116 c 0x5360
80 175 m 0
 80 81 123 42 211 39 c 0
 212 39 213 39 214 39 c 0
 237 39 264 52 296 76 c 0
 329 101 349 122 356 140 c 1
 356 201 l 2
 356 231 356 250 354 256 c 0
 351 268 327 285 312 285 c 0
 304 285 288 283 266 280 c 0
 244 277 219 274 191 271 c 0
 163 268 136 261 111 249 c 0
 90 240 80 215 80 175 c 0
103 286 m 0
 103 275 110 273 124 278 c 0
 137 283 199 301 214 304 c 0
 222 305 226 308 226 311 c 256
 226 314 222 319 213 326 c 0
 204 333 192 337 177 337 c 0
 162 337 152 336 146 335 c 0
 140 334 131 326 120 312 c 0
 109 298 103 289 103 286 c 0
EndSplineSet
Validated: 1
LCarets2: 1 338
Ligature2: "two-element ligature in Latin" e m
EndChar

StartChar: e_r_a.alt
Encoding: 65589 -1 116
Width: 959
VWidth: 0
Flags: W
HStem: -14 21G<362 364> -1 33<125.5 251.266 828 922.461> 5 42<625.879 679.164> 268 42<277.492 322.699> 295 6<806 838> 327 40<142.864 225.5> 341 20G<393 405.5 560.5 569.5 741.5 750.5 895 941>
VStem: 12 71<95.0288 238.624> 363 59<0.0771484 90.9956> 546 57<69.331 264.638> 752 46<148 310> 887 69<266.426 305.203>
AnchorPoint: "us ligature anchor" 234 391 baselig 0
AnchorPoint: "ligature below" 154 -24 baselig 0
AnchorPoint: "ligature anchor" 188 391 baselig 0
AnchorPoint: "us ligature anchor" 482 391 baselig 1
AnchorPoint: "ligature below" 446 -24 baselig 1
AnchorPoint: "ligature anchor" 436 391 baselig 1
AnchorPoint: "us ligature anchor" 789 391 baselig 2
AnchorPoint: "ligature below" 729 -24 baselig 2
AnchorPoint: "ligature anchor" 719 391 baselig 2
LayerCount: 3
Fore
SplineSet
12 174 m 0x41f0
 12 201 16 223 22 236 c 0
 34 258 69 304 88 320 c 0
 104 333 184 367 213 367 c 0
 238 367 274 343 280 324 c 0
 283 315 286 310 291 310 c 0x55f0
 296 310 301 314 308 321 c 0
 318 331 383 361 403 361 c 0
 408 361 412 354 414 345 c 0
 417 334 420 319 422 309 c 0
 424 298 426 293 434 293 c 3
 439 293 450 300 470 315 c 0
 490 330 510 340 528 348 c 0
 546 356 558 360 563 360 c 3
 576 360 579 352 586 330 c 0
 591 314 595 305 598 301 c 0
 601 297 606 295 614 295 c 0x0bf0
 622 295 627 298 632 304 c 0
 637 310 654 320 681 333 c 0
 716 350 737 358 746 358 c 0
 755 358 766 352 779 339 c 0
 792 326 798 316 798 310 c 0x11f0
 798 304 801 301 806 301 c 0
 814 301 826 307 841 318 c 0
 856 329 874 339 895 346 c 2
 925 356 l 1
 941 338 l 2
 950 327 955 315 956 304 c 0
 956 288 948 275 932 265 c 0
 916 255 906 250 900 250 c 0
 894 250 890 255 887 264 c 0
 879 293 869 308 856 308 c 0
 848 308 844 306 844 302 c 0
 844 298 842 295 838 295 c 0x09f0
 827 295 815 284 810 277 c 0
 807 272 806 270 808 268 c 0
 810 266 813 240 818 189 c 0
 823 138 827 107 830 95 c 0
 837 67 870 34 903 33 c 0
 936 33 963 49 983 82 c 0
 989 92 999 104 1004 104 c 0
 1006 104 1007 102 1007 98 c 0
 1007 78 1000 64 986 52 c 0
 976 43 957 32 928 18 c 0
 899 4 870 -2 842 -2 c 0
 814 -2 791 11 773 38 c 0
 762 55 754 63 750 63 c 0
 746 63 736 58 722 48 c 0
 708 38 693 30 676 25 c 0
 659 20 648 15 644 11 c 0
 640 7 634 5 627 5 c 0x31f0
 603 5 584 8 572 16 c 0
 560 24 552 31 550 36 c 0
 548 41 547 61 546 94 c 0
 544 169 539 187 530 260 c 0
 526 296 518 315 509 315 c 0
 500 315 478 298 444 263 c 2
 422 241 l 1
 422 22 l 0
 422 13 413 5 394 -3 c 0
 375 -11 365 -14 363 -14 c 0x81f0
 361 -14 360 -9 360 1 c 2
 363 74 l 2
 363 85 362 91 360 91 c 0
 357 91 347 82 330 64 c 0
 289 21 225 -1 139 -1 c 0
 112 -1 108 2 85 16 c 0
 40 43 12 98 12 174 c 0x41f0
83 198 m 0
 83 149 102 71 138 58 c 0
 162 49 188 32 218 32 c 0
 262 32 297 57 323 108 c 0
 332 126 340 136 346 139 c 0
 352 142 356 160 356 194 c 0
 356 228 354 248 350 256 c 0
 346 264 337 268 322 268 c 0
 308 268 272 264 214 256 c 0
 156 248 121 243 108 240 c 0
 85 234 83 222 83 198 c 0
603 229 m 3
 603 223 606 217 607 206 c 0
 608 195 609 179 610 156 c 0
 612 118 616 94 618 84 c 0
 621 72 638 47 650 47 c 0x21f0
 663 47 665 51 684 51 c 0
 695 51 708 59 722 74 c 0
 736 89 744 99 747 106 c 0
 750 113 752 128 752 148 c 0
 752 168 747 198 736 239 c 0
 722 295 710 322 697 322 c 3
 684 322 665 309 640 282 c 0
 615 255 603 238 603 229 c 3
100 278 m 0
 100 273 105 270 116 270 c 0
 127 270 144 273 166 280 c 0
 188 287 199 296 199 306 c 0
 199 319 175 327 160 327 c 0x05f0
 149 327 137 320 122 306 c 0
 107 292 100 283 100 278 c 0
EndSplineSet
Validated: 1
Ligature2: "'hlig' Three-element Historic Ligatures" e r a
LCarets2: 2 330 543
EndChar

StartChar: e.alt01
Encoding: 65590 -1 117
Width: 270
VWidth: 0
Flags: W
HStem: -5 39<119.939 235.019> 264 36<247 335.098> 327 33<123.229 192.5>
VStem: 13 68<71.5566 237.401>
AnchorPoint: "us anchor" 214 439 basechar 0
AnchorPoint: "std below anchor" 123 -49 basechar 0
AnchorPoint: "std above anchor" 147 439 basechar 0
LayerCount: 3
Fore
SplineSet
13 186 m 0
 13 220 16 242 22 251 c 0
 28 260 34 270 38 279 c 0
 50 305 98 333 128 346 c 0
 149 355 167 360 180 360 c 0
 205 360 224 347 238 320 c 1
 247 300 l 1
 292 298 l 2
 321 297 336 295 336 292 c 0
 336 265 324 264 294 264 c 2
 270 264 l 2
 236 264 102 251 88 234 c 0
 83 228 81 205 81 166 c 0
 81 84 106 34 186 34 c 259
 218.56640625 34 226.544921875 35.25390625 260 57 c 0
 280 70 294 83 301 97 c 0
 304.820994635 104.64198927 312 106 325 100 c 0
 333 97 337 94 337 91 c 0
 337 79 272 33 264 28 c 0
 234 10 184 -5 135 -5 c 0
 89 -5 51 15 34 42 c 0
 14 73 13 130 13 186 c 0
91 274 m 0
 91 270 93 268 96 268 c 0
 103 268 182 278 182 286 c 0
 182 309 172 327 146 327 c 0
 131 327 117 317 103 298 c 0
 95 287 91 278 91 274 c 0
EndSplineSet
EndChar

StartChar: e_o
Encoding: 65591 -1 118
Width: 628
VWidth: 0
Flags: W
HStem: -3 30<66.5 217.5 380.5 478.369> 270 36<257.289 305.984> 334 38<116.971 216.5>
VStem: 13 67<73.7067 224.92> 190 61<309.051 331.964> 277 64<79.4174 240.02> 534 67<89.3519 258.63>
AnchorPoint: "us ligature anchor" 207 391 baselig 0
AnchorPoint: "ligature below" 139 -24 baselig 0
AnchorPoint: "ligature anchor" 157 391 baselig 0
AnchorPoint: "us ligature anchor" 517 391 baselig 1
AnchorPoint: "ligature below" 441 -24 baselig 1
AnchorPoint: "ligature anchor" 445 391 baselig 1
LayerCount: 3
Fore
SplineSet
13 146 m 0
 13 225 19 267 53 307 c 0
 82 342 127 364 187 371 c 0
 194 372 201 372 206 372 c 0
 227 372 251 348 251 327 c 0
 251 316 253 310 257 309 c 0
 263 307 279 306 304 306 c 0
 329 306 348 310 361 318 c 0
 374 326 385 329 396 329 c 0
 417 329 456 347 478 347 c 0
 527 347 559 332 576 304 c 0
 593 276 601 236 601 185 c 0
 601 133 599 127 580 90 c 0
 555 40 514 20 454 5 c 0
 433 0 411 -3 388 -3 c 0
 373 -3 356 2 336 14 c 0
 316 26 304 36 300 42 c 0
 296 48 292 51 288 51 c 256
 285 51 282 48 278 43 c 0
 265 27 196 4 168 0 c 0
 135 -5 130 -5 103 -5 c 0
 30 -5 13 64 13 146 c 0
80 170 m 0
 80 157 82 138 86 115 c 0
 97 52 143 28 214 28 c 0
 221 28 229 31 240 36 c 0
 265 49 276 93 277 133 c 0
 278 167 283 197 292 222 c 0
 298 237 302 248 304 256 c 0
 305 261 306 264 306 266 c 3
 306 269 284 270 279 270 c 0
 257 270 242 268 234 264 c 0
 226 260 206 254 173 249 c 0
 115 239 80 230 80 170 c 0
341 164 m 256
 341 147 345 126 353 101 c 0
 361 76 375 58 394 46 c 0
 413 34 427 27 434 27 c 256
 457 27 491 42 503 54 c 0
 517 67 534 97 534 125 c 0
 534 194 526 239 510 262 c 0
 494 285 468 300 433 305 c 0
 422 307 414 308 408 306 c 0
 402 304 394 297 382 286 c 0
 359 264 359 244 348 212 c 0
 343 198 341 181 341 164 c 256
94 281 m 0
 94 269 104 265 118 265 c 0
 143 265 181 279 186 286 c 0
 189 289 190 296 190 306 c 0
 190 323 174 334 158 334 c 0
 123 334 102 319 95 288 c 0
 94 285 94 283 94 281 c 0
EndSplineSet
LCarets2: 1 273
Ligature2: "two-element ligature in Latin" e o
EndChar

